<svg width="970" height="529" viewBox="0 0 970 529" fill="none" xmlns="http://www.w3.org/2000/svg">
<ellipse cx="434.5" cy="264.5" rx="277.5" ry="264.5" fill="white"/>
<path d="M200 459H41V439H200V459Z" fill="#0A0B0B"/>
<path d="M228.181 308.407C232.445 308.513 235.297 304.265 233.403 300.626L203.623 243.454C202.99 242.014 202.266 240.619 201.448 239.28L201.445 239.273V239.274C195.304 229.224 184.145 222.245 171.099 221.547L86.7381 217.036L86.7109 217L86.0842 217.011L85.9479 217.006C85.8565 217.006 85.7678 217.018 85.6764 217.019L71.6985 217.272C47.2735 217.714 25.259 232.759 18.509 255.095C18.2367 255.995 17.9888 256.907 17.7646 257.829L0.271594 314.296C-0.929397 318.171 1.99512 322.094 6.23709 322.297L48.2614 324.313L34.7353 431.129C34.2044 435.315 37.6402 439 42.0719 439H201.273C204.874 439 207.779 436.197 207.726 432.772L207.667 307.854L228.181 308.407Z" fill="#668A76"/>
<path d="M86.4163 216.843L86.3222 216.849L86.1647 216.856L72.184 217.109C47.6399 217.553 25.926 232.993 19.3803 254.656C19.1117 255.547 18.8637 256.46 18.6417 257.371L1.13271 313.904C0.598474 315.629 0.919016 317.459 2.01211 318.926C3.10442 320.392 4.8145 321.285 6.70144 321.375L48.7488 323.393C48.8702 323.398 48.9836 323.452 49.0628 323.54C49.141 323.63 49.1771 323.744 49.1621 323.86L35.629 430.754C35.3907 432.633 36.0107 434.52 37.3298 435.936C38.648 437.352 40.5458 438.163 42.5332 438.163H201.817C203.441 438.163 204.963 437.557 206.103 436.457C207.243 435.356 207.857 433.9 207.834 432.355L207.775 307.34C207.775 307.227 207.822 307.118 207.907 307.04C207.993 306.96 208.1 306.916 208.227 306.921L228.749 307.474C230.602 307.548 232.296 306.663 233.291 305.18C234.287 303.696 234.391 301.87 233.57 300.293L203.774 243.078C203.133 241.621 202.41 240.232 201.613 238.925C195.311 228.609 184.093 222.055 171.603 221.387L87.1972 216.872L87.0503 216.839L86.5763 216.848L86.4163 216.843ZM201.817 439H42.5332C40.2934 439 38.1573 438.085 36.6711 436.491C35.1867 434.897 34.4884 432.77 34.7567 430.654L48.2335 324.205L6.65676 322.211C4.4995 322.108 2.5445 321.087 1.29514 319.41C0.0447132 317.733 -0.32182 315.64 0.289716 313.668L17.7915 257.159C18.01 256.257 18.2625 255.33 18.5352 254.426C25.1867 232.412 47.2407 216.723 72.1673 216.272L86.2597 216.013L86.4321 216.006L86.5842 216.012L87.1875 216L87.3933 216.044L171.652 220.551C184.439 221.235 195.922 227.945 202.369 238.498C203.19 239.844 203.931 241.266 204.574 242.73L234.358 299.922C235.318 301.764 235.195 303.898 234.033 305.63C232.87 307.362 230.868 308.38 228.727 308.311H228.726L208.654 307.771L208.713 432.349C208.739 434.113 208.036 435.783 206.729 437.044C205.423 438.305 203.678 439 201.817 439Z" fill="#0A0B0B"/>
<path d="M253.05 256.41C258.129 247.39 259.861 236.489 255.295 226.924L249.449 228.989C249.449 228.989 243.852 213.371 242.948 201.966C240.701 198.087 224.444 206.271 224.444 206.271C224.444 206.271 226.058 202.013 226.865 199.885C227.72 197.628 228.589 195.224 228.077 192.872C227.566 190.52 225.075 188.406 222.717 189.153C220.395 189.888 216 199.206 214.615 201.398C206.276 214.599 206.377 231.865 207.842 246.789C208.624 254.743 204.909 336.642 206.325 340.278C214.885 362.232 246.783 362.678 255.985 340.969C257.155 336.698 257.826 332.33 257.996 327.951C258.227 322.028 248.097 269.057 247.94 267.26C247.72 264.74 248.953 262.523 250.38 260.412C251.301 259.05 252.304 257.734 253.05 256.41Z" fill="#EAF1E4"/>
<path d="M223.846 189.832C223.577 189.832 223.295 189.872 223.003 189.964C221.446 190.464 218.388 196.204 216.746 199.286C216.11 200.48 215.608 201.423 215.265 201.971C206.859 215.433 207.323 233.042 208.665 246.879C209.014 250.465 208.464 268.937 207.881 288.495C207.192 311.645 206.411 337.882 207.148 339.796C210.98 349.739 220.097 356.011 230.943 356.163C241.794 356.276 251.079 350.301 255.198 340.473C256.317 336.327 256.978 332 257.145 327.661C257.31 323.377 251.958 293.679 249.082 277.722C248.009 271.757 247.298 267.817 247.256 267.322C247.028 264.688 248.308 262.363 249.724 260.244C249.998 259.834 250.281 259.426 250.561 259.023C251.213 258.082 251.83 257.194 252.332 256.292C257.714 246.622 258.566 236.217 254.689 227.676L249.309 229.598C249.203 229.635 249.084 229.631 248.98 229.583C248.877 229.535 248.798 229.448 248.761 229.343C248.706 229.187 243.26 213.712 242.353 202.449C240.737 200.043 230.747 203.925 224.767 206.97C224.613 207.05 224.42 207.028 224.289 206.914C224.157 206.799 224.11 206.618 224.17 206.456L226.552 200.103C227.295 198.118 228.221 195.648 227.727 193.354C227.462 192.119 226.574 190.916 225.466 190.289C225.061 190.059 224.495 189.832 223.846 189.832ZM231.344 357C231.207 357 231.069 356.999 230.931 356.997C219.729 356.841 210.31 350.362 206.352 340.091C205.61 338.167 206.14 318.403 207.03 288.47C207.612 268.94 208.161 250.492 207.817 246.958C206.462 232.992 206.001 215.208 214.539 201.535C214.867 201.012 215.387 200.033 215.991 198.901C218.553 194.092 220.996 189.73 222.739 189.171C223.747 188.846 224.869 188.988 225.892 189.566C227.219 190.317 228.242 191.703 228.561 193.182C229.104 195.709 228.133 198.305 227.352 200.391L225.343 205.748C229.093 203.92 241.052 198.46 243.142 202.114L243.194 202.286C243.99 212.444 248.566 226.159 249.427 228.668L254.768 226.759C254.973 226.686 255.207 226.779 255.3 226.976C259.475 235.824 258.666 246.655 253.079 256.691C252.557 257.629 251.9 258.576 251.265 259.492C250.987 259.892 250.708 260.295 250.436 260.703C248.896 263.007 247.91 265.002 248.104 267.252C248.143 267.708 248.889 271.848 249.922 277.578C252.802 293.563 258.164 323.32 257.996 327.692C257.827 332.093 257.156 336.483 256.003 340.737C251.784 350.817 242.367 357 231.344 357Z" fill="#0A0B0B"/>
<path d="M221 215.365L236.453 230L248 208.685L245.537 199L224.552 206.406L221 215.365Z" fill="#0A0B0B"/>
<path d="M245.46 236.895C241.171 237.563 237.095 234.971 236.354 231.105L229.116 193.311C228.375 189.446 231.252 185.772 235.541 185.105C239.828 184.438 243.905 187.03 244.644 190.895L251.884 228.689C252.624 232.555 249.748 236.228 245.46 236.895Z" fill="#385B48"/>
<path d="M237.035 184.846C236.627 184.846 236.217 184.879 235.807 184.947C233.928 185.258 232.288 186.251 231.189 187.742C230.09 189.235 229.664 191.048 229.989 192.847L236.949 231.479C237.273 233.279 238.309 234.85 239.867 235.903C241.425 236.956 243.314 237.365 245.195 237.054C249.073 236.412 251.682 232.869 251.013 229.153L244.051 190.521C243.728 188.721 242.692 187.151 241.135 186.098C239.917 185.275 238.495 184.846 237.035 184.846ZM243.964 238C242.324 238 240.727 237.518 239.359 236.593C237.609 235.41 236.444 233.645 236.079 231.623L229.119 192.991C228.754 190.969 229.234 188.933 230.469 187.255C231.703 185.579 233.545 184.464 235.657 184.114C237.765 183.765 239.892 184.225 241.643 185.407C243.393 186.59 244.557 188.355 244.921 190.377L251.883 229.01C252.634 233.184 249.701 237.166 245.345 237.886C244.885 237.962 244.422 238 243.964 238Z" fill="#0A0B0B"/>
<path d="M244.584 190.705L230.758 192.927C227.863 193.392 225.111 191.584 224.611 188.888L224.078 186.019C223.579 183.324 225.521 180.761 228.416 180.295L242.242 178.073C245.137 177.608 247.889 179.416 248.39 182.111L248.922 184.981C249.421 187.676 247.48 190.239 244.584 190.705Z" fill="#FEF7EE"/>
<path d="M244.124 190.268H244.133H244.124ZM242.683 177.822C242.406 177.822 242.127 177.844 241.845 177.89L227.951 180.139C225.284 180.57 223.489 182.956 223.95 185.455L224.485 188.359C224.945 190.859 227.488 192.54 230.156 192.11L244.049 189.862C246.716 189.43 248.511 187.045 248.051 184.545L247.516 181.641C247.104 179.405 245.025 177.822 242.683 177.822ZM229.318 193C226.556 193 224.106 191.135 223.619 188.499L223.085 185.595C222.543 182.648 224.659 179.837 227.802 179.328L241.696 177.08C244.84 176.571 247.837 178.555 248.381 181.502L248.915 184.405C249.457 187.353 247.341 190.164 244.198 190.672L230.305 192.921C229.973 192.975 229.643 193 229.318 193Z" fill="#0A0B0B"/>
<path d="M207 173.219L202.678 173.944C200.567 174.3 198.559 172.92 198.195 170.865L198.057 170.09C197.694 168.035 199.109 166.081 201.22 165.727L205.542 165L207 173.219Z" fill="#F5E9D7"/>
<path d="M204.91 165.892L201.412 166.481C199.735 166.764 198.604 168.327 198.893 169.966L199.018 170.668C199.159 171.462 199.607 172.155 200.282 172.619C200.956 173.085 201.776 173.265 202.589 173.128L206.085 172.538L204.91 165.892ZM202.054 174C201.25 174 200.464 173.758 199.792 173.296C198.932 172.704 198.361 171.821 198.182 170.809L198.058 170.106C197.689 168.018 199.129 166.026 201.268 165.665L205.184 165.006C205.293 164.987 205.408 165.013 205.5 165.076C205.592 165.139 205.654 165.235 205.674 165.343L206.994 172.806C207.013 172.913 206.987 173.025 206.922 173.114C206.857 173.204 206.759 173.265 206.648 173.284L202.733 173.943C202.507 173.981 202.28 174 202.054 174Z" fill="#0A0B0B"/>
<path d="M249 182.264L226.91 185.734C216.118 187.429 205.858 180.843 203.994 171.023L203.292 167.32C201.429 157.5 208.667 148.165 219.46 146.47L241.551 143L249 182.264Z" fill="#385B48"/>
<path d="M240.883 143.899L219.663 147.31C209.34 148.971 202.392 158.145 204.174 167.761L204.862 171.478C206.645 181.093 216.489 187.566 226.816 185.906L248.035 182.494L240.883 143.899ZM223.574 187C214.077 187 205.65 180.627 203.98 171.619L203.292 167.902C201.427 157.834 208.702 148.227 219.511 146.489L241.172 143.006C241.412 142.968 241.647 143.118 241.689 143.346L248.994 182.763C249.013 182.872 248.987 182.984 248.918 183.074C248.85 183.165 248.746 183.226 248.629 183.245L226.968 186.728C225.828 186.912 224.693 187 223.574 187Z" fill="#0A0B0B"/>
<path d="M241 143.193L248.144 182.764C264.544 180.056 281.444 182.379 296.555 189.419L330 205L310.322 96L284.276 121.401C272.508 132.878 257.4 140.486 241 143.193Z" fill="white"/>
<path d="M240.439 142.682L240.006 142.753L247.16 182.383C247.179 182.492 247.245 182.59 247.339 182.654C247.434 182.718 247.553 182.743 247.667 182.725C252.098 181.993 256.568 181.63 261.027 181.63C273.002 181.63 284.912 184.245 295.878 189.354L329.37 204.957C329.518 205.027 329.693 205.011 329.824 204.916C329.957 204.821 330.022 204.665 329.994 204.51L310.287 95.3481C310.259 95.1922 310.143 95.0665 309.986 95.0196C309.829 94.9718 309.658 95.0129 309.543 95.126L283.461 120.565C271.74 131.996 256.696 139.573 240.364 142.269C240.125 142.308 239.965 142.525 240.006 142.753L240.439 142.682L240.513 143.095C257.027 140.368 272.239 132.707 284.087 121.152L309.569 96.2969L328.984 203.846L296.262 188.6C285.178 183.436 273.135 180.792 261.027 180.792C256.518 180.792 251.999 181.159 247.518 181.898L247.592 182.311L248.023 182.24L240.87 142.611L240.439 142.682L240.513 143.095L240.439 142.682Z" fill="#0A0B0B"/>
<path d="M335.851 147.698C341.294 178.046 339.503 203.68 331.853 204.951C324.204 206.222 313.591 182.65 308.149 152.302C302.707 121.954 304.496 96.3204 312.146 95.0491C319.796 93.7778 330.409 117.35 335.851 147.698Z" fill="#EAF1E4"/>
<path d="M335.299 147.716L334.856 147.787C337.047 159.533 338.1 170.566 338.1 179.713C338.1 186.843 337.458 192.831 336.23 197.094C335.618 199.225 334.857 200.923 333.983 202.109C333.104 203.299 332.14 203.957 331.095 204.124C330.917 204.152 330.737 204.167 330.554 204.167C329.696 204.168 328.761 203.852 327.762 203.199C326.013 202.062 324.114 199.903 322.214 196.907C316.5 187.915 310.726 171.432 307.144 152.213C304.953 140.467 303.9 129.433 303.9 120.286C303.9 113.155 304.542 107.168 305.769 102.905C306.381 100.774 307.142 99.0758 308.016 97.89C308.895 96.7008 309.859 96.0425 310.904 95.8758C311.082 95.8475 311.262 95.8333 311.445 95.8333C312.303 95.8325 313.238 96.1484 314.237 96.8009C315.986 97.9384 317.884 100.097 319.785 103.093C325.499 112.085 331.273 128.568 334.856 147.787L335.299 147.716L335.743 147.645C333 132.948 328.993 119.849 324.675 110.401C322.515 105.676 320.28 101.863 318.067 99.2075C316.959 97.88 315.857 96.8392 314.757 96.12C313.657 95.4025 312.547 95.0008 311.445 95C311.212 95 310.98 95.0183 310.751 95.055C309.389 95.2725 308.229 96.1209 307.273 97.4209C305.835 99.3775 304.785 102.396 304.071 106.278C303.361 110.158 303 114.903 303 120.286C303 129.491 304.058 140.566 306.257 152.356C308.999 167.053 313.007 180.151 317.324 189.599C319.484 194.324 321.719 198.137 323.932 200.793C325.04 202.12 326.142 203.161 327.242 203.88C328.342 204.598 329.452 205 330.554 205C330.787 205 331.019 204.982 331.248 204.945C332.61 204.728 333.77 203.879 334.727 202.579C336.164 200.622 337.214 197.604 337.928 193.722C338.639 189.84 339 185.096 339 179.713C339 170.508 337.942 159.433 335.743 147.645L335.299 147.716Z" fill="#0A0B0B"/>
<path d="M332.499 147.158C336.821 171.437 335.399 191.943 329.325 192.961C323.25 193.978 314.823 175.121 310.501 150.841C306.179 126.562 307.601 106.056 313.675 105.039C319.75 104.021 328.178 122.879 332.499 147.158Z" fill="white"/>
<path d="M297.625 143.319L312.484 140.872C318.552 139.871 324.321 143.756 325.368 149.547C326.416 155.339 322.346 160.843 316.277 161.843L301.419 164.292L297.625 143.319Z" fill="#385B48"/>
<path d="M297.625 143.319L297.7 143.731L312.558 141.283C313.175 141.182 313.789 141.133 314.394 141.133C319.508 141.133 324.036 144.643 324.936 149.618C325.043 150.207 325.094 150.793 325.094 151.37C325.094 156.251 321.416 160.573 316.203 161.431L301.777 163.808L298.057 143.248L297.625 143.319L297.7 143.731L297.625 143.319L297.194 143.39L300.987 164.363C301.029 164.59 301.255 164.743 301.494 164.704L316.352 162.256C321.992 161.325 325.97 156.654 325.97 151.37C325.97 150.745 325.915 150.112 325.8 149.476C324.825 144.094 319.931 140.296 314.394 140.296C313.739 140.296 313.075 140.349 312.409 140.459L297.551 142.906C297.312 142.946 297.153 143.162 297.194 143.39L297.625 143.319Z" fill="#0A0B0B"/>
<path d="M333.054 147.655L332.627 147.726C334.321 157.209 335.134 166.115 335.134 173.497C335.134 179.25 334.638 184.08 333.691 187.512C333.22 189.228 332.634 190.591 331.966 191.537C331.295 192.487 330.567 193 329.79 193.129C329.657 193.152 329.523 193.163 329.386 193.163C328.745 193.163 328.039 192.916 327.276 192.396C325.941 191.49 324.478 189.754 323.012 187.34C318.604 180.094 314.14 166.787 311.373 151.273C309.679 141.791 308.866 132.884 308.866 125.503C308.866 119.749 309.362 114.919 310.309 111.487C310.78 109.772 311.366 108.408 312.034 107.463C312.705 106.512 313.433 106 314.21 105.87C314.343 105.848 314.477 105.837 314.614 105.837C315.255 105.837 315.961 106.083 316.724 106.604C318.059 107.51 319.523 109.246 320.988 111.659C325.396 118.906 329.86 132.213 332.627 147.726L333.054 147.655L333.481 147.584C331.36 135.709 328.26 125.126 324.92 117.488C323.248 113.667 321.518 110.584 319.801 108.43C318.941 107.353 318.084 106.507 317.223 105.919C316.364 105.332 315.489 105 314.614 105C314.43 105 314.245 105.015 314.062 105.045C312.981 105.226 312.064 105.93 311.319 106.99C310.195 108.588 309.383 111.034 308.831 114.176C308.28 117.317 308.001 121.152 308 125.503C308.001 132.943 308.818 141.89 310.519 151.416C312.64 163.291 315.74 173.873 319.08 181.512C320.752 185.332 322.482 188.415 324.2 190.57C325.059 191.647 325.916 192.493 326.777 193.081C327.636 193.667 328.511 193.999 329.386 194C329.571 194 329.755 193.985 329.938 193.955C331.019 193.774 331.936 193.07 332.681 192.009C333.805 190.411 334.617 187.965 335.169 184.824C335.72 181.683 335.999 177.848 336 173.497C335.999 166.056 335.182 157.109 333.481 147.584L333.054 147.655Z" fill="#0A0B0B"/>
<path d="M245 142L252 182L245 142Z" fill="#F5E9D7"/>
<path d="M252.55 182C252.336 182 252.146 181.858 252.109 181.656L245.006 142.479C244.966 142.255 245.131 142.043 245.374 142.006C245.615 141.967 245.85 142.12 245.891 142.344L252.994 181.521C253.034 181.746 252.87 181.957 252.625 181.994L252.55 182Z" fill="#0A0B0B"/>
<path d="M259.725 205.509L259.776 205.676C260.575 208.315 259.169 211.159 256.65 211.997L242.311 216.765C239.792 217.603 237.075 216.13 236.276 213.492L236.224 213.323C235.425 210.685 236.831 207.841 239.351 207.004L253.689 202.235C256.209 201.397 258.924 202.871 259.725 205.509Z" fill="#EAF1E4"/>
<path d="M256.476 202.822C256.016 202.822 255.549 202.888 255.088 203.026L240.076 207.532C237.66 208.258 236.319 210.705 237.086 212.988L237.139 213.147C237.509 214.248 238.316 215.15 239.409 215.685C240.504 216.221 241.748 216.323 242.912 215.973L257.924 211.467C260.34 210.742 261.681 208.295 260.914 206.011L260.86 205.852C260.24 204.004 258.426 202.822 256.476 202.822ZM241.525 217C240.661 217 239.802 216.804 239.009 216.416C237.709 215.779 236.75 214.706 236.31 213.396L236.256 213.237C235.345 210.522 236.94 207.612 239.812 206.749L254.825 202.243C257.7 201.38 260.777 202.888 261.69 205.604L261.743 205.762C262.655 208.478 261.06 211.388 258.187 212.251L243.175 216.757C242.634 216.919 242.079 217 241.525 217Z" fill="#0A0B0B"/>
<path d="M257.702 196.274L257.756 196.431C258.624 198.893 257.1 201.548 254.371 202.33L238.837 206.78C236.107 207.563 233.165 206.188 232.298 203.726L232.244 203.568C231.376 201.106 232.9 198.452 235.63 197.67L251.163 193.219C253.893 192.438 256.835 193.812 257.702 196.274Z" fill="#EAF1E4"/>
<path d="M252.476 192.822C252.016 192.822 251.549 192.888 251.088 193.026L236.077 197.533C234.911 197.882 233.957 198.645 233.391 199.679C232.824 200.712 232.716 201.888 233.086 202.988L233.14 203.148C233.51 204.249 234.316 205.151 235.41 205.686C236.505 206.222 237.75 206.324 238.913 205.974L253.923 201.468C255.089 201.118 256.043 200.356 256.609 199.322C257.176 198.289 257.283 197.113 256.914 196.011L256.86 195.853C256.239 194.005 254.425 192.822 252.476 192.822ZM237.526 207C236.662 207.001 235.803 206.804 235.01 206.416C233.71 205.779 232.751 204.707 232.311 203.397L232.257 203.237C231.816 201.927 231.945 200.529 232.619 199.301C233.293 198.071 234.426 197.165 235.813 196.749L250.824 192.243C253.696 191.38 256.777 192.889 257.689 195.604L257.743 195.762C258.183 197.073 258.055 198.471 257.382 199.7C256.708 200.93 255.574 201.835 254.187 202.251L239.176 206.758C238.635 206.92 238.08 207 237.526 207Z" fill="#0A0B0B"/>
<path d="M259.767 215.403L259.781 215.447C260.56 218.006 259.191 220.764 256.74 221.577L247.103 224.772C244.652 225.585 242.009 224.156 241.232 221.597L241.219 221.552C240.44 218.994 241.808 216.235 244.26 215.423L253.895 212.228C256.347 211.416 258.989 212.844 259.767 215.403Z" fill="#EAF1E4"/>
<path d="M256.331 212.864C255.852 212.864 255.371 212.933 254.903 213.075L244.205 216.302C241.715 217.053 240.333 219.588 241.123 221.953C241.929 224.363 244.598 225.675 247.088 224.926L257.787 221.698C258.988 221.335 259.971 220.546 260.555 219.475C261.138 218.404 261.249 217.187 260.868 216.046L260.853 216.002C260.471 214.861 259.641 213.928 258.513 213.373C257.825 213.034 257.08 212.864 256.331 212.864ZM245.657 226C243.263 226 241.034 224.541 240.273 222.26C239.315 219.396 240.962 216.374 243.93 215.479L254.627 212.253C256.06 211.82 257.589 211.946 258.931 212.606C260.274 213.267 261.264 214.38 261.719 215.74L261.734 215.784C262.189 217.145 262.057 218.597 261.362 219.872C260.666 221.148 259.495 222.088 258.063 222.52L247.362 225.748C246.796 225.919 246.222 226 245.657 226Z" fill="#0A0B0B"/>
<path d="M263.715 225.259L263.768 225.415C264.596 227.866 263.14 230.508 260.535 231.286L255.527 232.782C252.922 233.56 250.112 232.191 249.285 229.741L249.232 229.584C248.404 227.134 249.86 224.493 252.466 223.714L257.473 222.219C260.079 221.44 262.887 222.808 263.715 225.259Z" fill="#EAF1E4"/>
<path d="M259.496 221.821C259.037 221.821 258.571 221.887 258.112 222.025L253.062 223.545C251.9 223.894 250.95 224.655 250.386 225.687C249.821 226.72 249.714 227.895 250.082 228.994L250.136 229.153C250.504 230.253 251.308 231.152 252.397 231.688C253.489 232.223 254.729 232.324 255.888 231.975L260.939 230.456C262.1 230.106 263.05 229.345 263.615 228.312C264.179 227.281 264.286 226.106 263.917 225.006L263.865 224.848C263.247 223.003 261.438 221.821 259.496 221.821ZM254.506 233C253.645 233 252.789 232.804 251.998 232.416C250.703 231.78 249.748 230.71 249.31 229.402L249.256 229.242C248.818 227.934 248.945 226.537 249.617 225.31C250.288 224.083 251.417 223.178 252.799 222.763L257.85 221.243C260.713 220.381 263.781 221.887 264.691 224.599L264.692 224.601L264.744 224.759C265.182 226.067 265.055 227.463 264.383 228.69C263.713 229.917 262.583 230.822 261.201 231.238L256.15 232.757C255.611 232.92 255.058 233 254.506 233Z" fill="#0A0B0B"/>
<path d="M223.873 207C223.873 207 225.767 201.945 226.596 199.827C227.476 197.583 228.369 195.191 227.843 192.851C227.318 190.512 224.756 188.409 222.331 189.152C219.944 189.884 215.425 199.152 214 201.333" fill="#EAF1E4"/>
<path d="M224.097 207L223.308 206.732C223.308 206.732 225.09 201.824 225.87 199.768C226.601 197.843 227.511 195.448 227.025 193.223C226.765 192.025 225.892 190.858 224.803 190.25C224.24 189.935 223.364 189.627 222.382 189.935C220.851 190.42 217.845 195.987 216.231 198.977C215.606 200.134 215.112 201.049 214.776 201.581C214.654 201.772 214.394 201.828 214.2 201.714C214.003 201.598 213.941 201.348 214.062 201.157C214.384 200.65 214.895 199.7 215.489 198.603C218.007 193.939 220.409 189.708 222.122 189.166C223.113 188.85 224.216 188.988 225.221 189.549C226.526 190.278 227.532 191.621 227.845 193.056C228.379 195.507 227.425 198.025 226.657 200.048C225.876 202.1 224.097 207 224.097 207Z" fill="#0A0B0B"/>
<path d="M220.436 221H220.431C220.19 220.998 219.997 220.813 220 220.588C220.054 216.105 223.996 207.604 224.164 207.244C224.262 207.037 224.519 206.945 224.739 207.033C224.96 207.123 225.06 207.363 224.963 207.57C224.924 207.657 220.925 216.278 220.872 220.597C220.87 220.821 220.674 221 220.436 221Z" fill="#0A0B0B"/>
<path d="M189.67 111.455C189.873 111.188 190.053 110.908 190.178 110.597C192.532 108.047 194.097 104.792 194.452 101.142C195.338 91.9807 188.301 83.8638 178.73 83.0141C177.923 82.9422 177.128 82.9439 176.341 82.9773C167.901 76 162.015 68.4529 147.22 70.276C141.517 70.9786 136.216 73.7926 132.972 78.3386C132.52 78.9711 132.124 79.6503 131.763 80.3505C131.472 80.9136 123.927 81.7232 122.923 81.9897C115.871 83.8579 106.851 86.6385 103.333 93.3242C101.777 96.2811 101.286 99.6139 101.157 102.945C95.8392 106.987 93.674 114.138 95.82 120.611L101.364 137.33C102.524 137.051 103.732 136.887 104.981 136.887H112.05C112.483 137.593 112.916 138.302 113.341 139.022C115.536 142.735 116.957 146.682 116.788 151C125.932 138.759 169.698 141.951 179.412 141.951C189.125 141.951 197 134.413 197 125.114C197 119.483 194.103 114.512 189.67 111.455Z" fill="#0A0B0B"/>
<path d="M104.438 137.02H111.515C111.67 137.02 111.813 137.098 111.892 137.227C112.326 137.936 112.761 138.65 113.189 139.373C115.447 143.2 116.604 146.817 116.702 150.39C125.989 140.565 157.921 141.51 173.513 141.972C175.842 142.041 177.682 142.096 178.955 142.096C188.423 142.096 196.126 134.714 196.126 125.642C196.126 120.377 193.451 115.388 188.969 112.295C188.875 112.229 188.811 112.13 188.793 112.02C188.775 111.91 188.803 111.797 188.872 111.708C189.085 111.429 189.229 111.187 189.325 110.945L189.405 110.818C191.8 108.223 193.243 105.03 193.576 101.581C193.995 97.253 192.63 93.0275 189.731 89.6819C186.834 86.3372 182.749 84.2743 178.232 83.8724C177.531 83.8105 176.79 83.7996 175.899 83.8364C175.784 83.8465 175.68 83.8054 175.593 83.7351C174.403 82.7505 173.256 81.7475 172.146 80.7772C165.26 74.7592 159.317 69.5592 146.782 71.1064C140.98 71.8222 135.892 74.7014 132.822 79.0064C132.42 79.5691 132.034 80.2121 131.643 80.9714C131.417 81.411 130.482 81.6697 125.079 82.4332C123.917 82.5973 122.82 82.7522 122.517 82.8326C114.382 84.9901 106.408 87.8325 103.178 93.9752C101.877 96.4501 101.2 99.4582 101.046 103.443C101.041 103.566 100.982 103.68 100.881 103.755C95.6684 107.722 93.5792 114.652 95.6823 121.003L101.11 137.386C102.237 137.143 103.356 137.02 104.438 137.02ZM116.258 152L116.117 151.977C115.935 151.918 115.814 151.75 115.821 151.565C115.971 147.758 114.86 143.904 112.427 139.785C112.044 139.136 111.655 138.495 111.265 137.858H104.438C103.298 137.858 102.117 138.002 100.923 138.29C100.699 138.343 100.47 138.221 100.401 138.01L94.8497 121.256C92.6583 114.64 94.8007 107.419 100.18 103.221C100.29 100.64 100.656 96.913 102.399 93.5985C105.781 87.1652 113.955 84.2341 122.283 82.0255C122.639 81.9309 123.66 81.7869 124.951 81.6043C126.84 81.3381 130.318 80.8458 130.893 80.5352C131.292 79.7683 131.687 79.1136 132.1 78.5334C135.311 74.0325 140.621 71.0227 146.671 70.2759C159.599 68.6826 165.982 74.256 172.735 80.1593C173.8 81.0895 174.899 82.0506 176.034 82.9933C176.888 82.964 177.619 82.9774 178.312 83.0385C183.062 83.4613 187.356 85.6306 190.404 89.1469C193.451 92.6641 194.886 97.1081 194.447 101.659C194.097 105.261 192.599 108.598 190.111 111.317C190.035 111.496 189.939 111.673 189.821 111.857C194.325 115.121 197 120.244 197 125.642C197 135.176 188.906 142.933 178.955 142.933C177.668 142.933 175.822 142.878 173.485 142.809C158.805 142.372 124.428 141.355 116.613 151.825C116.53 151.937 116.396 152 116.258 152Z" fill="#0A0B0B"/>
<path d="M154.92 113.049C153.079 112.116 151.235 111.066 149.17 110.78C144.073 110.072 139.405 114.139 134.256 114.006C130.553 113.91 127.061 111.371 125.993 108C129.026 122.845 125.364 138.818 116.106 151.119C116.278 146.78 114.839 142.813 112.617 139.082C112.187 138.358 111.749 137.645 111.311 136.936H104.154C102.89 136.936 101.667 137.101 100.492 137.382C93.9148 138.951 89 144.618 89 151.338V152.743C89 160.664 95.8188 167.146 104.154 167.146H108.198L104.149 215.227C102.965 229.285 113.997 241.593 128.79 242.718L131.403 242.917C146.195 244.042 159.146 233.558 160.33 219.5L161.855 201.39C175.225 201.179 186 190.83 186 178.073V121.798C186 119.349 185.581 116.999 184.84 114.784C183.646 115.472 182.384 116.043 181.075 116.47C172.511 119.264 162.911 117.097 154.92 113.049Z" fill="#EAF1E4"/>
<path d="M104.455 137.592C103.313 137.592 102.129 137.736 100.933 138.022C94.4229 139.579 89.8755 145.117 89.8755 151.488V152.884C89.8755 160.547 96.4156 166.781 104.455 166.781H108.463C108.585 166.781 108.702 166.829 108.784 166.914C108.867 167 108.909 167.115 108.899 167.231L104.886 215.015C104.329 221.66 106.519 228.115 111.055 233.191C115.592 238.267 121.93 241.355 128.903 241.886L131.493 242.084C138.464 242.62 145.239 240.528 150.564 236.205C155.889 231.882 159.13 225.841 159.688 219.195L161.199 201.196C161.218 200.982 161.403 200.816 161.629 200.812C174.584 200.608 185.124 190.399 185.124 178.057V122.13C185.124 120.005 184.799 117.873 184.156 115.787C183.075 116.376 181.956 116.86 180.824 117.23C170.493 120.61 159.932 116.534 154.557 113.803L153.918 113.475C152.352 112.669 150.733 111.835 149.002 111.593C146.439 111.238 144.002 112.152 141.421 113.12C139.13 113.979 136.751 114.865 134.274 114.804C131.406 114.729 128.678 113.262 127.005 111.069C129.065 125.085 125.286 140.012 116.655 151.513C116.544 151.662 116.341 151.724 116.158 151.664C115.975 151.605 115.855 151.438 115.862 151.254C116.011 147.459 114.899 143.618 112.46 139.513C112.077 138.866 111.687 138.227 111.296 137.592H104.455ZM133.627 243C132.895 243 132.16 242.972 131.423 242.916L128.833 242.718C121.627 242.169 115.077 238.977 110.389 233.732C105.701 228.487 103.437 221.816 104.014 214.948L107.988 167.615H104.455C95.9332 167.615 89 161.007 89 152.884V151.488C89 144.734 93.8188 138.863 100.72 137.213C101.986 136.91 103.242 136.757 104.455 136.757H111.547C111.702 136.757 111.846 136.835 111.924 136.963C112.36 137.67 112.795 138.381 113.224 139.102C115.456 142.865 116.614 146.423 116.739 149.937C125.21 138.012 128.545 122.626 125.667 108.497C125.623 108.279 125.765 108.066 125.992 108.012C126.221 107.959 126.449 108.086 126.516 108.297C127.525 111.493 130.798 113.879 134.297 113.969C136.629 114.03 138.892 113.172 141.1 112.344C143.676 111.377 146.337 110.379 149.128 110.767C151.014 111.029 152.702 111.9 154.335 112.742L154.968 113.066C160.218 115.735 170.521 119.721 180.54 116.441C181.783 116.034 183.009 115.484 184.185 114.803C184.302 114.737 184.442 114.725 184.567 114.769C184.692 114.814 184.789 114.911 184.83 115.034C185.606 117.359 186 119.748 186 122.13V178.057C186 190.726 175.288 201.224 162.041 201.637L160.56 219.261C159.984 226.13 156.636 232.373 151.132 236.84C146.192 240.851 140.045 243 133.627 243Z" fill="#0A0B0B"/>
<path d="M112 167.046L107.082 180L104 167L112 167.046Z" fill="#0A0B0B"/>
<path d="M105.037 167.825L107.675 178.145L111.883 167.862L105.037 167.825ZM107.573 180H107.544C107.34 179.988 107.17 179.859 107.125 179.681L104.012 167.502C103.98 167.379 104.013 167.251 104.102 167.154C104.189 167.056 104.356 167.007 104.462 167L112.543 167.044C112.692 167.044 112.832 167.11 112.918 167.22C113.003 167.33 113.023 167.47 112.972 167.595L108.005 179.731C107.938 179.893 107.765 180 107.573 180Z" fill="#0A0B0B"/>
<path d="M102 148L108 153.813L102.385 157" fill="#F5E9D7"/>
<path d="M102.869 157C102.713 157 102.559 156.932 102.467 156.808C102.323 156.613 102.385 156.351 102.607 156.224L107.788 153.251L102.123 147.705C101.946 147.532 101.962 147.264 102.16 147.108C102.356 146.953 102.661 146.966 102.837 147.14L108.877 153.053C108.971 153.146 109.014 153.269 108.996 153.391C108.978 153.513 108.9 153.622 108.783 153.69L103.132 156.932C103.051 156.978 102.959 157 102.869 157Z" fill="#0A0B0B"/>
<path d="M161.555 159H157.429C157.192 159 157 158.819 157 158.596C157 158.373 157.192 158.191 157.429 158.191H161.555C162.914 158.191 164.194 157.629 165.068 156.648C165.941 155.667 166.308 154.38 166.072 153.119L163.524 139.474C163.483 139.255 163.639 139.046 163.872 139.007C164.098 138.966 164.328 139.114 164.368 139.335L166.917 152.98C167.197 154.477 166.762 156.003 165.725 157.168C164.688 158.332 163.168 159 161.555 159Z" fill="#0A0B0B"/>
<path d="M174.951 146.465C175.247 148.095 174.164 149.657 172.535 149.951C170.904 150.247 169.344 149.165 169.048 147.535C168.754 145.905 169.835 144.344 171.466 144.049C173.096 143.753 174.657 144.835 174.951 146.465Z" fill="#0A0B0B"/>
<path d="M158.587 186.163C158.467 186.186 158.337 186.18 158.213 186.139C158.09 186.097 155.146 185.119 152.961 186.868C152.751 187.037 152.4 187.045 152.175 186.885C151.951 186.726 151.941 186.459 152.152 186.29C154.894 184.098 158.639 185.361 158.677 185.373C158.955 185.47 159.077 185.719 158.949 185.93C158.879 186.049 158.742 186.131 158.587 186.163Z" fill="#0A0B0B"/>
<path d="M134.025 135.974C135.61 136.139 137.373 135.479 139.115 134.93C140.859 134.343 142.623 133.794 144.176 133.366C145.732 132.936 147.538 132.498 149.345 132.105C151.129 131.679 153.007 131.333 154.204 130.401C155.368 129.517 155.422 127.893 153.238 126.518C151.167 125.163 146.646 124.317 141.495 125.728C136.357 127.16 133.176 130.134 132.335 132.291C131.422 134.523 132.502 135.833 134.025 135.974Z" fill="#0A0B0B"/>
<path d="M181.574 133.949C180.468 134.161 179.245 133.667 178.033 133.268C176.822 132.837 175.594 132.44 174.515 132.137C173.434 131.834 172.179 131.535 170.922 131.273C169.68 130.983 168.375 130.767 167.545 130.012C166.74 129.3 166.713 127.899 168.243 126.613C169.695 125.353 172.853 124.425 176.434 125.419C180.007 126.432 182.204 128.863 182.775 130.692C183.399 132.581 182.637 133.761 181.574 133.949Z" fill="#0A0B0B"/>
<path d="M148.99 147.762C148.845 149.69 147.165 151.135 145.238 150.99C143.31 150.845 141.865 149.165 142.01 147.237C142.156 145.309 143.836 143.865 145.763 144.01C147.689 144.155 149.135 145.835 148.99 147.762Z" fill="#0A0B0B"/>
<path d="M142 150.672C142 150.672 144.538 148.961 147 151L142 150.672Z" fill="#F5E9D7"/>
<path d="M148.547 152C148.44 152 148.333 151.966 148.247 151.897C145.565 149.741 142.832 151.46 142.717 151.534C142.513 151.666 142.229 151.623 142.084 151.439C141.939 151.253 141.986 150.997 142.189 150.865C142.222 150.842 145.616 148.68 148.847 151.28C149.034 151.43 149.052 151.69 148.887 151.861C148.797 151.953 148.672 152 148.547 152Z" fill="#0A0B0B"/>
<path d="M170 150.907C170 150.907 172.601 148.805 175 151L170 150.907Z" fill="#F5E9D7"/>
<path d="M174.639 151L174.477 150.968C172.599 150.172 170.528 150.929 170.507 150.937C170.325 151.004 170.112 150.937 170.032 150.785C169.95 150.634 170.032 150.457 170.213 150.388C170.31 150.352 172.618 149.506 174.803 150.431C174.98 150.506 175.051 150.687 174.961 150.835C174.897 150.94 174.77 151 174.639 151Z" fill="#0A0B0B"/>
<path d="M141.291 160.434C142.412 159.735 143.903 159.907 144.896 160.759C146.706 162.311 150.643 165.064 156.284 165.602C157.668 165.735 158.384 167.243 157.789 168.423C156.482 171.016 152.981 175.013 145.693 171.811C136.814 167.911 138.368 162.254 141.291 160.434Z" fill="#FEF7EE"/>
<path d="M141.12 160.265C139.996 160.985 138.743 162.594 138.91 164.759C139.12 167.471 141.537 170.005 145.719 171.894C153.48 175.4 156.838 170.627 157.922 168.414C158.183 167.882 158.157 167.234 157.856 166.72C157.597 166.278 157.182 166.008 156.69 165.959C150.614 165.363 146.371 162.332 144.383 160.579C143.454 159.758 142.112 159.629 141.12 160.265H141.12ZM150.795 174C149.245 174 147.436 173.623 145.34 172.676C139.284 169.941 138.152 166.582 138.017 164.823C137.855 162.735 138.879 160.664 140.623 159.546H140.624C141.958 158.691 143.755 158.853 144.989 159.942C146.894 161.624 150.961 164.529 156.78 165.1C157.56 165.177 158.236 165.613 158.637 166.297C159.085 167.061 159.12 167.99 158.733 168.782C158.021 170.233 155.695 174 150.795 174Z" fill="#0A0B0B"/>
<path d="M161 201.7C161 201.7 133.731 203.349 127 193C127 193 133.061 210.065 159.778 216L161 201.7Z" fill="#0A0B0B"/>
<path d="M129.363 195.268C132.46 200.541 141.04 211.404 160.881 216.036L162.06 202.017C158.433 202.188 138.05 202.79 129.363 195.268ZM161.288 217L161.184 216.988C133.678 210.776 127.087 192.745 127.023 192.564C126.951 192.356 127.054 192.131 127.262 192.039C127.466 191.95 127.716 192.018 127.835 192.205C134.562 202.722 162.242 201.152 162.521 201.132C162.652 201.126 162.779 201.171 162.871 201.26C162.962 201.349 163.009 201.47 162.998 201.596L161.737 216.605C161.727 216.73 161.659 216.844 161.553 216.918C161.475 216.972 161.383 217 161.288 217Z" fill="#0A0B0B"/>
<path d="M8 382.663L10.4328 322.382L76.5699 324.415C76.5463 324.781 82.8654 279.637 82.8365 280.002L76.5699 324.415L67.7653 324.156L66.8826 344.211C66.8826 344.211 126.842 314.872 131.974 308.956C131.974 308.956 149.327 292.397 156.255 287.903C156.999 287.422 157.769 286.945 158.637 286.73C159.507 286.513 160.503 286.595 161.196 287.141C162.096 287.852 162.247 289.109 162.196 290.225C162.036 293.693 160.602 296.945 159.17 300.157C159.592 300.026 203.414 286.135 205.826 285.553C209.978 284.552 209.778 290.036 206.837 293.011C203.082 296.81 185.63 305.604 184.681 305.817C188.894 305.667 192.922 304.851 193.931 311.417C194.626 315.948 190.436 317.207 186.183 317.676C188.866 317.771 191.168 318.628 191.416 321.679C192.473 326.837 187.993 328.929 183.527 329.457C183.393 329.473 183.371 329.642 183.497 329.689C187.161 331.064 184.627 337.509 179.233 339.382L149.09 351.545C145.997 352.881 65.2886 411.628 65.2886 411.628C55.9399 417.89 45.0873 419.287 35.3353 416.907C19.1476 412.956 8.06491 398.65 8 382.663Z" fill="#EAF1E4"/>
<path d="M8.87537 382.2C8.94444 398.272 20.0551 412.197 35.8976 416.065C46.2076 418.582 56.7252 416.729 65.5086 410.844C68.793 408.45 146.325 352.002 149.43 350.66L179.601 338.481C183.105 337.263 185.294 334.075 185.324 331.817C185.333 331.036 185.092 330.01 183.878 329.555C183.636 329.463 183.49 329.229 183.521 328.985C183.553 328.741 183.755 328.549 184.013 328.516C187.166 328.143 189.556 327.073 190.745 325.503C191.612 324.356 191.878 322.919 191.531 321.227C191.333 318.817 189.803 317.667 186.71 317.559C186.481 317.551 186.297 317.376 186.288 317.157C186.279 316.938 186.448 316.749 186.675 316.723C190.148 316.34 192.261 315.543 193.326 314.216C194.016 313.357 194.251 312.283 194.044 310.935C193.179 305.301 190.157 305.447 186.317 305.64C185.96 305.656 185.6 305.675 185.239 305.687C185 305.681 184.819 305.538 184.789 305.324C184.758 305.111 184.904 304.91 185.122 304.86C186.269 304.563 203.428 295.85 207.072 292.162C208.998 290.214 209.556 287.316 208.767 286.028C208.346 285.341 207.577 285.128 206.487 285.391C205.525 285.623 196.97 288.245 161.685 299.415C160.547 299.775 159.881 299.986 159.831 300.001C159.669 300.052 159.49 300.006 159.374 299.885C159.258 299.764 159.226 299.589 159.294 299.438C160.687 296.31 162.129 293.074 162.287 289.643C162.348 288.293 162.073 287.394 161.444 286.897C160.92 286.483 160.107 286.362 159.274 286.567C158.484 286.763 157.759 287.207 157.025 287.683C150.207 292.108 132.966 308.542 132.794 308.708C127.688 314.598 70.0072 342.873 67.5535 344.075C67.4161 344.141 67.2506 344.135 67.1185 344.054C66.9871 343.974 66.911 343.833 66.9171 343.683L67.782 324.02L11.2929 322.282L8.87537 382.2ZM44.9147 418C41.8509 418 38.7583 417.628 35.6805 416.877C19.4498 412.913 8.06635 398.652 8 382.194V382.177L10.4342 321.834C10.4439 321.605 10.6251 321.433 10.8857 321.431L76.667 323.454L82.6361 281.094C82.7018 280.632 82.7534 280.271 82.798 279.988L82.8847 279.372L82.9127 279.376C83.0151 278.974 83.1193 278.987 83.3644 279.009C83.5999 279.033 83.7732 279.234 83.7548 279.46L81.2119 297.492C81.0955 298.319 80.9782 299.149 80.8626 299.977L77.7857 321.841C77.6999 322.443 77.6351 322.9 77.58 323.247L77.4811 323.942C77.4688 324.036 77.4233 324.118 77.3576 324.182C77.2736 324.331 77.1729 324.321 77.0049 324.305L76.99 324.303L68.6565 324.056L67.824 343.001C74.4225 339.756 127.417 313.598 132.148 308.143C132.349 307.949 149.648 291.459 156.535 286.99C157.335 286.471 158.13 285.987 159.053 285.756C160.159 285.483 161.259 285.666 162.001 286.251C162.857 286.927 163.236 288.049 163.161 289.68C163.011 292.945 161.774 295.981 160.478 298.914C160.738 298.832 161.05 298.734 161.41 298.62C196.719 287.441 205.296 284.813 206.273 284.578C208.255 284.095 209.161 285.014 209.523 285.605C210.607 287.378 209.777 290.645 207.709 292.738C204.655 295.829 192.439 302.335 187.423 304.752C190.803 304.644 194.029 305.075 194.911 310.814C195.15 312.376 194.85 313.692 194.021 314.726C192.958 316.05 191.149 316.749 189.366 317.145C191.235 317.772 192.232 319.086 192.397 321.114C192.785 322.995 192.47 324.652 191.454 325.995C189.952 327.978 187.281 328.846 185.025 329.22C185.803 329.801 186.214 330.7 186.199 331.828C186.165 334.421 183.807 337.911 179.921 339.261L149.78 351.429C147.377 352.467 93.9424 391.19 66.0242 411.519C59.6393 415.799 52.3685 418 44.9147 418Z" fill="#0A0B0B"/>
<path d="M67 334L41 357L66.8784 344.583L67 334Z" fill="#0A0B0B"/>
<path d="M157.984 300.46L142 308C142 308 156.986 295.963 160 295L157.984 300.46Z" fill="#0A0B0B"/>
<path d="M175 308C175 308 185.226 305.067 187 305L175 308Z" fill="#F5E9D7"/>
<path d="M175.42 309C175.244 309 175.079 308.891 175.021 308.717C174.948 308.501 175.068 308.267 175.287 308.195C175.678 308.068 184.872 305.074 186.562 305C186.786 304.99 186.988 305.168 187 305.395C187.009 305.623 186.829 305.816 186.598 305.827C185.292 305.882 178.182 308.121 175.552 308.979L175.42 309Z" fill="#0A0B0B"/>
<path d="M187 317L178 320L187 317Z" fill="#F5E9D7"/>
<path d="M178.39 321C178.225 321 178.07 320.872 178.018 320.673C177.954 320.427 178.069 320.165 178.274 320.088L186.493 317.022C186.703 316.944 186.917 317.082 186.982 317.328C187.046 317.573 186.931 317.836 186.726 317.913L178.507 320.979L178.39 321Z" fill="#0A0B0B"/>
<path d="M183 329L178 331L183 329Z" fill="#F5E9D7"/>
<path d="M178.372 331C178.21 331 178.061 330.893 178.015 330.727C177.958 330.526 178.072 330.316 178.269 330.259L182.524 329.016C182.725 328.956 182.928 329.074 182.985 329.274C183.042 329.475 182.928 329.685 182.731 329.742L178.476 330.986L178.372 331Z" fill="#0A0B0B"/>
<path d="M492.782 228.992C492.782 225.248 493.592 221.918 495.212 219.002C496.832 216.05 499.082 213.764 501.962 212.144C504.878 210.488 508.172 209.66 511.844 209.66C516.344 209.66 520.196 210.848 523.4 213.224C526.604 215.6 528.746 218.84 529.826 222.944H519.674C518.918 221.36 517.838 220.154 516.434 219.326C515.066 218.498 513.5 218.084 511.736 218.084C508.892 218.084 506.588 219.074 504.824 221.054C503.06 223.034 502.178 225.68 502.178 228.992C502.178 232.304 503.06 234.95 504.824 236.93C506.588 238.91 508.892 239.9 511.736 239.9C513.5 239.9 515.066 239.486 516.434 238.658C517.838 237.83 518.918 236.624 519.674 235.04H529.826C528.746 239.144 526.604 242.384 523.4 244.76C520.196 247.1 516.344 248.27 511.844 248.27C508.172 248.27 504.878 247.46 501.962 245.84C499.082 244.184 496.832 241.898 495.212 238.982C493.592 236.066 492.782 232.736 492.782 228.992ZM553.409 248.378C549.845 248.378 546.569 247.55 543.581 245.894C540.629 244.238 538.271 241.934 536.507 238.982C534.779 235.994 533.915 232.646 533.915 228.938C533.915 225.23 534.779 221.9 536.507 218.948C538.271 215.996 540.629 213.692 543.581 212.036C546.569 210.38 549.845 209.552 553.409 209.552C556.973 209.552 560.231 210.38 563.183 212.036C566.171 213.692 568.511 215.996 570.203 218.948C571.931 221.9 572.795 225.23 572.795 228.938C572.795 232.646 571.931 235.994 570.203 238.982C568.475 241.934 566.135 244.238 563.183 245.894C560.231 247.55 556.973 248.378 553.409 248.378ZM553.409 239.954C556.433 239.954 558.845 238.946 560.645 236.93C562.481 234.914 563.399 232.25 563.399 228.938C563.399 225.59 562.481 222.926 560.645 220.946C558.845 218.93 556.433 217.922 553.409 217.922C550.349 217.922 547.901 218.912 546.065 220.892C544.265 222.872 543.365 225.554 543.365 228.938C543.365 232.286 544.265 234.968 546.065 236.984C547.901 238.964 550.349 239.954 553.409 239.954ZM620.862 210.092V248H611.628V225.266L603.15 248H595.698L587.166 225.212V248H577.932V210.092H588.84L599.478 236.336L610.008 210.092H620.862ZM636.736 210.092V248H627.502V210.092H636.736ZM677.34 248H668.106L652.662 224.618V248H643.428V210.092H652.662L668.106 233.582V210.092H677.34V248ZM709.198 222.08C708.514 220.82 707.524 219.866 706.228 219.218C704.968 218.534 703.474 218.192 701.746 218.192C698.758 218.192 696.364 219.182 694.564 221.162C692.764 223.106 691.864 225.716 691.864 228.992C691.864 232.484 692.8 235.22 694.672 237.2C696.58 239.144 699.19 240.116 702.502 240.116C704.77 240.116 706.678 239.54 708.226 238.388C709.81 237.236 710.962 235.58 711.682 233.42H699.964V226.616H720.052V235.202C719.368 237.506 718.198 239.648 716.542 241.628C714.922 243.608 712.852 245.21 710.332 246.434C707.812 247.658 704.968 248.27 701.8 248.27C698.056 248.27 694.708 247.46 691.756 245.84C688.84 244.184 686.554 241.898 684.898 238.982C683.278 236.066 682.468 232.736 682.468 228.992C682.468 225.248 683.278 221.918 684.898 219.002C686.554 216.05 688.84 213.764 691.756 212.144C694.672 210.488 698.002 209.66 701.746 209.66C706.282 209.66 710.098 210.758 713.194 212.954C716.326 215.15 718.396 218.192 719.404 222.08H709.198ZM750.326 248.378C747.554 248.378 745.07 247.928 742.874 247.028C740.678 246.128 738.914 244.796 737.582 243.032C736.286 241.268 735.602 239.144 735.53 236.66H745.358C745.502 238.064 745.988 239.144 746.816 239.9C747.644 240.62 748.724 240.98 750.056 240.98C751.424 240.98 752.504 240.674 753.296 240.062C754.088 239.414 754.484 238.532 754.484 237.416C754.484 236.48 754.16 235.706 753.512 235.094C752.9 234.482 752.126 233.978 751.19 233.582C750.29 233.186 748.994 232.736 747.302 232.232C744.854 231.476 742.856 230.72 741.308 229.964C739.76 229.208 738.428 228.092 737.312 226.616C736.196 225.14 735.638 223.214 735.638 220.838C735.638 217.31 736.916 214.556 739.472 212.576C742.028 210.56 745.358 209.552 749.462 209.552C753.638 209.552 757.004 210.56 759.56 212.576C762.116 214.556 763.484 217.328 763.664 220.892H753.674C753.602 219.668 753.152 218.714 752.324 218.03C751.496 217.31 750.434 216.95 749.138 216.95C748.022 216.95 747.122 217.256 746.438 217.868C745.754 218.444 745.412 219.29 745.412 220.406C745.412 221.63 745.988 222.584 747.14 223.268C748.292 223.952 750.092 224.69 752.54 225.482C754.988 226.31 756.968 227.102 758.48 227.858C760.028 228.614 761.36 229.712 762.476 231.152C763.592 232.592 764.15 234.446 764.15 236.714C764.15 238.874 763.592 240.836 762.476 242.6C761.396 244.364 759.812 245.768 757.724 246.812C755.636 247.856 753.17 248.378 750.326 248.378ZM787.76 248.378C784.196 248.378 780.92 247.55 777.932 245.894C774.98 244.238 772.622 241.934 770.858 238.982C769.13 235.994 768.266 232.646 768.266 228.938C768.266 225.23 769.13 221.9 770.858 218.948C772.622 215.996 774.98 213.692 777.932 212.036C780.92 210.38 784.196 209.552 787.76 209.552C791.324 209.552 794.582 210.38 797.534 212.036C800.522 213.692 802.862 215.996 804.554 218.948C806.282 221.9 807.146 225.23 807.146 228.938C807.146 232.646 806.282 235.994 804.554 238.982C802.826 241.934 800.486 244.238 797.534 245.894C794.582 247.55 791.324 248.378 787.76 248.378ZM787.76 239.954C790.784 239.954 793.196 238.946 794.996 236.93C796.832 234.914 797.75 232.25 797.75 228.938C797.75 225.59 796.832 222.926 794.996 220.946C793.196 218.93 790.784 217.922 787.76 217.922C784.7 217.922 782.252 218.912 780.416 220.892C778.616 222.872 777.716 225.554 777.716 228.938C777.716 232.286 778.616 234.968 780.416 236.984C782.252 238.964 784.7 239.954 787.76 239.954ZM830.212 248.378C826.648 248.378 823.372 247.55 820.384 245.894C817.432 244.238 815.074 241.934 813.31 238.982C811.582 235.994 810.718 232.646 810.718 228.938C810.718 225.23 811.582 221.9 813.31 218.948C815.074 215.996 817.432 213.692 820.384 212.036C823.372 210.38 826.648 209.552 830.212 209.552C833.776 209.552 837.034 210.38 839.986 212.036C842.974 213.692 845.314 215.996 847.006 218.948C848.734 221.9 849.598 225.23 849.598 228.938C849.598 232.646 848.734 235.994 847.006 238.982C845.278 241.934 842.938 244.238 839.986 245.894C837.034 247.55 833.776 248.378 830.212 248.378ZM830.212 239.954C833.236 239.954 835.648 238.946 837.448 236.93C839.284 234.914 840.202 232.25 840.202 228.938C840.202 225.59 839.284 222.926 837.448 220.946C835.648 218.93 833.236 217.922 830.212 217.922C827.152 217.922 824.704 218.912 822.868 220.892C821.068 222.872 820.168 225.554 820.168 228.938C820.168 232.286 821.068 234.968 822.868 236.984C824.704 238.964 827.152 239.954 830.212 239.954ZM888.647 248H879.413L863.969 224.618V248H854.735V210.092H863.969L879.413 233.582V210.092H888.647V248Z" fill="#324740"/>
<path d="M445.057 302H442.327L431.347 285.35V302H428.617V281.06H431.347L442.327 297.68V281.06H445.057V302ZM456.88 302.27C455.34 302.27 453.94 301.92 452.68 301.22C451.44 300.52 450.46 299.53 449.74 298.25C449.04 296.95 448.69 295.45 448.69 293.75C448.69 292.07 449.05 290.59 449.77 289.31C450.51 288.01 451.51 287.02 452.77 286.34C454.03 285.64 455.44 285.29 457 285.29C458.56 285.29 459.97 285.64 461.23 286.34C462.49 287.02 463.48 288 464.2 289.28C464.94 290.56 465.31 292.05 465.31 293.75C465.31 295.45 464.93 296.95 464.17 298.25C463.43 299.53 462.42 300.52 461.14 301.22C459.86 301.92 458.44 302.27 456.88 302.27ZM456.88 299.87C457.86 299.87 458.78 299.64 459.64 299.18C460.5 298.72 461.19 298.03 461.71 297.11C462.25 296.19 462.52 295.07 462.52 293.75C462.52 292.43 462.26 291.31 461.74 290.39C461.22 289.47 460.54 288.79 459.7 288.35C458.86 287.89 457.95 287.66 456.97 287.66C455.97 287.66 455.05 287.89 454.21 288.35C453.39 288.79 452.73 289.47 452.23 290.39C451.73 291.31 451.48 292.43 451.48 293.75C451.48 295.09 451.72 296.22 452.2 297.14C452.7 298.06 453.36 298.75 454.18 299.21C455 299.65 455.9 299.87 456.88 299.87ZM472.23 287.81V297.5C472.23 298.3 472.4 298.87 472.74 299.21C473.08 299.53 473.67 299.69 474.51 299.69H476.52V302H474.06C472.54 302 471.4 301.65 470.64 300.95C469.88 300.25 469.5 299.1 469.5 297.5V287.81H467.37V285.56H469.5V281.42H472.23V285.56H476.52V287.81H472.23ZM487.988 285.26C489.228 285.26 490.348 285.53 491.348 286.07C492.348 286.59 493.128 287.38 493.688 288.44C494.268 289.5 494.558 290.79 494.558 292.31V302H491.858V292.7C491.858 291.06 491.448 289.81 490.628 288.95C489.808 288.07 488.688 287.63 487.268 287.63C485.828 287.63 484.678 288.08 483.818 288.98C482.978 289.88 482.558 291.19 482.558 292.91V302H479.828V279.8H482.558V287.9C483.098 287.06 483.838 286.41 484.778 285.95C485.738 285.49 486.808 285.26 487.988 285.26ZM500.427 282.89C499.907 282.89 499.467 282.71 499.107 282.35C498.747 281.99 498.567 281.55 498.567 281.03C498.567 280.51 498.747 280.07 499.107 279.71C499.467 279.35 499.907 279.17 500.427 279.17C500.927 279.17 501.347 279.35 501.687 279.71C502.047 280.07 502.227 280.51 502.227 281.03C502.227 281.55 502.047 281.99 501.687 282.35C501.347 282.71 500.927 282.89 500.427 282.89ZM501.747 285.56V302H499.017V285.56H501.747ZM514.41 285.26C516.41 285.26 518.03 285.87 519.27 287.09C520.51 288.29 521.13 290.03 521.13 292.31V302H518.43V292.7C518.43 291.06 518.02 289.81 517.2 288.95C516.38 288.07 515.26 287.63 513.84 287.63C512.4 287.63 511.25 288.08 510.39 288.98C509.55 289.88 509.13 291.19 509.13 292.91V302H506.4V285.56H509.13V287.9C509.67 287.06 510.4 286.41 511.32 285.95C512.26 285.49 513.29 285.26 514.41 285.26ZM532.369 285.29C533.789 285.29 535.029 285.6 536.089 286.22C537.169 286.84 537.969 287.62 538.489 288.56V285.56H541.249V302.36C541.249 303.86 540.929 305.19 540.289 306.35C539.649 307.53 538.729 308.45 537.529 309.11C536.349 309.77 534.969 310.1 533.389 310.1C531.229 310.1 529.429 309.59 527.989 308.57C526.549 307.55 525.699 306.16 525.439 304.4H528.139C528.439 305.4 529.059 306.2 529.999 306.8C530.939 307.42 532.069 307.73 533.389 307.73C534.889 307.73 536.109 307.26 537.049 306.32C538.009 305.38 538.489 304.06 538.489 302.36V298.91C537.949 299.87 537.149 300.67 536.089 301.31C535.029 301.95 533.789 302.27 532.369 302.27C530.909 302.27 529.579 301.91 528.379 301.19C527.199 300.47 526.269 299.46 525.589 298.16C524.909 296.86 524.569 295.38 524.569 293.72C524.569 292.04 524.909 290.57 525.589 289.31C526.269 288.03 527.199 287.04 528.379 286.34C529.579 285.64 530.909 285.29 532.369 285.29ZM538.489 293.75C538.489 292.51 538.239 291.43 537.739 290.51C537.239 289.59 536.559 288.89 535.699 288.41C534.859 287.91 533.929 287.66 532.909 287.66C531.889 287.66 530.959 287.9 530.119 288.38C529.279 288.86 528.609 289.56 528.109 290.48C527.609 291.4 527.359 292.48 527.359 293.72C527.359 294.98 527.609 296.08 528.109 297.02C528.609 297.94 529.279 298.65 530.119 299.15C530.959 299.63 531.889 299.87 532.909 299.87C533.929 299.87 534.859 299.63 535.699 299.15C536.559 298.65 537.239 297.94 537.739 297.02C538.239 296.08 538.489 294.99 538.489 293.75ZM557.191 287.81V297.5C557.191 298.3 557.361 298.87 557.701 299.21C558.041 299.53 558.631 299.69 559.471 299.69H561.481V302H559.021C557.501 302 556.361 301.65 555.601 300.95C554.841 300.25 554.461 299.1 554.461 297.5V287.81H552.331V285.56H554.461V281.42H557.191V285.56H561.481V287.81H557.191ZM571.959 302.27C570.419 302.27 569.019 301.92 567.759 301.22C566.519 300.52 565.539 299.53 564.819 298.25C564.119 296.95 563.769 295.45 563.769 293.75C563.769 292.07 564.129 290.59 564.849 289.31C565.589 288.01 566.589 287.02 567.849 286.34C569.109 285.64 570.519 285.29 572.079 285.29C573.639 285.29 575.049 285.64 576.309 286.34C577.569 287.02 578.559 288 579.279 289.28C580.019 290.56 580.389 292.05 580.389 293.75C580.389 295.45 580.009 296.95 579.249 298.25C578.509 299.53 577.499 300.52 576.219 301.22C574.939 301.92 573.519 302.27 571.959 302.27ZM571.959 299.87C572.939 299.87 573.859 299.64 574.719 299.18C575.579 298.72 576.269 298.03 576.789 297.11C577.329 296.19 577.599 295.07 577.599 293.75C577.599 292.43 577.339 291.31 576.819 290.39C576.299 289.47 575.619 288.79 574.779 288.35C573.939 287.89 573.029 287.66 572.049 287.66C571.049 287.66 570.129 287.89 569.289 288.35C568.469 288.79 567.809 289.47 567.309 290.39C566.809 291.31 566.559 292.43 566.559 293.75C566.559 295.09 566.799 296.22 567.279 297.14C567.779 298.06 568.439 298.75 569.259 299.21C570.079 299.65 570.979 299.87 571.959 299.87ZM597.796 302.27C596.536 302.27 595.406 302.06 594.406 301.64C593.406 301.2 592.616 300.6 592.036 299.84C591.456 299.06 591.136 298.17 591.076 297.17H593.896C593.976 297.99 594.356 298.66 595.036 299.18C595.736 299.7 596.646 299.96 597.766 299.96C598.806 299.96 599.626 299.73 600.226 299.27C600.826 298.81 601.126 298.23 601.126 297.53C601.126 296.81 600.806 296.28 600.166 295.94C599.526 295.58 598.536 295.23 597.196 294.89C595.976 294.57 594.976 294.25 594.196 293.93C593.436 293.59 592.776 293.1 592.216 292.46C591.676 291.8 591.406 290.94 591.406 289.88C591.406 289.04 591.656 288.27 592.156 287.57C592.656 286.87 593.366 286.32 594.286 285.92C595.206 285.5 596.256 285.29 597.436 285.29C599.256 285.29 600.726 285.75 601.846 286.67C602.966 287.59 603.566 288.85 603.646 290.45H600.916C600.856 289.59 600.506 288.9 599.866 288.38C599.246 287.86 598.406 287.6 597.346 287.6C596.366 287.6 595.586 287.81 595.006 288.23C594.426 288.65 594.136 289.2 594.136 289.88C594.136 290.42 594.306 290.87 594.646 291.23C595.006 291.57 595.446 291.85 595.966 292.07C596.506 292.27 597.246 292.5 598.186 292.76C599.366 293.08 600.326 293.4 601.066 293.72C601.806 294.02 602.436 294.48 602.956 295.1C603.496 295.72 603.776 296.53 603.796 297.53C603.796 298.43 603.546 299.24 603.046 299.96C602.546 300.68 601.836 301.25 600.916 301.67C600.016 302.07 598.976 302.27 597.796 302.27ZM622.65 293.15C622.65 293.67 622.62 294.22 622.56 294.8H609.42C609.52 296.42 610.07 297.69 611.07 298.61C612.09 299.51 613.32 299.96 614.76 299.96C615.94 299.96 616.92 299.69 617.7 299.15C618.5 298.59 619.06 297.85 619.38 296.93H622.32C621.88 298.51 621 299.8 619.68 300.8C618.36 301.78 616.72 302.27 614.76 302.27C613.2 302.27 611.8 301.92 610.56 301.22C609.34 300.52 608.38 299.53 607.68 298.25C606.98 296.95 606.63 295.45 606.63 293.75C606.63 292.05 606.97 290.56 607.65 289.28C608.33 288 609.28 287.02 610.5 286.34C611.74 285.64 613.16 285.29 614.76 285.29C616.32 285.29 617.7 285.63 618.9 286.31C620.1 286.99 621.02 287.93 621.66 289.13C622.32 290.31 622.65 291.65 622.65 293.15ZM619.83 292.58C619.83 291.54 619.6 290.65 619.14 289.91C618.68 289.15 618.05 288.58 617.25 288.2C616.47 287.8 615.6 287.6 614.64 287.6C613.26 287.6 612.08 288.04 611.1 288.92C610.14 289.8 609.59 291.02 609.45 292.58H619.83ZM641.253 293.15C641.253 293.67 641.223 294.22 641.163 294.8H628.023C628.123 296.42 628.673 297.69 629.673 298.61C630.693 299.51 631.923 299.96 633.363 299.96C634.543 299.96 635.523 299.69 636.303 299.15C637.103 298.59 637.663 297.85 637.983 296.93H640.923C640.483 298.51 639.603 299.8 638.283 300.8C636.963 301.78 635.323 302.27 633.363 302.27C631.803 302.27 630.403 301.92 629.163 301.22C627.943 300.52 626.983 299.53 626.283 298.25C625.583 296.95 625.233 295.45 625.233 293.75C625.233 292.05 625.573 290.56 626.253 289.28C626.933 288 627.883 287.02 629.103 286.34C630.343 285.64 631.763 285.29 633.363 285.29C634.923 285.29 636.303 285.63 637.503 286.31C638.703 286.99 639.623 287.93 640.263 289.13C640.923 290.31 641.253 291.65 641.253 293.15ZM638.433 292.58C638.433 291.54 638.203 290.65 637.743 289.91C637.283 289.15 636.653 288.58 635.853 288.2C635.073 287.8 634.203 287.6 633.243 287.6C631.863 287.6 630.683 288.04 629.703 288.92C628.743 289.8 628.193 291.02 628.053 292.58H638.433ZM661.015 285.26C662.255 285.26 663.375 285.53 664.375 286.07C665.375 286.59 666.155 287.38 666.715 288.44C667.295 289.5 667.585 290.79 667.585 292.31V302H664.885V292.7C664.885 291.06 664.475 289.81 663.655 288.95C662.835 288.07 661.715 287.63 660.295 287.63C658.855 287.63 657.705 288.08 656.845 288.98C656.005 289.88 655.585 291.19 655.585 292.91V302H652.855V279.8H655.585V287.9C656.125 287.06 656.865 286.41 657.805 285.95C658.765 285.49 659.835 285.26 661.015 285.26ZM687.044 293.15C687.044 293.67 687.014 294.22 686.954 294.8H673.814C673.914 296.42 674.464 297.69 675.464 298.61C676.484 299.51 677.714 299.96 679.154 299.96C680.334 299.96 681.314 299.69 682.094 299.15C682.894 298.59 683.454 297.85 683.774 296.93H686.714C686.274 298.51 685.394 299.8 684.074 300.8C682.754 301.78 681.114 302.27 679.154 302.27C677.594 302.27 676.194 301.92 674.954 301.22C673.734 300.52 672.774 299.53 672.074 298.25C671.374 296.95 671.024 295.45 671.024 293.75C671.024 292.05 671.364 290.56 672.044 289.28C672.724 288 673.674 287.02 674.894 286.34C676.134 285.64 677.554 285.29 679.154 285.29C680.714 285.29 682.094 285.63 683.294 286.31C684.494 286.99 685.414 287.93 686.054 289.13C686.714 290.31 687.044 291.65 687.044 293.15ZM684.224 292.58C684.224 291.54 683.994 290.65 683.534 289.91C683.074 289.15 682.444 288.58 681.644 288.2C680.864 287.8 679.994 287.6 679.034 287.6C677.654 287.6 676.474 288.04 675.494 288.92C674.534 289.8 673.984 291.02 673.844 292.58H684.224ZM693.378 288.23C693.858 287.29 694.538 286.56 695.418 286.04C696.318 285.52 697.408 285.26 698.688 285.26V288.08H697.968C694.908 288.08 693.378 289.74 693.378 293.06V302H690.648V285.56H693.378V288.23ZM716.839 293.15C716.839 293.67 716.809 294.22 716.749 294.8H703.609C703.709 296.42 704.259 297.69 705.259 298.61C706.279 299.51 707.509 299.96 708.949 299.96C710.129 299.96 711.109 299.69 711.889 299.15C712.689 298.59 713.249 297.85 713.569 296.93H716.509C716.069 298.51 715.189 299.8 713.869 300.8C712.549 301.78 710.909 302.27 708.949 302.27C707.389 302.27 705.989 301.92 704.749 301.22C703.529 300.52 702.569 299.53 701.869 298.25C701.169 296.95 700.819 295.45 700.819 293.75C700.819 292.05 701.159 290.56 701.839 289.28C702.519 288 703.469 287.02 704.689 286.34C705.929 285.64 707.349 285.29 708.949 285.29C710.509 285.29 711.889 285.63 713.089 286.31C714.289 286.99 715.209 287.93 715.849 289.13C716.509 290.31 716.839 291.65 716.839 293.15ZM714.019 292.58C714.019 291.54 713.789 290.65 713.329 289.91C712.869 289.15 712.239 288.58 711.439 288.2C710.659 287.8 709.789 287.6 708.829 287.6C707.449 287.6 706.269 288.04 705.289 288.92C704.329 289.8 703.779 291.02 703.639 292.58H714.019ZM742.601 285.56L732.701 309.74H729.881L733.121 301.82L726.491 285.56H729.521L734.681 298.88L739.781 285.56H742.601ZM760.345 293.15C760.345 293.67 760.315 294.22 760.255 294.8H747.115C747.215 296.42 747.765 297.69 748.765 298.61C749.785 299.51 751.015 299.96 752.455 299.96C753.635 299.96 754.615 299.69 755.395 299.15C756.195 298.59 756.755 297.85 757.075 296.93H760.015C759.575 298.51 758.695 299.8 757.375 300.8C756.055 301.78 754.415 302.27 752.455 302.27C750.895 302.27 749.495 301.92 748.255 301.22C747.035 300.52 746.075 299.53 745.375 298.25C744.675 296.95 744.325 295.45 744.325 293.75C744.325 292.05 744.665 290.56 745.345 289.28C746.025 288 746.975 287.02 748.195 286.34C749.435 285.64 750.855 285.29 752.455 285.29C754.015 285.29 755.395 285.63 756.595 286.31C757.795 286.99 758.715 287.93 759.355 289.13C760.015 290.31 760.345 291.65 760.345 293.15ZM757.525 292.58C757.525 291.54 757.295 290.65 756.835 289.91C756.375 289.15 755.745 288.58 754.945 288.2C754.165 287.8 753.295 287.6 752.335 287.6C750.955 287.6 749.775 288.04 748.795 288.92C747.835 289.8 747.285 291.02 747.145 292.58H757.525ZM767.279 287.81V297.5C767.279 298.3 767.449 298.87 767.789 299.21C768.129 299.53 768.719 299.69 769.559 299.69H771.569V302H769.109C767.589 302 766.449 301.65 765.689 300.95C764.929 300.25 764.549 299.1 764.549 297.5V287.81H762.419V285.56H764.549V281.42H767.279V285.56H771.569V287.81H767.279ZM775.746 302.18C775.226 302.18 774.786 302 774.426 301.64C774.066 301.28 773.886 300.84 773.886 300.32C773.886 299.8 774.066 299.36 774.426 299C774.786 298.64 775.226 298.46 775.746 298.46C776.246 298.46 776.666 298.64 777.006 299C777.366 299.36 777.546 299.8 777.546 300.32C777.546 300.84 777.366 301.28 777.006 301.64C776.666 302 776.246 302.18 775.746 302.18ZM795.803 302.21C794.423 302.21 793.183 301.97 792.083 301.49C791.003 300.99 790.153 300.31 789.533 299.45C788.913 298.57 788.593 297.56 788.573 296.42H791.483C791.583 297.4 791.983 298.23 792.683 298.91C793.403 299.57 794.443 299.9 795.803 299.9C797.103 299.9 798.123 299.58 798.863 298.94C799.623 298.28 800.003 297.44 800.003 296.42C800.003 295.62 799.783 294.97 799.343 294.47C798.903 293.97 798.353 293.59 797.693 293.33C797.033 293.07 796.143 292.79 795.023 292.49C793.643 292.13 792.533 291.77 791.693 291.41C790.873 291.05 790.163 290.49 789.563 289.73C788.983 288.95 788.693 287.91 788.693 286.61C788.693 285.47 788.983 284.46 789.563 283.58C790.143 282.7 790.953 282.02 791.993 281.54C793.053 281.06 794.263 280.82 795.623 280.82C797.583 280.82 799.183 281.31 800.423 282.29C801.683 283.27 802.393 284.57 802.553 286.19H799.553C799.453 285.39 799.033 284.69 798.293 284.09C797.553 283.47 796.573 283.16 795.353 283.16C794.213 283.16 793.283 283.46 792.563 284.06C791.843 284.64 791.483 285.46 791.483 286.52C791.483 287.28 791.693 287.9 792.113 288.38C792.553 288.86 793.083 289.23 793.703 289.49C794.343 289.73 795.233 290.01 796.373 290.33C797.753 290.71 798.863 291.09 799.703 291.47C800.543 291.83 801.263 292.4 801.863 293.18C802.463 293.94 802.763 294.98 802.763 296.3C802.763 297.32 802.493 298.28 801.953 299.18C801.413 300.08 800.613 300.81 799.553 301.37C798.493 301.93 797.243 302.21 795.803 302.21ZM810.111 287.81V297.5C810.111 298.3 810.281 298.87 810.621 299.21C810.961 299.53 811.551 299.69 812.391 299.69H814.401V302H811.941C810.421 302 809.281 301.65 808.521 300.95C807.761 300.25 807.381 299.1 807.381 297.5V287.81H805.251V285.56H807.381V281.42H810.111V285.56H814.401V287.81H810.111ZM816.688 293.72C816.688 292.04 817.028 290.57 817.708 289.31C818.388 288.03 819.318 287.04 820.498 286.34C821.698 285.64 823.028 285.29 824.488 285.29C825.928 285.29 827.178 285.6 828.238 286.22C829.298 286.84 830.088 287.62 830.608 288.56V285.56H833.368V302H830.608V298.94C830.068 299.9 829.258 300.7 828.178 301.34C827.118 301.96 825.878 302.27 824.458 302.27C822.998 302.27 821.678 301.91 820.498 301.19C819.318 300.47 818.388 299.46 817.708 298.16C817.028 296.86 816.688 295.38 816.688 293.72ZM830.608 293.75C830.608 292.51 830.358 291.43 829.858 290.51C829.358 289.59 828.678 288.89 827.818 288.41C826.978 287.91 826.048 287.66 825.028 287.66C824.008 287.66 823.078 287.9 822.238 288.38C821.398 288.86 820.728 289.56 820.228 290.48C819.728 291.4 819.478 292.48 819.478 293.72C819.478 294.98 819.728 296.08 820.228 297.02C820.728 297.94 821.398 298.65 822.238 299.15C823.078 299.63 824.008 299.87 825.028 299.87C826.048 299.87 826.978 299.63 827.818 299.15C828.678 298.65 829.358 297.94 829.858 297.02C830.358 296.08 830.608 294.99 830.608 293.75ZM852.142 285.56L842.242 309.74H839.422L842.662 301.82L836.032 285.56H839.062L844.222 298.88L849.322 285.56H852.142ZM866.214 287.81V297.5C866.214 298.3 866.384 298.87 866.724 299.21C867.064 299.53 867.654 299.69 868.494 299.69H870.504V302H868.044C866.524 302 865.384 301.65 864.624 300.95C863.864 300.25 863.484 299.1 863.484 297.5V287.81H861.354V285.56H863.484V281.42H866.214V285.56H870.504V287.81H866.214ZM888.392 285.56V302H885.662V299.57C885.142 300.41 884.412 301.07 883.472 301.55C882.552 302.01 881.532 302.24 880.412 302.24C879.132 302.24 877.982 301.98 876.962 301.46C875.942 300.92 875.132 300.12 874.532 299.06C873.952 298 873.662 296.71 873.662 295.19V285.56H876.362V294.83C876.362 296.45 876.772 297.7 877.592 298.58C878.412 299.44 879.532 299.87 880.952 299.87C882.412 299.87 883.562 299.42 884.402 298.52C885.242 297.62 885.662 296.31 885.662 294.59V285.56H888.392ZM901.011 285.26C903.011 285.26 904.631 285.87 905.871 287.09C907.111 288.29 907.731 290.03 907.731 292.31V302H905.031V292.7C905.031 291.06 904.621 289.81 903.801 288.95C902.981 288.07 901.861 287.63 900.441 287.63C899.001 287.63 897.851 288.08 896.991 288.98C896.151 289.88 895.731 291.19 895.731 292.91V302H893.001V285.56H895.731V287.9C896.271 287.06 897.001 286.41 897.921 285.95C898.861 285.49 899.891 285.26 901.011 285.26ZM927.191 293.15C927.191 293.67 927.161 294.22 927.101 294.8H913.961C914.061 296.42 914.611 297.69 915.611 298.61C916.631 299.51 917.861 299.96 919.301 299.96C920.481 299.96 921.461 299.69 922.241 299.15C923.041 298.59 923.601 297.85 923.921 296.93H926.861C926.421 298.51 925.541 299.8 924.221 300.8C922.901 301.78 921.261 302.27 919.301 302.27C917.741 302.27 916.341 301.92 915.101 301.22C913.881 300.52 912.921 299.53 912.221 298.25C911.521 296.95 911.171 295.45 911.171 293.75C911.171 292.05 911.511 290.56 912.191 289.28C912.871 288 913.821 287.02 915.041 286.34C916.281 285.64 917.701 285.29 919.301 285.29C920.861 285.29 922.241 285.63 923.441 286.31C924.641 286.99 925.561 287.93 926.201 289.13C926.861 290.31 927.191 291.65 927.191 293.15ZM924.371 292.58C924.371 291.54 924.141 290.65 923.681 289.91C923.221 289.15 922.591 288.58 921.791 288.2C921.011 287.8 920.141 287.6 919.181 287.6C917.801 287.6 916.621 288.04 915.641 288.92C914.681 289.8 914.131 291.02 913.991 292.58H924.371ZM929.774 293.72C929.774 292.04 930.114 290.57 930.794 289.31C931.474 288.03 932.404 287.04 933.584 286.34C934.784 285.64 936.124 285.29 937.604 285.29C938.884 285.29 940.074 285.59 941.174 286.19C942.274 286.77 943.114 287.54 943.694 288.5V279.8H946.454V302H943.694V298.91C943.154 299.89 942.354 300.7 941.294 301.34C940.234 301.96 938.994 302.27 937.574 302.27C936.114 302.27 934.784 301.91 933.584 301.19C932.404 300.47 931.474 299.46 930.794 298.16C930.114 296.86 929.774 295.38 929.774 293.72ZM943.694 293.75C943.694 292.51 943.444 291.43 942.944 290.51C942.444 289.59 941.764 288.89 940.904 288.41C940.064 287.91 939.134 287.66 938.114 287.66C937.094 287.66 936.164 287.9 935.324 288.38C934.484 288.86 933.814 289.56 933.314 290.48C932.814 291.4 932.564 292.48 932.564 293.72C932.564 294.98 932.814 296.08 933.314 297.02C933.814 297.94 934.484 298.65 935.324 299.15C936.164 299.63 937.094 299.87 938.114 299.87C939.134 299.87 940.064 299.63 940.904 299.15C941.764 298.65 942.444 297.94 942.944 297.02C943.444 296.08 943.694 294.99 943.694 293.75ZM954.608 281.09L954.278 296.09H951.998L951.668 281.09H954.608ZM953.258 302.18C952.738 302.18 952.298 302 951.938 301.64C951.578 301.28 951.398 300.84 951.398 300.32C951.398 299.8 951.578 299.36 951.938 299C952.298 298.64 952.738 298.46 953.258 298.46C953.758 298.46 954.178 298.64 954.518 299C954.878 299.36 955.058 299.8 955.058 300.32C955.058 300.84 954.878 301.28 954.518 301.64C954.178 302 953.758 302.18 953.258 302.18Z" fill="#385B48"/>
</svg>
