<svg width="44" height="44" viewBox="0 0 44 44" fill="none" xmlns="http://www.w3.org/2000/svg">
<path d="M39.4 0.733398H4.6C2.46367 0.733398 0.733337 2.46373 0.733337 4.60006V39.4001C0.733337 41.5364 2.46367 43.2667 4.6 43.2667H23.9333V25.8667H18.1333V20.0667H23.9333V16.9521C23.9333 11.0555 26.8063 8.46673 31.7073 8.46673C34.0543 8.46673 35.2955 8.64073 35.8833 8.72V14.2667H32.5405C30.4603 14.2667 29.7333 15.3649 29.7333 17.5882V20.0667H35.8311L35.0036 25.8667H29.7333V43.2667H39.4C41.5363 43.2667 43.2667 41.5364 43.2667 39.4001V4.60006C43.2667 2.46373 41.5344 0.733398 39.4 0.733398Z" fill="white"/>
</svg>
