<svg width="44" height="44" viewBox="0 0 44 44" fill="none" xmlns="http://www.w3.org/2000/svg">
<path d="M38.64 0.159912H5.35997C2.48957 0.159912 0.159973 2.48951 0.159973 5.35991V38.6399C0.159973 41.5103 2.48957 43.8399 5.35997 43.8399H38.64C41.5104 43.8399 43.84 41.5103 43.84 38.6399V5.35991C43.84 2.48951 41.5104 0.159912 38.64 0.159912ZM13.68 16.7999V36.5599H7.43997V16.7999H13.68ZM7.43997 11.0487C7.43997 9.59271 8.68797 8.47991 10.56 8.47991C12.432 8.47991 13.6072 9.59271 13.68 11.0487C13.68 12.5047 12.5152 13.6799 10.56 13.6799C8.68797 13.6799 7.43997 12.5047 7.43997 11.0487ZM36.56 36.5599H30.32C30.32 36.5599 30.32 26.9295 30.32 26.1599C30.32 24.0799 29.28 21.9999 26.68 21.9583H26.5968C24.08 21.9583 23.04 24.1007 23.04 26.1599C23.04 27.1063 23.04 36.5599 23.04 36.5599H16.8V16.7999H23.04V19.4623C23.04 19.4623 25.0472 16.7999 29.0824 16.7999C33.2112 16.7999 36.56 19.6391 36.56 25.3903V36.5599Z" fill="white"/>
</svg>
