<svg width="480" height="399" viewBox="0 0 480 399" fill="none" xmlns="http://www.w3.org/2000/svg">
<path d="M477.194 226.06C468.773 179.064 428.417 138.024 380.829 134.147C368.47 133.14 356.077 134.471 343.693 135.802C330.098 137.263 316.514 138.726 302.999 137.094C281.329 134.476 260.754 123.627 246.353 107.223C225.043 82.9496 217.798 48.4323 195.222 25.3336C164.099 -6.50638 109.786 -7.00906 71.9247 16.4203C34.0621 39.8496 11.1674 82.1203 0.690073 125.395L0.276743 138.554C-2.00326 183.439 9.80074 235.604 35.8434 275.614C62.2247 316.141 79.5741 332.876 127.655 362.022C168.483 386.771 248.431 397.651 296.162 398.8C343.893 399.95 392.929 385.72 428.823 354.239C464.719 322.758 485.617 273.056 477.194 226.06Z" fill="#EAF1E4"/>
<path d="M349.24 292.211L350.368 292.608C350.514 292.659 350.54 292.852 350.414 292.947L349.44 293.683L349.372 293.773L348.939 294.9C348.882 295.046 348.686 295.078 348.593 294.956L347.878 294.013L347.789 293.949L346.661 293.553C346.515 293.501 346.489 293.309 346.615 293.213L347.589 292.478L347.657 292.388L348.091 291.26C348.147 291.114 348.343 291.083 348.436 291.205L349.151 292.147L349.24 292.211Z" fill="#DADBD8"/>
<path d="M387.037 326.806C371.683 327.192 359.584 322.804 360.015 317.006C360.445 311.208 373.241 306.195 388.596 305.81C403.95 305.424 416.048 309.811 415.618 315.609C415.187 321.407 402.391 326.42 387.037 326.806Z" fill="#17282F"/>
<path d="M388.293 308.998C402.288 308.647 413.576 312.261 415.14 317.294C415.412 316.742 415.576 316.18 415.618 315.609C416.048 309.811 403.95 305.424 388.596 305.81C373.241 306.195 360.445 311.208 360.015 317.006C359.976 317.52 360.039 318.022 360.19 318.511C362.686 313.456 374.449 309.346 388.293 308.998Z" fill="#33535F"/>
<path d="M386.495 315.657C390.239 316.745 393.166 319.605 396.739 321.146C399.103 322.166 401.83 322.659 403.638 324.466C403.264 323.277 402.221 322.43 401.201 321.696C398.325 319.629 395.21 317.884 391.932 316.506C390.25 315.799 388.412 315.177 386.612 315.537L386.495 315.657Z" fill="#33535F"/>
<path d="M403.638 324.466C403.611 324.438 403.583 324.411 403.554 324.383C401.746 322.643 399.067 322.15 396.739 321.146C393.166 319.605 390.239 316.745 386.495 315.657L386.612 315.537C386.624 315.535 386.634 315.533 386.646 315.531C388.436 315.185 390.26 315.803 391.932 316.506C395.21 317.884 398.325 319.629 401.201 321.696C402.221 322.43 403.264 323.277 403.638 324.466Z" fill="#263F48"/>
<path d="M393.996 267.408C393.83 266.877 393.618 266.322 393.166 265.992C392.545 265.54 391.675 265.649 390.926 265.851C387.729 266.716 384.518 272.224 383.021 275.134L386.063 289.1C394.058 282.824 396.059 273.996 393.996 267.408Z" fill="#33535F"/>
<path d="M386.063 289.1L384.946 283.97C384.955 283.896 384.959 283.858 384.959 283.858L384.921 283.855L383.021 275.134C384.518 272.224 387.729 266.716 390.926 265.851C391.067 265.814 391.212 265.779 391.359 265.75C391.993 265.628 392.661 265.625 393.166 265.992C393.618 266.322 393.83 266.877 393.996 267.408C394.175 267.98 394.324 268.57 394.44 269.173C395.666 275.512 393.363 283.369 386.063 289.1Z" fill="#263F48"/>
<path d="M385.521 298.926C387.11 298.041 388.712 297.205 390.35 296.609C391.987 296.014 393.551 294.992 395.143 294.286C397.206 293.371 399.038 292.026 400.959 290.847C402.88 289.667 404.971 288.627 407.222 288.437C405.438 287.942 403.527 288.011 401.703 288.365C399.878 288.72 398.122 289.352 396.374 289.981C393.949 290.855 391.481 291.752 389.431 293.302C387.382 294.852 385.519 296.394 385.521 298.926Z" fill="#33535F"/>
<path d="M385.521 298.926C385.519 296.394 387.382 294.852 389.431 293.302C391.481 291.752 393.949 290.855 396.374 289.981C398.122 289.352 399.878 288.72 401.703 288.365C401.71 288.364 401.717 288.362 401.724 288.361C403.542 288.01 405.445 287.944 407.222 288.437C406.89 288.465 406.562 288.511 406.238 288.574C404.359 288.937 402.597 289.841 400.959 290.847C399.038 292.026 397.206 293.371 395.143 294.286C393.551 294.992 391.987 296.014 390.35 296.609C388.712 297.205 387.11 298.041 385.521 298.926Z" fill="#263F48"/>
<path d="M374.1 301.627C371.297 298.896 366.728 298.825 362.773 298.637C368.615 301.913 374.844 306.28 379.74 310.807C380.119 308.075 377.641 305.075 374.1 301.627Z" fill="#33535F"/>
<path d="M379.74 310.807C374.844 306.28 368.615 301.913 362.773 298.637C366.728 298.825 371.297 298.896 374.1 301.627C377.032 304.483 379.236 307.031 379.692 309.374C379.713 309.487 379.731 309.601 379.745 309.713C379.791 310.083 379.79 310.448 379.74 310.807Z" fill="#263F48"/>
<path d="M380.71 320.656C375.945 320.247 371.239 315.904 366.509 315.334C371.605 314.104 378.618 315.889 380.71 320.656Z" fill="#33535F"/>
<path d="M380.71 320.656C375.945 320.247 371.239 315.904 366.509 315.334C366.695 315.289 366.885 315.248 367.076 315.211C372.112 314.239 378.695 316.064 380.71 320.656Z" fill="#263F48"/>
<path d="M383.233 309.555C385.725 308.866 388.388 309.011 390.902 309.578C393.416 310.144 395.81 311.117 398.191 312.087C398.075 310.443 396.831 309.126 395.658 307.955C394.776 307.074 393.886 306.187 392.848 305.487C391.81 304.787 390.603 304.278 389.341 304.242C387.818 304.199 386.312 304.868 385.227 305.927C384.142 306.985 383.516 308.082 383.233 309.555Z" fill="#33535F"/>
<path d="M382.231 326.691C382.231 326.691 381.569 311.224 382.455 302.453C383.34 293.682 383.93 283.786 383.93 283.786L384.959 283.858C384.959 283.858 382.874 301.245 382.796 311.813C382.718 322.374 384.275 326.811 384.275 326.811L382.231 326.691Z" fill="#33535F"/>
<path d="M392.88 266.529C392.886 266.532 392.86 266.591 392.806 266.703C392.743 266.83 392.662 266.991 392.564 267.187C392.349 267.605 392.045 268.213 391.68 268.969C390.947 270.479 390 272.597 389.113 274.995C388.228 277.394 387.573 279.615 387.15 281.233C386.937 282.042 386.774 282.7 386.667 283.155C386.614 283.368 386.571 283.541 386.537 283.679C386.505 283.798 386.485 283.86 386.48 283.859C386.474 283.858 386.482 283.794 386.503 283.672C386.529 283.533 386.562 283.357 386.602 283.142C386.689 282.682 386.835 282.019 387.033 281.205C387.427 279.577 388.065 277.345 388.952 274.938C389.842 272.534 390.81 270.418 391.571 268.917C391.951 268.167 392.271 267.566 392.505 267.157C392.615 266.966 392.705 266.811 392.776 266.687C392.839 266.581 392.875 266.526 392.88 266.529Z" fill="#33535F"/>
<path d="M383.761 291.736C380.226 289.128 378.54 284.893 378.965 280.553C379.262 277.518 380.639 274.688 382.124 272.003C382.253 271.77 382.402 271.521 382.652 271.423C383.001 271.287 383.381 271.501 383.676 271.725C386.238 273.667 387.49 276.877 387.943 280.032C388.244 282.131 388.241 284.302 387.656 286.349C387.072 288.396 385.525 290.5 383.761 291.736Z" fill="#33535F"/>
<path d="M383.761 291.736C383.755 291.736 383.759 291.672 383.772 291.552C383.79 291.414 383.812 291.241 383.839 291.03C383.905 290.577 383.983 289.92 384.064 289.107C384.228 287.482 384.341 285.225 384.276 282.735C384.208 280.244 384.012 277.996 383.864 276.37C383.789 275.574 383.728 274.921 383.683 274.443C383.666 274.231 383.652 274.057 383.64 273.919C383.632 273.799 383.631 273.735 383.637 273.735C383.642 273.734 383.655 273.796 383.674 273.915C383.694 274.052 383.719 274.225 383.749 274.436C383.812 274.888 383.893 275.545 383.984 276.357C384.163 277.981 384.379 280.232 384.447 282.73C384.512 285.227 384.379 287.492 384.184 289.118C384.087 289.932 383.991 290.589 383.904 291.039C383.865 291.249 383.832 291.421 383.806 291.558C383.782 291.676 383.766 291.738 383.761 291.736Z" fill="#17282F"/>
<path d="M398.191 312.087C395.81 311.117 393.416 310.144 390.902 309.578C388.7 309.081 386.384 308.908 384.169 309.336C383.855 309.397 383.543 309.47 383.233 309.555C383.516 308.082 384.142 306.985 385.227 305.927C386.045 305.128 387.103 304.552 388.226 304.335C388.593 304.264 388.967 304.232 389.341 304.242C390.603 304.278 391.81 304.787 392.848 305.487C393.886 306.187 394.776 307.074 395.658 307.955C396.726 309.02 397.852 310.207 398.133 311.652C398.161 311.794 398.18 311.939 398.191 312.087Z" fill="#263F48"/>
<path d="M396.679 319.659C396.676 319.664 396.626 319.638 396.534 319.584C396.426 319.519 396.293 319.44 396.134 319.343C395.79 319.13 395.296 318.816 394.672 318.449C394.364 318.26 394.022 318.061 393.649 317.856C393.281 317.642 392.88 317.429 392.454 317.211C391.603 316.779 390.65 316.325 389.597 315.999C388.547 315.667 387.486 315.536 386.542 315.71C386.067 315.788 385.619 315.867 385.215 316C384.81 316.129 384.446 316.287 384.126 316.455C383.485 316.791 383.025 317.162 382.725 317.432C382.426 317.703 382.277 317.872 382.266 317.862C382.261 317.858 382.294 317.813 382.362 317.73C382.429 317.646 382.535 317.529 382.679 317.384C382.969 317.098 383.422 316.707 384.069 316.351C384.391 316.173 384.759 316.006 385.171 315.868C385.583 315.726 386.042 315.64 386.518 315.558C387.483 315.37 388.586 315.501 389.648 315.839C390.718 316.17 391.676 316.633 392.529 317.074C392.954 317.297 393.355 317.516 393.721 317.736C394.092 317.947 394.431 318.152 394.736 318.349C395.354 318.729 395.838 319.059 396.171 319.289C396.324 319.396 396.45 319.484 396.553 319.556C396.639 319.619 396.683 319.654 396.679 319.659Z" fill="#33535F"/>
<path d="M377.336 318.083C377.341 318.073 377.445 318.111 377.628 318.19C377.813 318.267 378.071 318.398 378.379 318.577C378.996 318.933 379.799 319.523 380.532 320.325C381.264 321.129 381.773 321.977 382.066 322.62C382.214 322.94 382.318 323.207 382.375 323.396C382.435 323.583 382.463 323.689 382.451 323.692C382.423 323.703 382.276 323.293 381.957 322.672C381.64 322.051 381.123 321.228 380.405 320.437C379.684 319.649 378.908 319.055 378.315 318.677C377.721 318.298 377.323 318.11 377.336 318.083Z" fill="#33535F"/>
<path d="M367.914 301.284C367.916 301.279 367.985 301.304 368.113 301.357C368.256 301.419 368.441 301.499 368.669 301.597C368.916 301.707 369.209 301.838 369.546 301.988C369.888 302.141 370.255 302.357 370.673 302.575C372.329 303.461 374.513 304.911 376.574 306.898C377.589 307.906 378.498 308.921 379.248 309.904C379.994 310.888 380.619 311.809 381.1 312.608C381.585 313.404 381.947 314.065 382.196 314.522C382.313 314.738 382.408 314.912 382.482 315.048C382.547 315.168 382.578 315.233 382.573 315.236C382.568 315.239 382.527 315.18 382.452 315.065C382.377 314.95 382.269 314.778 382.137 314.554C381.871 314.107 381.493 313.456 380.997 312.67C380.505 311.882 379.872 310.972 379.123 309.998C378.37 309.026 377.462 308.019 376.454 307.018C374.405 305.043 372.247 303.587 370.613 302.678C370.2 302.455 369.839 302.232 369.503 302.071C369.172 301.912 368.884 301.774 368.641 301.657C368.418 301.546 368.239 301.457 368.099 301.388C367.975 301.325 367.912 301.289 367.914 301.284Z" fill="#33535F"/>
<path d="M390.602 307.419C390.599 307.43 390.464 307.403 390.226 307.344C390.097 307.311 389.953 307.275 389.794 307.234C389.626 307.19 389.427 307.175 389.212 307.138C388.359 307.017 387.103 306.999 385.883 307.545C385.268 307.797 384.741 308.159 384.304 308.529C383.86 308.895 383.516 309.284 383.252 309.628C382.715 310.314 382.526 310.824 382.498 310.812C382.489 310.809 382.526 310.678 382.624 310.453C382.73 310.232 382.891 309.913 383.154 309.558C383.411 309.2 383.753 308.794 384.201 308.413C384.643 308.028 385.182 307.652 385.815 307.392C387.074 306.829 388.371 306.867 389.232 307.021C389.449 307.066 389.65 307.09 389.817 307.143C389.975 307.194 390.117 307.24 390.246 307.282C390.48 307.36 390.606 307.408 390.602 307.419Z" fill="#33535F"/>
<path d="M396.809 291.065C396.811 291.071 396.746 291.104 396.62 291.162C396.476 291.226 396.293 291.308 396.065 291.409C395.582 291.622 394.887 291.937 394.041 292.349C393.198 292.768 392.202 293.285 391.136 293.924C390.073 294.565 388.926 295.316 387.848 296.25C387.315 296.72 386.82 297.216 386.457 297.768C386.098 298.336 385.754 298.885 385.436 299.413C384.797 300.468 384.267 301.444 383.874 302.287C383.482 303.13 383.222 303.837 383.063 304.33C382.901 304.824 382.834 305.104 382.818 305.1C382.812 305.098 382.824 305.028 382.853 304.894C382.881 304.759 382.926 304.562 382.999 304.312C383.14 303.811 383.383 303.093 383.764 302.239C384.146 301.385 384.667 300.398 385.3 299.336C385.616 298.804 385.958 298.252 386.316 297.682C386.692 297.105 387.195 296.602 387.734 296.125C388.826 295.179 389.982 294.428 391.056 293.792C392.131 293.157 393.136 292.649 393.988 292.243C394.844 291.843 395.548 291.544 396.039 291.349C396.272 291.26 396.46 291.187 396.607 291.131C396.737 291.083 396.807 291.06 396.809 291.065Z" fill="#33535F"/>
<path d="M382.654 307.268C382.642 307.269 382.611 307.128 382.564 306.871C382.512 306.581 382.446 306.217 382.368 305.784C382.197 304.868 381.934 303.606 381.506 302.252C381.083 300.895 380.562 299.714 380.182 298.863C380 298.461 379.849 298.123 379.727 297.854C379.621 297.615 379.568 297.48 379.578 297.475C379.589 297.47 379.663 297.595 379.787 297.825C379.911 298.056 380.086 298.392 380.291 298.812C380.701 299.653 381.243 300.834 381.67 302.201C382.1 303.566 382.346 304.84 382.487 305.764C382.556 306.226 382.605 306.601 382.63 306.861C382.657 307.122 382.666 307.266 382.654 307.268Z" fill="#33535F"/>
<path d="M382.44 296.57C382.341 294.793 381.774 293.064 380.946 291.487C378.676 287.161 374.35 283.942 369.49 282.962C372.993 288.203 376.496 293.444 379.999 298.685L381.347 301.488C382.309 299.973 382.538 298.347 382.44 296.57Z" fill="#33535F"/>
<path d="M381.347 301.488L379.999 298.685C376.496 293.444 372.993 288.203 369.49 282.962C374.35 283.942 378.676 287.161 380.946 291.487C381.551 292.639 382.017 293.872 382.262 295.146C382.353 295.616 382.413 296.091 382.44 296.57C382.538 298.347 382.309 299.973 381.347 301.488Z" fill="#263F48"/>
<path d="M194.589 201.133C217.917 247.087 252.955 279.89 272.847 274.4C292.737 268.909 289.951 227.207 266.621 181.253C243.293 135.3 208.256 102.497 188.364 107.986C168.473 113.477 171.259 155.18 194.589 201.133Z" fill="#17282F"/>
<path d="M255.789 184.467C234.526 142.582 203.538 111.629 183.154 110.633C184.674 109.421 186.408 108.526 188.364 107.986C208.256 102.496 243.293 135.299 266.621 181.253C289.951 227.207 292.737 268.909 272.847 274.4C271.086 274.886 269.203 275.065 267.224 274.969C281.154 263.875 276.823 225.902 255.789 184.467Z" fill="#33535F"/>
<path d="M331.969 121.734L331.891 121.747L331.813 121.735L324.982 120.704L324.944 120.698L324.908 120.687L282.619 107.513L282.605 107.509L257.88 100.61L257.868 100.606L257.856 100.602C252.169 98.7047 244.815 98.0523 236.828 101.984C233.954 103.399 229.78 106.263 225.112 109.79C220.454 113.31 215.333 117.467 210.574 121.448C205.815 125.429 201.421 129.23 198.216 132.036C196.613 133.439 195.309 134.593 194.405 135.396C193.971 135.782 193.629 136.086 193.392 136.299L216.24 159.049L216.438 159.246L216.374 159.517L205.469 206.17C211.553 222.789 220.509 232.034 227.926 237.127C231.648 239.682 234.987 241.195 237.391 242.069C238.593 242.506 239.561 242.783 240.225 242.95C240.557 243.033 240.813 243.089 240.984 243.124C241.07 243.142 241.134 243.154 241.177 243.162L241.219 243.169L241.241 243.171C241.27 243.173 241.314 243.177 241.372 243.181C241.489 243.189 241.665 243.2 241.895 243.212C242.356 243.235 243.037 243.262 243.913 243.272C245.666 243.293 248.199 243.25 251.312 242.994C257.538 242.482 266.074 241.119 275.315 237.715C286.385 233.638 297.746 226.814 306.705 219.977C311.184 216.56 315.053 213.145 317.981 210.078C320.922 206.996 322.867 204.311 323.56 202.352C325.293 197.461 326.738 187.114 327.892 175.333L327.922 175.028L328.206 174.916L363.187 161.146L372.535 115.053L331.969 121.734Z" fill="#668A76" stroke="#0A0B0B"/>
<path d="M280.432 204.547C280.443 204.561 280.325 204.66 280.091 204.839C279.851 205.01 279.516 205.29 279.038 205.586C278.104 206.211 276.677 207.017 274.802 207.784C271.095 209.329 265.315 210.49 259.174 209.202C253.035 207.9 248.281 204.517 245.58 201.62C244.206 200.169 243.257 198.859 242.68 197.916C242.372 197.456 242.187 197.067 242.044 196.814C241.908 196.558 241.844 196.419 241.859 196.411C241.898 196.39 242.219 196.91 242.846 197.814C243.47 198.718 244.453 199.98 245.841 201.382C248.574 204.181 253.271 207.448 259.283 208.723C265.296 209.984 270.974 208.906 274.666 207.462C276.534 206.746 277.973 205.995 278.93 205.425C279.891 204.857 280.407 204.513 280.432 204.547Z" fill="#17282F"/>
<path d="M267.052 108.973C267.06 108.972 267.087 109.048 267.129 109.197C267.173 109.375 267.231 109.595 267.3 109.864C267.45 110.452 267.652 111.322 267.9 112.444C268.368 114.693 269.072 117.963 269.293 122.083C269.381 124.139 269.341 126.415 268.893 128.812C268.448 131.203 267.57 133.711 266.114 136.069C264.647 138.423 262.62 140.568 260.33 142.54C258.036 144.517 255.499 146.353 252.916 148.247C247.422 152.238 242.067 155.844 237.283 159.12C232.491 162.385 228.278 165.333 224.902 167.799L224.795 167.878L224.693 167.798C221.677 165.44 219.392 163.406 217.918 161.911C217.185 161.162 216.659 160.542 216.332 160.103C216.163 159.888 216.065 159.704 215.988 159.589C215.914 159.47 215.881 159.407 215.887 159.403C215.906 159.393 216.069 159.627 216.409 160.048C216.758 160.464 217.302 161.058 218.052 161.786C219.559 163.232 221.874 165.225 224.904 167.538L224.695 167.537C228.043 165.029 232.239 162.044 237.015 158.754C241.784 155.456 247.125 151.839 252.611 147.855C255.189 145.964 257.725 144.132 259.999 142.182C262.269 140.234 264.269 138.131 265.713 135.835C267.148 133.535 268.023 131.088 268.478 128.739C268.937 126.385 268.999 124.136 268.934 122.097C268.76 118.01 268.114 114.736 267.705 112.481C267.492 111.385 267.324 110.518 267.201 109.885C267.151 109.611 267.11 109.39 267.078 109.208C267.052 109.055 267.044 108.975 267.052 108.973Z" fill="#17282F"/>
<path d="M450.731 130.181C460.638 121.981 463.988 107.223 458.541 95.7732C453.89 95.3088 449.239 94.8463 444.589 94.3819C451.671 90.7892 455.94 82.6297 454.734 74.9912C447.21 82.8304 434.194 85.1458 424.274 80.4085C417.756 77.2962 412.474 71.5049 405.313 70.2897C398.816 69.1876 392.426 72.1304 386.21 74.2649C379.996 76.4013 372.454 77.5769 367.305 73.5942C363.223 70.4367 361.958 64.9035 362.223 59.8591C362.488 54.8148 363.998 49.8929 364.321 44.8514C364.955 34.9559 360.516 24.9944 353.021 18.2714C350.673 11.0898 345.038 4.90469 337.837 1.96759C329.114 -1.58841 318.457 -0.245148 310.972 5.35402C307.921 7.63644 305.342 10.5773 301.883 12.2296C297.977 14.0956 293.428 14.0938 289.197 15.1007C284.965 16.1087 280.523 18.814 280.068 23.0011L278.366 31.5836C278.079 32.1978 277.777 32.8053 277.431 33.3922C273.835 39.483 266.481 43.4884 264.875 50.3262C263.973 54.1611 265.092 58.3114 263.754 62.0247C261.992 66.9108 256.528 69.6605 253.984 74.2131C250.489 80.466 252.861 91.4166 258.446 96.0398C264.033 100.663 275.559 105.555 282.754 107.032C284.704 99.8078 286.428 92.0844 288.102 84.1784C291.036 86.8988 294.112 89.4949 297.173 92.0618C305.189 98.7838 313.369 105.618 318.929 114.353C329.493 130.954 329.671 152.954 342.969 167.607C345.576 170.481 348.741 173.039 352.527 174.146C356.313 175.254 360.8 174.667 363.6 171.97C366.904 168.787 367.331 163.42 370.987 160.619C375.846 156.899 382.947 159.868 388.171 163.095C391.952 165.432 395.733 167.903 400.022 169.183C404.311 170.463 409.292 170.38 412.94 167.853C416.587 165.325 418.189 159.942 415.558 156.429C414.506 155.024 412.933 154.043 411.889 152.632C410.847 151.221 410.544 148.988 411.972 147.938C413.55 146.777 415.759 147.897 417.468 148.868C425.806 153.607 436.371 154.507 445.439 151.25C454.506 147.993 461.895 140.645 465 131.796C460.208 132.508 455.221 131.944 450.731 130.181Z" fill="#17282F"/>
<path d="M442.046 56.254C442.046 56.254 442.52 56.5686 443.308 57.2958C444.079 58.0306 445.214 59.1732 446.181 60.9611C446.652 61.855 447.061 62.9185 447.253 64.1356C447.432 65.3451 447.364 66.7383 446.78 68.074C446.217 69.4022 445.227 70.705 443.781 71.5867C443.062 72.0247 442.224 72.345 441.32 72.442C440.418 72.5447 439.47 72.4015 438.591 72.0596C434.971 70.6343 433.154 66.5942 429.239 64.7931C425.424 62.8441 420.547 62.7113 415.863 63.7465C411.124 64.794 406.612 67.2432 401.997 69.7451C397.391 72.2357 392.476 74.9326 386.829 75.8689C384.036 76.3635 381.164 76.3936 378.441 75.8134C377.084 75.5072 375.776 75.0419 374.561 74.4211C373.348 73.7928 372.26 72.9799 371.287 72.0784C369.356 70.2443 368.004 67.9808 367.087 65.6578C366.162 63.3274 365.648 60.9253 365.366 58.5703C364.849 53.8397 365.258 49.3464 365.305 45.1668C365.395 40.9891 365.137 37.0705 364.122 33.6577C363.64 31.948 362.992 30.372 362.262 28.9402C361.543 27.5008 360.739 26.2037 359.897 25.0536C358.228 22.7382 356.463 20.9785 354.908 19.6805C353.356 18.3702 352 17.5413 351.096 16.9638C350.646 16.7057 350.294 16.5051 350.034 16.3562C349.795 16.2168 349.675 16.1424 349.679 16.1349C349.683 16.1273 349.812 16.1876 350.059 16.3129C350.325 16.4504 350.687 16.6388 351.149 16.8781C352.073 17.432 353.454 18.2393 355.036 19.5354C356.622 20.8194 358.422 22.5733 360.129 24.8953C360.99 26.0493 361.814 27.353 362.552 28.8017C363.3 30.2449 363.968 31.8349 364.467 33.5635C365.52 37.0158 365.799 40.9797 365.725 45.1725C365.695 49.3662 365.307 53.8557 365.832 58.5195C366.117 60.8424 366.629 63.2087 367.54 65.4902C368.444 67.765 369.766 69.9646 371.635 71.7346C372.577 72.6059 373.628 73.3887 374.799 73.9944C375.973 74.5916 377.237 75.0409 378.553 75.3377C381.193 75.8981 383.999 75.8718 386.74 75.3857C392.281 74.4692 397.14 71.8146 401.754 69.3259C406.373 66.8306 410.924 64.3645 415.756 63.3057C418.156 62.7951 420.572 62.5408 422.904 62.7226C424.074 62.7791 425.209 63.0033 426.313 63.2548C427.4 63.5713 428.47 63.9114 429.434 64.4323C433.477 66.3474 435.299 70.4036 438.726 71.7374C440.391 72.4373 442.249 72.1716 443.61 71.322C444.994 70.494 445.964 69.2449 446.517 67.9685C447.093 66.6846 447.172 65.3526 447.013 64.1667C446.839 62.9807 446.454 61.9332 446.003 61.0468C445.081 59.2731 443.98 58.1182 443.235 57.3665C442.856 56.9925 442.556 56.7174 442.349 56.5385C442.143 56.3567 442.041 56.2606 442.046 56.254Z" fill="#17282F"/>
<path d="M282.61 110.629C282.61 110.629 282.574 110.485 282.528 110.203C282.482 109.922 282.439 109.499 282.269 108.968C281.98 107.902 281.308 106.355 279.872 104.765C278.421 103.204 276.252 101.612 273.405 100.425C270.576 99.1766 267.072 98.5643 263.224 97.8663C259.411 97.1419 255.027 96.3761 251.108 93.8488C247.251 91.3365 244.17 87.0561 243.378 82.0137C242.583 77.0032 244.255 71.3692 248.24 67.3677C252.275 63.3661 257.984 61.3842 262.649 57.8649C263.795 56.9625 264.844 55.9668 265.717 54.8468C266.537 53.6967 267.209 52.4532 267.589 51.1203C268.364 48.446 268.3 45.6465 268.564 42.9241C268.695 41.5611 268.905 40.199 269.345 38.9009C269.774 37.6 270.488 36.399 271.399 35.3826C273.295 33.3743 275.891 32.3164 278.377 31.6307C280.884 30.9279 283.374 30.489 285.73 29.8616C288.08 29.2314 290.296 28.3818 292.151 27.0875C294.034 25.8393 295.596 24.303 296.967 22.7365C298.342 21.1662 299.512 19.5384 300.598 17.9681C302.753 14.8162 304.597 11.8707 306.56 9.51758C308.489 7.14378 310.452 5.32197 312.25 4.09457C314.04 2.84832 315.639 2.19459 316.741 1.86301C317.844 1.52295 318.45 1.4476 318.45 1.4476C318.459 1.48151 317.858 1.58889 316.774 1.95721C315.69 2.3161 314.121 2.99151 312.366 4.24906C310.602 5.48872 308.679 7.31145 306.784 9.6862C304.854 12.0402 303.041 14.983 300.899 18.1603C299.817 19.7419 298.649 21.3856 297.268 22.9795C295.889 24.5695 294.31 26.138 292.392 27.4219C290.5 28.751 288.221 29.6355 285.85 30.277C283.471 30.9176 280.98 31.3641 278.51 32.064C276.053 32.7469 273.555 33.7859 271.761 35.6944C270.898 36.6637 270.222 37.7988 269.814 39.0497C269.391 40.295 269.187 41.6232 269.061 42.9684C268.798 45.6568 268.874 48.479 268.076 51.2532C267.682 52.6388 266.981 53.9406 266.128 55.136C265.222 56.2994 264.138 57.3252 262.965 58.2483C260.582 60.0522 257.966 61.4256 255.466 62.8509C252.966 64.2704 250.548 65.7776 248.598 67.7021C244.722 71.5802 243.078 77.0748 243.841 81.9468C244.597 86.8536 247.592 91.0482 251.344 93.5125C255.154 95.9937 259.485 96.7821 263.292 97.5253C267.128 98.2441 270.665 98.8865 273.52 100.173C276.389 101.399 278.571 103.034 280.021 104.64C281.456 106.274 282.109 107.859 282.368 108.943C282.523 109.485 282.551 109.912 282.579 110.198C282.608 110.483 282.61 110.629 282.61 110.629Z" fill="#17282F"/>
<path d="M392.904 90.3153C392.889 90.3586 392.292 90.1702 391.189 89.9394C390.087 89.7058 388.471 89.4647 386.456 89.379C384.441 89.2932 382.036 89.3837 379.368 89.573C376.699 89.7557 373.754 90.0186 370.64 89.9526C367.534 89.8791 364.544 89.4204 362.032 88.3899C359.528 87.3612 357.561 85.8475 356.258 84.3167C354.952 82.7785 354.297 81.2572 354.038 80.1842C353.915 79.6426 353.842 79.2215 353.834 78.9295C353.812 78.6403 353.808 78.4887 353.826 78.4868C353.886 78.4802 353.913 79.0925 354.229 80.1334C354.541 81.1714 355.229 82.6249 356.533 84.0935C357.835 85.5536 359.769 86.9967 362.214 87.9726C364.658 88.9503 367.588 89.3903 370.653 89.4618C373.727 89.5278 376.66 89.2801 379.338 89.1218C382.014 88.957 384.441 88.9014 386.475 89.0323C388.509 89.1632 390.138 89.46 391.236 89.7539C391.784 89.9036 392.205 90.0308 392.484 90.1382C392.765 90.239 392.909 90.2993 392.904 90.3153Z" fill="#33535F"/>
<path d="M450.387 133.151C450.39 133.159 450.294 133.2 450.104 133.276C449.913 133.351 449.63 133.469 449.233 133.544C448.457 133.722 447.222 133.815 445.741 133.392C444.275 132.961 442.581 132.051 441.061 130.534C439.5 129.036 438.344 126.86 437.3 124.442C436.233 122.029 435.343 119.254 433.602 116.695C432.788 115.383 431.682 114.205 430.506 113.045C429.257 111.957 427.91 110.89 426.368 110.024C420.243 106.459 412.198 104.998 403.983 105.463C395.725 105.881 387.954 107.444 380.765 107.93C373.59 108.552 366.993 107.784 361.839 106.041C356.653 104.327 353.024 101.653 350.99 99.4762C350.45 98.9543 350.05 98.424 349.692 97.9747C349.32 97.5357 349.051 97.1325 348.848 96.7981C348.652 96.4863 348.495 96.2386 348.374 96.0464C348.271 95.875 348.221 95.7855 348.229 95.7817C348.237 95.777 348.301 95.858 348.419 96.0201C348.551 96.2047 348.721 96.443 348.934 96.7435C349.149 97.0685 349.429 97.4594 349.812 97.8861C350.179 98.3232 350.587 98.8385 351.134 99.3453C353.194 101.462 356.808 104.058 361.955 105.713C367.078 107.396 373.593 108.122 380.73 107.478C387.878 106.973 395.642 105.395 403.959 104.972C412.243 104.505 420.392 105.988 426.612 109.637C428.176 110.526 429.548 111.618 430.816 112.735C432.011 113.922 433.133 115.133 433.957 116.477C435.721 119.106 436.592 121.904 437.631 124.309C438.651 126.724 439.762 128.864 441.265 130.344C442.734 131.847 444.376 132.76 445.799 133.21C447.236 133.65 448.441 133.591 449.211 133.447C449.993 133.308 450.373 133.113 450.387 133.151Z" fill="#33535F"/>
<mask id="path-39-inside-1_334_638" fill="white">
<path d="M296.98 26.0608C293.195 25.9666 289.967 28.6852 289.547 32.3184L281.658 111.647C280.295 122.801 295.401 146.716 307.778 148.035C320.278 149.367 321.5 143.517 323.124 132.947C325.838 115.287 326.737 108.644 326.73 108.745C326.73 108.745 342.826 108.224 348.796 88.7904C351.765 79.1266 353.458 62.8773 354.4 49.5379C355.247 37.5323 349.07 21.884 336.615 21.5769L296.98 26.0608Z"/>
</mask>
<path d="M296.98 26.0608C293.195 25.9666 289.967 28.6852 289.547 32.3184L281.658 111.647C280.295 122.801 295.401 146.716 307.778 148.035C320.278 149.367 321.5 143.517 323.124 132.947C325.838 115.287 326.737 108.644 326.73 108.745C326.73 108.745 342.826 108.224 348.796 88.7904C351.765 79.1266 353.458 62.8773 354.4 49.5379C355.247 37.5323 349.07 21.884 336.615 21.5769L296.98 26.0608Z" fill="#EAF1E4"/>
<path d="M289.547 32.3184L288.552 32.2194L288.552 32.2114L288.553 32.2035L289.547 32.3184ZM281.658 111.647L282.653 111.746L282.652 111.757L282.651 111.768L281.658 111.647ZM307.778 148.035L307.672 149.029V149.029L307.778 148.035ZM323.124 132.947L322.135 132.795L322.135 132.795L323.124 132.947ZM326.73 108.745L326.763 109.745L325.659 109.781L325.733 108.678L326.73 108.745ZM348.796 88.7904L347.84 88.4967L347.84 88.4967L348.796 88.7904ZM354.4 49.5379L353.402 49.4675V49.4675L354.4 49.5379ZM336.615 21.5769L336.503 20.5833L336.571 20.5756L336.64 20.5772L336.615 21.5769ZM296.955 27.0605C293.659 26.9784 290.898 29.3417 290.54 32.4333L288.553 32.2035C289.036 28.0286 292.731 24.9547 297.005 25.0611L296.955 27.0605ZM290.542 32.4174L282.653 111.746L280.663 111.548L288.552 32.2194L290.542 32.4174ZM282.651 111.768C282.338 114.327 282.967 117.738 284.361 121.505C285.747 125.251 287.855 129.255 290.391 132.965C292.928 136.676 295.874 140.062 298.922 142.592C301.985 145.133 305.067 146.74 307.884 147.04L307.672 149.029C304.3 148.67 300.852 146.793 297.645 144.131C294.422 141.456 291.356 137.92 288.74 134.093C286.123 130.265 283.935 126.116 282.486 122.2C281.044 118.305 280.297 114.543 280.665 111.525L282.651 111.768ZM307.884 147.04C314.007 147.693 316.993 146.548 318.745 144.333C319.66 143.177 320.311 141.645 320.833 139.693C321.354 137.739 321.728 135.445 322.135 132.795L324.112 133.099C323.707 135.734 323.319 138.134 322.765 140.209C322.21 142.285 321.47 144.114 320.314 145.575C317.924 148.595 314.049 149.709 307.672 149.029L307.884 147.04ZM322.135 132.795C323.492 123.967 324.395 117.894 324.958 114.041C325.239 112.115 325.436 110.743 325.561 109.86C325.624 109.418 325.669 109.099 325.699 108.892C325.713 108.789 325.724 108.712 325.731 108.663C325.735 108.639 325.738 108.617 325.74 108.601C325.741 108.599 325.744 108.576 325.749 108.552C325.75 108.547 325.754 108.525 325.761 108.497C325.766 108.481 325.779 108.435 325.789 108.405C325.816 108.338 326.024 108.036 326.261 107.861C326.997 107.781 327.668 108.397 327.716 108.577C327.724 108.632 327.73 108.713 327.73 108.739C327.731 108.777 327.728 108.808 327.728 108.812L325.733 108.678C325.732 108.682 325.73 108.712 325.73 108.75C325.731 108.776 325.737 108.857 325.744 108.911C325.793 109.092 326.463 109.708 327.2 109.627C327.437 109.452 327.644 109.15 327.671 109.083C327.681 109.054 327.695 109.008 327.699 108.992C327.706 108.965 327.71 108.944 327.711 108.939C327.715 108.918 327.718 108.902 327.716 108.91C327.716 108.914 327.714 108.926 327.71 108.95C327.704 108.995 327.693 109.068 327.679 109.172C327.65 109.378 327.604 109.699 327.541 110.141C327.416 111.027 327.219 112.401 326.937 114.33C326.373 118.189 325.469 124.267 324.112 133.099L322.135 132.795ZM326.73 108.745C326.698 107.746 326.697 107.746 326.697 107.746C326.697 107.746 326.697 107.746 326.696 107.746C326.696 107.746 326.696 107.746 326.696 107.746C326.697 107.746 326.698 107.746 326.7 107.746C326.705 107.746 326.713 107.745 326.725 107.745C326.749 107.743 326.788 107.741 326.841 107.737C326.947 107.73 327.108 107.716 327.319 107.692C327.741 107.643 328.359 107.552 329.124 107.384C330.654 107.047 332.763 106.402 335.052 105.174C339.607 102.73 344.938 97.9439 347.84 88.4967L349.752 89.0841C346.684 99.07 340.983 104.261 335.997 106.936C333.516 108.268 331.227 108.969 329.554 109.337C328.716 109.521 328.03 109.623 327.548 109.678C327.307 109.706 327.117 109.723 326.984 109.732C326.918 109.737 326.865 109.74 326.828 109.742C326.81 109.743 326.795 109.744 326.784 109.744C326.778 109.744 326.774 109.744 326.77 109.745C326.769 109.745 326.767 109.745 326.766 109.745C326.765 109.745 326.764 109.745 326.764 109.745C326.763 109.745 326.763 109.745 326.73 108.745ZM347.84 88.4967C350.771 78.9581 352.46 62.8196 353.402 49.4675L355.397 49.6083C354.457 62.9351 352.76 79.2951 349.752 89.0841L347.84 88.4967ZM353.402 49.4675C353.814 43.6399 352.514 36.9206 349.62 31.652C346.728 26.3888 342.34 22.7184 336.591 22.5766L336.64 20.5772C343.345 20.7426 348.274 25.0499 351.372 30.6889C354.468 36.3226 355.833 43.4303 355.397 49.6083L353.402 49.4675ZM336.728 22.5706L297.092 27.0544L296.867 25.0671L336.503 20.5833L336.728 22.5706Z" fill="#0A0B0B" mask="url(#path-39-inside-1_334_638)"/>
<path d="M348.962 60.0627C348.827 61.4135 347.533 62.4167 346.07 62.3074C344.61 62.1981 343.533 61.0178 343.666 59.667C343.8 58.3162 345.096 57.3111 346.555 57.4204C348.018 57.5297 349.096 58.7119 348.962 60.0627Z" fill="#17282F"/>
<path d="M350.077 54.9307C349.772 55.2868 347.659 53.9859 344.805 54.1846C341.953 54.3438 339.961 55.9019 339.627 55.5854C339.465 55.446 339.755 54.8205 340.621 54.1187C341.473 53.4197 342.96 52.6963 344.738 52.5842C346.515 52.474 348.056 53.0053 348.962 53.595C349.887 54.1865 350.228 54.7706 350.077 54.9307Z" fill="#17282F"/>
<path d="M323.865 61.4963C323.525 61.8213 321.551 60.3273 318.695 60.2566C315.839 60.1464 313.699 61.5095 313.398 61.1638C313.251 61.0093 313.6 60.4139 314.537 59.7969C315.454 59.1818 317.006 58.6016 318.787 58.6571C320.569 58.7155 322.048 59.3891 322.89 60.0607C323.749 60.7371 324.031 61.3503 323.865 61.4963Z" fill="#17282F"/>
<path d="M329.191 76.0829C329.199 75.9256 331.002 75.855 333.907 75.8663C334.641 75.8851 335.347 75.8342 335.533 75.3727C335.773 74.8885 335.573 74.0963 335.332 73.2372C334.882 71.4587 334.412 69.5936 333.917 67.639C331.978 59.6783 330.675 53.1682 331.007 53.0957C331.34 53.0241 333.182 59.4173 335.121 67.379C335.583 69.3393 336.024 71.2091 336.443 72.9979C336.61 73.8269 336.957 74.7896 336.445 75.7909C336.178 76.2883 335.595 76.6001 335.114 76.6613C334.632 76.7395 334.223 76.6952 333.862 76.6707C330.967 76.4541 329.181 76.2402 329.191 76.0829Z" fill="#17282F"/>
<path d="M326.731 108.745C326.731 108.745 312.789 107.848 300.176 98.1538C300.176 98.1538 305.257 112.684 326.08 113.443L326.731 108.745Z" fill="#0A0B0B"/>
<path d="M324.265 56.7752C323.813 57.444 321.115 56.4691 317.755 56.1102C314.402 55.6872 311.544 56.015 311.268 55.2614C311.151 54.9035 311.777 54.3195 313.014 53.8522C314.242 53.3841 316.09 53.093 318.102 53.3257C320.116 53.5612 321.838 54.2677 322.916 55.0052C324.001 55.7428 324.467 56.454 324.265 56.7752Z" fill="#17282F"/>
<path d="M349.654 51.2287C349.185 51.8796 347.182 51.3267 344.814 51.4133C342.442 51.419 340.465 52.0501 339.97 51.4171C339.751 51.1081 340.033 50.4657 340.878 49.8299C341.709 49.1959 343.127 48.6411 344.755 48.6081C346.384 48.577 347.823 49.0763 348.681 49.6773C349.551 50.2801 349.86 50.9122 349.654 51.2287Z" fill="#17282F"/>
<path d="M322.286 81.0838C323.58 80.2398 325.221 79.9082 326.756 80.1823C327.541 80.3227 328.327 80.6354 328.838 81.227C329.51 82.0023 329.592 83.0959 329.565 84.1057C329.549 84.7124 329.503 85.3275 329.287 85.8974C329.072 86.4673 328.667 86.9929 328.095 87.2444C327.507 87.5034 326.826 87.445 326.187 87.3424C325.125 87.1709 324.062 86.8789 323.174 86.2902C322.286 85.7014 321.591 84.7792 321.491 83.744C321.391 82.7078 321.989 81.5925 323.001 81.2374" fill="#668A76"/>
<path d="M329.982 87.1381C329.773 87.2088 329.398 86.6097 328.711 85.7845C328.033 84.9574 326.986 83.9128 325.583 83.1394C324.178 82.367 322.713 82.0298 321.631 81.8866C320.545 81.7377 319.821 81.7321 319.777 81.5211C319.733 81.3364 320.414 80.9644 321.65 80.8466C322.868 80.7223 324.656 80.9352 326.337 81.8602C328.018 82.7852 329.118 84.1624 329.629 85.2382C330.153 86.3243 330.169 87.0807 329.982 87.1381Z" fill="#17282F"/>
<mask id="path-50-inside-2_334_638" fill="white">
<path d="M436.373 104.655L404.402 55.0288L395.572 37.5672C395.572 37.5672 392.756 33.9603 389.828 30.8791C385.023 25.8197 380.279 29.7516 380.279 29.7516C380.279 29.7516 379.592 27.8177 377.071 27.8403C374.066 27.8676 372.65 30.0162 372.65 30.0162C372.65 30.0162 371.343 28.6108 367.715 28.3951C366.931 28.348 366.155 28.6409 365.417 29.111C364.232 28.1021 362.048 26.6468 359.95 27.3853C358.31 27.9627 348.371 35.2603 345.925 38.9359C344.716 40.7502 346.963 43.1098 349.983 42.0049C351.31 41.5198 352.646 41.1241 353.609 40.5797C355.228 39.6622 356.068 38.6712 356.068 38.6712C356.068 38.6712 353.562 42.912 356.06 43.6562C357.1 43.9651 359.318 43.7381 360.765 42.5531C361.717 41.775 362.822 40.7681 363.863 39.7818L363.741 39.9504C362.356 41.9277 365.967 44.8591 367.717 43.6694C368.593 43.074 369.363 42.4759 370.05 41.8852C374.107 44.73 368.472 48.3736 366.093 48.1862C362.409 47.8961 358.098 47.9092 355.091 48.1523C353.022 48.319 351.175 48.7919 350.061 49.8997C348.719 51.2345 350.126 54.0453 352.031 54.3289C355.531 54.8517 359.996 55.6024 364.641 56.7564C370.108 58.1147 384.411 62.6042 384.411 62.6042L385.805 63.7016L405.25 109.492L371.963 116.299L364.532 157.028L424.616 141.285C438.157 134.489 444.567 117.089 436.373 104.655Z"/>
</mask>
<path d="M436.373 104.655L404.402 55.0288L395.572 37.5672C395.572 37.5672 392.756 33.9603 389.828 30.8791C385.023 25.8197 380.279 29.7516 380.279 29.7516C380.279 29.7516 379.592 27.8177 377.071 27.8403C374.066 27.8676 372.65 30.0162 372.65 30.0162C372.65 30.0162 371.343 28.6108 367.715 28.3951C366.931 28.348 366.155 28.6409 365.417 29.111C364.232 28.1021 362.048 26.6468 359.95 27.3853C358.31 27.9627 348.371 35.2603 345.925 38.9359C344.716 40.7502 346.963 43.1098 349.983 42.0049C351.31 41.5198 352.646 41.1241 353.609 40.5797C355.228 39.6622 356.068 38.6712 356.068 38.6712C356.068 38.6712 353.562 42.912 356.06 43.6562C357.1 43.9651 359.318 43.7381 360.765 42.5531C361.717 41.775 362.822 40.7681 363.863 39.7818L363.741 39.9504C362.356 41.9277 365.967 44.8591 367.717 43.6694C368.593 43.074 369.363 42.4759 370.05 41.8852C374.107 44.73 368.472 48.3736 366.093 48.1862C362.409 47.8961 358.098 47.9092 355.091 48.1523C353.022 48.319 351.175 48.7919 350.061 49.8997C348.719 51.2345 350.126 54.0453 352.031 54.3289C355.531 54.8517 359.996 55.6024 364.641 56.7564C370.108 58.1147 384.411 62.6042 384.411 62.6042L385.805 63.7016L405.25 109.492L371.963 116.299L364.532 157.028L424.616 141.285C438.157 134.489 444.567 117.089 436.373 104.655Z" fill="#EAF1E4"/>
<path d="M404.402 55.0288L403.562 55.5703L403.533 55.5265L403.51 55.4801L404.402 55.0288ZM395.572 37.5672L396.36 36.9518L396.42 37.0288L396.464 37.1159L395.572 37.5672ZM389.828 30.8791L389.103 31.568L389.103 31.5677L389.828 30.8791ZM380.279 29.7516L380.917 30.5215L379.816 31.4342L379.337 30.0866L380.279 29.7516ZM377.071 27.8403L377.062 26.8403H377.062L377.071 27.8403ZM372.65 30.0162L373.485 30.5666L372.785 31.6293L371.918 30.6972L372.65 30.0162ZM367.715 28.3951L367.656 29.3933L367.655 29.3933L367.715 28.3951ZM365.417 29.111L365.954 29.9546L365.331 30.3512L364.769 29.8724L365.417 29.111ZM359.95 27.3853L360.282 28.3285L360.282 28.3286L359.95 27.3853ZM345.925 38.9359L346.757 39.4899L346.757 39.4906L345.925 38.9359ZM349.983 42.0049L349.64 41.0657L349.64 41.0657L349.983 42.0049ZM353.609 40.5797L354.102 41.4497L354.101 41.4501L353.609 40.5797ZM356.068 38.6712L355.305 38.0247L356.928 39.1799L356.068 38.6712ZM356.06 43.6562L355.775 44.6148L355.774 44.6146L356.06 43.6562ZM360.765 42.5531L360.131 41.7796L360.132 41.7789L360.765 42.5531ZM363.863 39.7818L363.176 39.0557L364.672 40.3707L363.863 39.7818ZM363.741 39.9504L362.921 39.3767L362.927 39.3691L362.932 39.3615L363.741 39.9504ZM367.717 43.6694L367.155 42.8424L367.155 42.8423L367.717 43.6694ZM370.05 41.8852L369.398 41.1271L369.987 40.62L370.624 41.0665L370.05 41.8852ZM366.093 48.1862L366.171 47.1893L366.172 47.1893L366.093 48.1862ZM355.091 48.1523L355.172 49.149L355.172 49.149L355.091 48.1523ZM350.061 49.8997L349.356 49.1906L349.356 49.1906L350.061 49.8997ZM352.031 54.3289L352.178 53.3398L352.178 53.3398L352.031 54.3289ZM364.641 56.7564L364.4 57.7269H364.4L364.641 56.7564ZM384.411 62.6042L384.71 61.6501L384.885 61.7051L385.029 61.8185L384.411 62.6042ZM385.805 63.7016L386.423 62.9159L386.625 63.0746L386.725 63.3107L385.805 63.7016ZM405.25 109.492L406.17 109.101L406.648 110.226L405.45 110.471L405.25 109.492ZM371.963 116.299L370.979 116.12L371.1 115.455L371.762 115.32L371.963 116.299ZM364.532 157.028L364.786 157.995L363.267 158.393L363.549 156.848L364.532 157.028ZM424.616 141.285L425.065 142.179L424.971 142.226L424.87 142.253L424.616 141.285ZM435.532 105.197L403.562 55.5703L405.243 54.4872L437.213 104.114L435.532 105.197ZM403.51 55.4801L394.679 38.0185L396.464 37.1159L405.295 54.5775L403.51 55.4801ZM395.572 37.5672C394.783 38.1826 394.783 38.1826 394.783 38.1826C394.783 38.1826 394.783 38.1826 394.783 38.1825C394.783 38.1825 394.783 38.1824 394.783 38.1822C394.783 38.1818 394.782 38.1813 394.782 38.1805C394.781 38.1789 394.779 38.1765 394.776 38.1733C394.771 38.1667 394.763 38.1568 394.753 38.1436C394.732 38.1172 394.701 38.0778 394.66 38.0263C394.579 37.9233 394.459 37.7722 394.306 37.581C393.999 37.1986 393.559 36.6561 393.029 36.0179C391.966 34.7396 390.546 33.0862 389.103 31.568L390.553 30.1903C392.038 31.7533 393.49 33.4439 394.567 34.7393C395.106 35.388 395.553 35.9398 395.866 36.3299C396.022 36.525 396.145 36.6798 396.229 36.7861C396.271 36.8393 396.304 36.8803 396.326 36.9083C396.337 36.9223 396.345 36.933 396.351 36.9403C396.354 36.9439 396.356 36.9467 396.357 36.9486C396.358 36.9496 396.359 36.9504 396.359 36.9509C396.359 36.9512 396.359 36.9514 396.36 36.9515C396.36 36.9516 396.36 36.9517 396.36 36.9517C396.36 36.9518 396.36 36.9518 395.572 37.5672ZM389.103 31.5677C386.948 29.299 384.913 29.1112 383.444 29.3993C382.68 29.5493 382.037 29.8366 381.582 30.0899C381.356 30.2156 381.182 30.3305 381.067 30.411C381.01 30.4512 380.968 30.4825 380.942 30.502C380.93 30.5117 380.921 30.5185 380.917 30.5219C380.915 30.5235 380.914 30.5244 380.914 30.5243C380.914 30.5243 380.914 30.5241 380.915 30.5236C380.915 30.5234 380.915 30.5231 380.916 30.5227C380.916 30.5225 380.916 30.5222 380.917 30.5221C380.917 30.5218 380.917 30.5215 380.279 29.7516C379.641 28.9816 379.642 28.9812 379.642 28.9809C379.642 28.9807 379.643 28.9803 379.643 28.98C379.644 28.9794 379.645 28.9788 379.645 28.9781C379.647 28.9767 379.649 28.975 379.652 28.9731C379.656 28.9693 379.662 28.9646 379.669 28.959C379.683 28.9478 379.702 28.9331 379.725 28.9153C379.771 28.8797 379.836 28.8314 379.918 28.774C380.082 28.6592 380.315 28.5064 380.609 28.3427C381.194 28.0168 382.037 27.6374 383.059 27.4368C385.164 27.0238 387.903 27.3998 390.553 30.1905L389.103 31.5677ZM380.279 29.7516C379.337 30.0866 379.337 30.0871 379.337 30.0876C379.337 30.0878 379.338 30.0883 379.338 30.0886C379.338 30.0893 379.338 30.0899 379.338 30.0905C379.339 30.0917 379.339 30.0928 379.34 30.0938C379.34 30.0958 379.341 30.0973 379.341 30.0985C379.342 30.1008 379.343 30.1014 379.342 30.1006C379.341 30.0988 379.338 30.091 379.333 30.0781C379.321 30.0521 379.299 30.0064 379.265 29.9475C379.197 29.8285 379.085 29.6638 378.918 29.4991C378.602 29.1877 378.05 28.8315 377.08 28.8402L377.062 26.8403C378.613 26.8264 379.665 27.4259 380.323 28.0757C380.643 28.3917 380.86 28.7091 381 28.952C381.07 29.074 381.121 29.1792 381.157 29.2589C381.175 29.2988 381.189 29.3326 381.2 29.3591C381.205 29.3724 381.209 29.3839 381.213 29.3935C381.215 29.3983 381.216 29.4027 381.218 29.4065C381.219 29.4084 381.219 29.4102 381.22 29.4119C381.22 29.4127 381.22 29.4135 381.221 29.4143C381.221 29.4147 381.221 29.4153 381.221 29.4154C381.221 29.416 381.221 29.4165 380.279 29.7516ZM377.08 28.8402C375.83 28.8516 374.925 29.3004 374.329 29.742C374.029 29.9646 373.808 30.1851 373.665 30.345C373.594 30.4247 373.544 30.4883 373.514 30.5281C373.499 30.548 373.489 30.5618 373.484 30.5685C373.482 30.5719 373.48 30.5735 373.481 30.5732C373.481 30.5731 373.481 30.5725 373.482 30.5714C373.482 30.5708 373.483 30.5701 373.483 30.5693C373.484 30.5689 373.484 30.5685 373.484 30.568C373.484 30.5678 373.485 30.5674 373.485 30.5673C373.485 30.5669 373.485 30.5666 372.65 30.0162C371.815 29.4659 371.815 29.4655 371.816 29.4651C371.816 29.465 371.816 29.4645 371.816 29.4642C371.817 29.4636 371.817 29.463 371.818 29.4623C371.818 29.461 371.819 29.4596 371.82 29.458C371.823 29.4548 371.825 29.4511 371.828 29.4469C371.834 29.4385 371.841 29.428 371.85 29.4157C371.867 29.3909 371.891 29.3586 371.92 29.3196C371.979 29.2418 372.063 29.1373 372.172 29.0151C372.389 28.7714 372.709 28.453 373.139 28.135C374.002 27.4955 375.308 26.8563 377.062 26.8403L377.08 28.8402ZM372.65 30.0162C371.918 30.6972 371.918 30.6977 371.919 30.6981C371.919 30.6983 371.919 30.6987 371.92 30.699C371.92 30.6996 371.921 30.7002 371.921 30.7007C371.922 30.7018 371.923 30.7028 371.924 30.7037C371.926 30.7055 371.927 30.707 371.928 30.7081C371.93 30.7105 371.931 30.7115 371.931 30.7113C371.931 30.7109 371.926 30.7056 371.915 30.696C371.894 30.6769 371.852 30.6405 371.787 30.5917C371.658 30.4943 371.437 30.3462 371.107 30.1864C370.45 29.868 369.345 29.4938 367.656 29.3933L367.774 27.3969C369.713 27.5121 371.076 27.9485 371.979 28.3867C372.43 28.6052 372.762 28.822 372.991 28.9948C373.106 29.0811 373.194 29.1562 373.259 29.2148C373.291 29.2441 373.317 29.2692 373.338 29.2895C373.348 29.2997 373.357 29.3086 373.364 29.3163C373.368 29.3201 373.371 29.3236 373.374 29.3268C373.376 29.3283 373.377 29.3298 373.379 29.3313C373.379 29.332 373.38 29.3327 373.381 29.3333C373.381 29.3337 373.381 29.3341 373.382 29.3343C373.382 29.3348 373.382 29.3353 372.65 30.0162ZM367.655 29.3933C367.162 29.3636 366.597 29.545 365.954 29.9546L364.88 28.2674C365.713 27.7369 366.7 27.3323 367.775 27.3969L367.655 29.3933ZM364.769 29.8724C364.217 29.4027 363.465 28.8584 362.642 28.5162C361.821 28.1746 361.018 28.0696 360.282 28.3285L359.618 26.442C360.981 25.9625 362.319 26.2159 363.41 26.6695C364.5 27.1227 365.432 27.8105 366.065 28.3496L364.769 29.8724ZM360.282 28.3286C360.185 28.3627 359.93 28.4894 359.494 28.7525C359.082 29.0014 358.567 29.3368 357.976 29.7417C356.796 30.5507 355.341 31.6187 353.858 32.7848C352.375 33.9514 350.874 35.208 349.599 36.394C348.308 37.5936 347.301 38.6734 346.757 39.4899L345.092 38.3819C345.772 37.3606 346.924 36.1498 348.237 34.9293C349.564 33.6952 351.109 32.4022 352.622 31.2128C354.134 30.0229 355.625 28.9285 356.845 28.0919C357.455 27.674 358.005 27.3158 358.46 27.0408C358.891 26.7799 359.305 26.5522 359.618 26.442L360.282 28.3286ZM346.757 39.4906C346.483 39.9016 346.541 40.3948 347.02 40.8073C347.501 41.2214 348.427 41.5092 349.64 41.0657L350.327 42.944C348.519 43.6055 346.811 43.266 345.715 42.3229C344.618 41.3782 344.157 39.7845 345.093 38.3812L346.757 39.4906ZM349.64 41.0657C351.067 40.5439 352.249 40.1997 353.116 39.7092L354.101 41.4501C353.043 42.0485 351.553 42.4956 350.327 42.944L349.64 41.0657ZM353.116 39.7096C353.856 39.2901 354.415 38.8553 354.785 38.5303C354.97 38.368 355.106 38.234 355.193 38.1441C355.237 38.0992 355.268 38.0654 355.287 38.0448C355.296 38.0345 355.302 38.0275 355.305 38.0241C355.307 38.0224 355.307 38.0215 355.307 38.0216C355.307 38.0217 355.307 38.0219 355.307 38.0224C355.306 38.0227 355.306 38.023 355.306 38.0234C355.306 38.0236 355.305 38.0238 355.305 38.024C355.305 38.0241 355.305 38.0243 355.305 38.0243C355.305 38.0245 355.305 38.0247 356.068 38.6712C356.83 39.3177 356.83 39.3179 356.83 39.3181C356.83 39.3182 356.83 39.3184 356.83 39.3185C356.83 39.3188 356.829 39.3191 356.829 39.3194C356.829 39.32 356.828 39.3207 356.827 39.3214C356.826 39.3229 356.825 39.3246 356.823 39.3265C356.82 39.3304 356.815 39.3353 356.81 39.341C356.8 39.3525 356.787 39.3677 356.77 39.3863C356.736 39.4235 356.689 39.4743 356.629 39.5367C356.508 39.6613 356.333 39.8323 356.105 40.0325C355.651 40.4323 354.98 40.9517 354.102 41.4497L353.116 39.7096ZM356.068 38.6712C356.928 39.1799 356.929 39.1797 356.929 39.1795C356.929 39.1795 356.929 39.1793 356.929 39.1792C356.929 39.1791 356.929 39.179 356.929 39.1789C356.929 39.1788 356.929 39.179 356.929 39.1795C356.928 39.1803 356.927 39.1821 356.926 39.1849C356.922 39.1905 356.917 39.1999 356.91 39.2128C356.895 39.2388 356.872 39.2789 356.844 39.3314C356.787 39.4366 356.707 39.5901 356.617 39.7772C356.435 40.1569 356.227 40.6505 356.092 41.1475C355.95 41.6666 355.921 42.0751 355.981 42.3376C356.022 42.5133 356.088 42.6212 356.345 42.6978L355.774 44.6146C354.782 44.3191 354.225 43.6179 354.033 42.789C353.861 42.0471 353.989 41.2559 354.162 40.6218C354.341 39.9655 354.603 39.3524 354.813 38.9137C354.919 38.6916 355.015 38.508 355.086 38.3784C355.121 38.3135 355.15 38.2617 355.17 38.2252C355.181 38.2069 355.189 38.1924 355.195 38.1819C355.198 38.1766 355.201 38.1723 355.203 38.1691C355.204 38.1675 355.204 38.1661 355.205 38.165C355.205 38.1645 355.206 38.164 355.206 38.1636C355.206 38.1634 355.206 38.1631 355.206 38.163C355.206 38.1628 355.207 38.1625 356.068 38.6712ZM356.344 42.6975C356.663 42.7922 357.306 42.83 358.071 42.6829C358.822 42.5387 359.57 42.2394 360.131 41.7796L361.398 43.3267C360.513 44.0519 359.429 44.4586 358.449 44.6469C357.484 44.8323 356.497 44.8292 355.775 44.6148L356.344 42.6975ZM360.132 41.7789C361.056 41.0237 362.14 40.0362 363.176 39.0557L364.551 40.508C363.503 41.4999 362.378 42.5264 361.398 43.3274L360.132 41.7789ZM364.672 40.3707L364.549 40.5393L362.932 39.3615L363.055 39.1929L364.672 40.3707ZM364.56 40.5241C364.423 40.7187 364.39 40.9365 364.484 41.2279C364.586 41.5468 364.837 41.9161 365.212 42.2455C365.585 42.5724 366.017 42.8027 366.401 42.8972C366.788 42.9923 367.025 42.9308 367.155 42.8424L368.279 44.4963C367.534 45.0028 366.663 45.0211 365.924 44.8393C365.182 44.657 364.47 44.2539 363.894 43.7496C363.321 43.2476 362.819 42.5877 362.579 41.8381C362.33 41.0609 362.365 40.1707 362.921 39.3767L364.56 40.5241ZM367.155 42.8423C367.998 42.269 368.739 41.694 369.398 41.1271L370.702 42.6434C369.988 43.2578 369.187 43.8791 368.279 44.4964L367.155 42.8423ZM370.624 41.0665C371.811 41.8987 372.47 42.9288 372.478 44.0894C372.485 45.1954 371.896 46.1507 371.205 46.8671C370.501 47.5962 369.589 48.1908 368.696 48.5928C367.823 48.9855 366.846 49.2487 366.014 49.1831L366.172 47.1893C366.529 47.2175 367.149 47.0955 367.875 46.7688C368.581 46.4514 369.27 45.9925 369.765 45.4786C370.273 44.9518 370.48 44.4745 370.478 44.1031C370.476 43.7864 370.318 43.2942 369.476 42.704L370.624 41.0665ZM366.014 49.1831C362.38 48.8969 358.123 48.9105 355.172 49.149L355.011 47.1555C358.074 46.908 362.438 46.8952 366.171 47.1893L366.014 49.1831ZM355.172 49.149C353.142 49.3125 351.612 49.7674 350.767 50.6087L349.356 49.1906C350.738 47.8164 352.901 47.3255 355.011 47.1555L355.172 49.149ZM350.767 50.6087C350.517 50.8565 350.404 51.3769 350.735 52.0859C351.06 52.784 351.651 53.2614 352.178 53.3398L351.883 55.318C350.505 55.1128 349.441 54.043 348.922 52.9311C348.409 51.83 348.263 50.2776 349.356 49.1906L350.767 50.6087ZM352.178 53.3398C355.693 53.8647 360.193 54.6209 364.882 55.7859L364.4 57.7269C359.799 56.5839 355.37 55.8386 351.883 55.3179L352.178 53.3398ZM364.882 55.7859C367.645 56.4723 372.612 57.9421 376.866 59.2327C378.998 59.8796 380.959 60.4838 382.387 60.9263C383.101 61.1476 383.681 61.3285 384.084 61.4541C384.285 61.5169 384.441 61.5659 384.548 61.5991C384.601 61.6158 384.641 61.6285 384.669 61.6371C384.682 61.6414 384.693 61.6446 384.7 61.6468C384.703 61.6479 384.706 61.6487 384.708 61.6493C384.708 61.6496 384.709 61.6498 384.71 61.6499C384.71 61.65 384.71 61.65 384.71 61.6501C384.71 61.6501 384.71 61.6501 384.411 62.6042C384.111 63.5583 384.111 63.5583 384.111 63.5583C384.111 63.5582 384.111 63.5582 384.111 63.5581C384.11 63.558 384.11 63.5578 384.109 63.5575C384.107 63.557 384.104 63.5562 384.101 63.5551C384.094 63.553 384.084 63.5498 384.07 63.5455C384.043 63.537 384.003 63.5244 383.95 63.5078C383.844 63.4747 383.688 63.4258 383.488 63.3632C383.086 63.238 382.507 63.0575 381.795 62.8367C380.37 62.395 378.413 61.7919 376.286 61.1466C372.022 59.8529 367.104 58.3988 364.4 57.7269L364.882 55.7859ZM385.029 61.8185L386.423 62.9159L385.186 64.4873L383.792 63.3899L385.029 61.8185ZM386.725 63.3107L406.17 109.101L404.329 109.882L384.884 64.0925L386.725 63.3107ZM405.45 110.471L372.163 117.279L371.762 115.32L405.049 108.512L405.45 110.471ZM372.946 116.479L365.516 157.207L363.549 156.848L370.979 116.12L372.946 116.479ZM364.279 156.06L424.363 140.318L424.87 142.253L364.786 157.995L364.279 156.06ZM424.168 140.392C437.289 133.806 443.335 117.037 435.538 105.206L437.208 104.105C445.799 117.141 439.025 135.172 425.065 142.179L424.168 140.392Z" fill="#0A0B0B" mask="url(#path-50-inside-2_334_638)"/>
<path d="M384.411 62.6043C384.406 62.6203 384.143 62.56 383.648 62.4291C383.11 62.2812 382.391 62.0834 381.491 61.8356C379.574 61.2845 376.887 60.5131 373.587 59.5654C371.916 59.0775 370.092 58.5453 368.137 57.9744C366.18 57.3913 364.085 56.7866 361.859 56.2402C359.635 55.6939 357.285 55.1447 354.82 54.8348C353.617 54.6549 352.27 54.766 351.001 54.1697C350.689 54.0219 350.387 53.8269 350.142 53.5518C350.023 53.4067 349.915 53.2626 349.851 53.0478L349.777 52.5448C349.703 51.8986 349.686 51.2176 349.904 50.5459C350.126 49.8677 350.675 49.3138 351.287 48.9992C351.896 48.6742 352.532 48.483 353.148 48.2861C354.428 47.8924 355.742 47.8264 357.004 47.8292C359.537 47.8622 361.929 48.2004 364.212 48.1109C365.349 48.076 366.467 47.979 367.522 47.7972C368.583 47.6116 369.602 47.3432 370.594 47.0973C372.569 46.5905 374.506 46.2222 376.278 46.3984C378.042 46.5397 379.575 47.0182 380.861 47.524C382.15 48.0318 383.205 48.5828 384.057 49.0397C384.908 49.5003 385.552 49.8856 385.988 50.1465C386.421 50.4103 386.646 50.5563 386.637 50.5714C386.627 50.5855 386.387 50.4687 385.936 50.2313C385.444 49.976 384.787 49.635 383.963 49.2074C383.1 48.7788 382.039 48.256 380.756 47.7793C379.477 47.3027 377.965 46.859 376.25 46.7441C374.533 46.5962 372.669 46.9673 370.702 47.4901C369.714 47.7445 368.69 48.0233 367.604 48.2211C366.514 48.417 365.39 48.5207 364.226 48.5631C361.9 48.6648 359.478 48.3342 357.001 48.3097C355.766 48.3087 354.496 48.3813 353.304 48.7505C352.11 49.1264 350.749 49.5352 350.385 50.6995C350.203 51.259 350.21 51.8817 350.28 52.4883L350.342 52.9254C350.367 53.0158 350.445 53.1392 350.53 53.2381C350.711 53.4406 350.957 53.6045 351.224 53.7327C352.32 54.2621 353.627 54.1763 354.883 54.3581C357.389 54.6803 359.746 55.2427 361.977 55.8031C364.211 56.3636 366.303 56.9844 368.255 57.5844C370.204 58.1751 372.023 58.7271 373.689 59.2329C376.971 60.2427 379.644 61.066 381.549 61.6529C382.439 61.9383 383.148 62.1644 383.68 62.3349C384.164 62.4959 384.417 62.5883 384.411 62.6043Z" fill="#F68260"/>
<path d="M371.963 31.3576C371.988 31.3811 371.585 31.8418 370.836 32.6547C370.023 33.5185 368.939 34.6696 367.626 36.0647C366.239 37.5106 364.613 39.2062 362.818 41.0789C361.893 42.0378 360.788 42.9299 359.44 43.5676C358.766 43.8737 358.011 44.1121 357.205 44.1055C356.408 44.0885 355.563 43.8605 354.958 43.2388C354.64 42.9157 354.484 42.4805 354.425 42.0632C354.391 41.6412 354.451 41.2352 354.556 40.8528C354.784 40.0898 355.147 39.4191 355.59 38.7936L355.597 38.7832L355.614 38.7663C357.334 37.0001 358.934 35.3431 360.374 33.819C361.836 32.3193 363.242 31.0948 364.383 30.0548C364.953 29.5396 365.477 29.045 366.051 28.7577C366.651 28.4619 367.202 28.477 367.632 28.4261C368.491 28.3677 369.001 28.4431 368.958 28.5326C368.973 28.4986 368.501 28.4864 367.649 28.5929C367.234 28.6644 366.674 28.6908 366.173 28.9697C365.653 29.2551 365.166 29.7421 364.608 30.279C363.492 31.3519 362.118 32.5982 360.69 34.1044C359.29 35.6285 357.688 37.3194 355.968 39.1035L355.991 39.0753C355.594 39.6423 355.241 40.2989 355.043 40.9809C354.951 41.3228 354.903 41.6742 354.93 42.0143C354.982 42.3449 355.093 42.6661 355.334 42.9091C355.784 43.3839 356.529 43.609 357.209 43.6175C357.908 43.626 358.598 43.4169 359.229 43.1324C360.491 42.5437 361.58 41.6836 362.474 40.7718C364.3 38.9255 365.954 37.2535 367.363 35.8282C368.725 34.4765 369.848 33.3612 370.692 32.5238C371.058 32.1752 371.362 31.8841 371.615 31.6421C371.831 31.4442 371.95 31.3463 371.963 31.3576Z" fill="#F68260"/>
<path d="M388.076 40.2244C387.97 40.3073 387.238 39.598 386.594 38.5429C385.946 37.4889 385.657 36.5271 385.783 36.4781C385.916 36.4244 386.404 37.2722 387.031 38.2933C387.654 39.3163 388.189 40.1377 388.076 40.2244Z" fill="#F68260"/>
<path d="M390.231 57.0682C390.18 57.0917 389.745 56.3749 389.307 55.106C388.867 53.8409 388.481 52.005 388.505 49.9552C388.537 47.9064 388.973 46.0799 389.449 44.8271C389.921 43.5695 390.376 42.8649 390.427 42.8894C390.59 42.9393 389.041 45.9414 389.013 49.9618C388.93 53.9803 390.394 57.022 390.231 57.0682Z" fill="#F68260"/>
<path d="M416.488 122.336C416.394 122.347 416.298 121.337 415.788 119.803C415.542 119.036 415.15 118.153 414.635 117.217C414.097 116.293 413.424 115.321 412.594 114.397C411.752 113.483 410.841 112.711 409.961 112.078C409.066 111.464 408.211 110.975 407.454 110.639C405.946 109.953 404.922 109.731 404.945 109.641C404.952 109.608 405.212 109.643 405.678 109.734C406.148 109.815 406.81 110.012 407.601 110.322C408.394 110.625 409.295 111.096 410.232 111.709C411.156 112.342 412.106 113.128 412.977 114.073C413.833 115.028 414.518 116.04 415.048 117.006C415.556 117.981 415.923 118.905 416.132 119.705C416.349 120.501 416.465 121.162 416.488 121.621C416.522 122.08 416.523 122.332 416.488 122.336Z" fill="#F68260"/>
<mask id="path-57-inside-3_334_638" fill="white">
<path d="M304.93 213.06C300.666 212.203 296.811 214.06 296.811 214.06C292.468 212.202 287.117 215.405 287.117 215.405C285.544 214.68 276.083 220.649 276.083 220.649L264.296 226.02L201.358 180.857L219.199 162.933L194.203 137.811L164.899 166.924C161.247 170.555 159.404 175.465 159.057 180.625C158.314 191.69 164.848 202.029 175.088 207.041L249.249 243.777C249.249 243.777 257.112 243.513 266.109 241.245C272.508 239.631 283.443 234.944 283.443 234.944C283.443 234.944 283.413 235.264 285.367 238.923C288.885 245.51 294.052 238.404 294.052 238.404C294.052 238.404 295.108 240.736 296.054 241.621C300.509 245.794 303.6 240.189 303.6 240.189C303.6 240.189 304.939 242.438 308.923 240.766C312.895 239.1 308.348 227.521 308.348 227.521C308.348 227.521 309.683 230.038 312.27 226.852C314.858 223.665 309.195 213.916 304.93 213.06Z"/>
</mask>
<path d="M304.93 213.06C300.666 212.203 296.811 214.06 296.811 214.06C292.468 212.202 287.117 215.405 287.117 215.405C285.544 214.68 276.083 220.649 276.083 220.649L264.296 226.02L201.358 180.857L219.199 162.933L194.203 137.811L164.899 166.924C161.247 170.555 159.404 175.465 159.057 180.625C158.314 191.69 164.848 202.029 175.088 207.041L249.249 243.777C249.249 243.777 257.112 243.513 266.109 241.245C272.508 239.631 283.443 234.944 283.443 234.944C283.443 234.944 283.413 235.264 285.367 238.923C288.885 245.51 294.052 238.404 294.052 238.404C294.052 238.404 295.108 240.736 296.054 241.621C300.509 245.794 303.6 240.189 303.6 240.189C303.6 240.189 304.939 242.438 308.923 240.766C312.895 239.1 308.348 227.521 308.348 227.521C308.348 227.521 309.683 230.038 312.27 226.852C314.858 223.665 309.195 213.916 304.93 213.06Z" fill="#EAF1E4"/>
<path d="M296.811 214.06L297.245 214.961L296.836 215.158L296.418 214.979L296.811 214.06ZM287.117 215.405L287.631 216.263L287.178 216.534L286.698 216.313L287.117 215.405ZM276.083 220.649L276.617 221.495L276.559 221.531L276.498 221.559L276.083 220.649ZM264.296 226.02L264.711 226.93L264.184 227.17L263.713 226.833L264.296 226.02ZM201.358 180.857L200.775 181.669L199.82 180.984L200.649 180.151L201.358 180.857ZM219.199 162.933L219.907 162.227L220.609 162.933L219.907 163.638L219.199 162.933ZM194.203 137.811L193.498 137.102L194.207 136.397L194.912 137.106L194.203 137.811ZM164.899 166.924L164.194 166.215L164.194 166.215L164.899 166.924ZM159.057 180.625L160.055 180.692L160.055 180.692L159.057 180.625ZM175.088 207.041L175.528 206.143L175.532 206.145L175.088 207.041ZM249.249 243.777L249.282 244.776L249.031 244.785L248.805 244.673L249.249 243.777ZM266.109 241.245L266.354 242.214L266.354 242.214L266.109 241.245ZM283.443 234.944L283.049 234.025L284.597 233.361L284.439 235.038L283.443 234.944ZM285.367 238.923L286.249 238.451L286.249 238.452L285.367 238.923ZM294.052 238.404L293.243 237.816L294.254 236.425L294.963 237.991L294.052 238.404ZM296.054 241.621L296.737 240.891L296.738 240.892L296.054 241.621ZM303.6 240.189L302.725 239.706L303.567 238.177L304.46 239.677L303.6 240.189ZM308.923 240.766L308.536 239.844L308.536 239.844L308.923 240.766ZM308.348 227.521L307.417 227.886L309.232 227.053L308.348 227.521ZM312.27 226.852L313.046 227.482L313.046 227.483L312.27 226.852ZM304.733 214.04C302.789 213.65 300.914 213.875 299.503 214.211C298.802 214.379 298.227 214.571 297.831 214.719C297.634 214.794 297.481 214.857 297.381 214.9C297.331 214.922 297.294 214.938 297.271 214.949C297.26 214.954 297.252 214.958 297.247 214.96C297.245 214.961 297.244 214.961 297.243 214.962C297.243 214.962 297.243 214.962 297.244 214.962C297.244 214.962 297.244 214.961 297.244 214.961C297.244 214.961 297.244 214.961 297.244 214.961C297.245 214.961 297.245 214.961 296.811 214.06C296.377 213.159 296.377 213.159 296.378 213.159C296.378 213.159 296.378 213.159 296.378 213.158C296.379 213.158 296.379 213.158 296.38 213.158C296.381 213.157 296.383 213.156 296.384 213.156C296.388 213.154 296.392 213.152 296.397 213.15C296.407 213.145 296.422 213.138 296.439 213.13C296.475 213.114 296.525 213.091 296.589 213.064C296.716 213.009 296.898 212.933 297.128 212.847C297.588 212.674 298.244 212.456 299.039 212.266C300.622 211.888 302.806 211.613 305.127 212.079L304.733 214.04ZM296.418 214.979C294.565 214.187 292.418 214.451 290.625 214.993C289.744 215.259 288.987 215.581 288.451 215.837C288.184 215.964 287.973 216.074 287.832 216.15C287.762 216.188 287.709 216.218 287.675 216.238C287.657 216.248 287.645 216.255 287.638 216.259C287.634 216.261 287.632 216.263 287.63 216.263C287.63 216.264 287.63 216.264 287.63 216.264C287.63 216.264 287.63 216.264 287.63 216.264C287.63 216.264 287.63 216.263 287.63 216.263C287.631 216.263 287.631 216.263 287.117 215.405C286.604 214.547 286.604 214.547 286.604 214.547C286.604 214.547 286.605 214.546 286.605 214.546C286.605 214.546 286.606 214.546 286.607 214.545C286.608 214.544 286.61 214.543 286.612 214.542C286.616 214.54 286.621 214.537 286.628 214.533C286.641 214.525 286.659 214.515 286.682 214.501C286.728 214.475 286.795 214.438 286.879 214.392C287.047 214.301 287.289 214.175 287.591 214.031C288.194 213.744 289.046 213.381 290.046 213.079C292.014 212.484 294.714 212.075 297.204 213.141L296.418 214.979ZM286.698 216.313C286.794 216.357 286.836 216.342 286.759 216.344C286.692 216.346 286.58 216.359 286.415 216.397C286.083 216.473 285.643 216.623 285.111 216.843C284.053 217.28 282.761 217.937 281.49 218.632C280.225 219.324 279.006 220.041 278.101 220.585C277.65 220.856 277.277 221.085 277.019 221.245C276.889 221.325 276.788 221.388 276.72 221.43C276.686 221.452 276.66 221.468 276.642 221.479C276.634 221.484 276.627 221.488 276.623 221.491C276.621 221.492 276.619 221.493 276.618 221.494C276.618 221.494 276.617 221.495 276.617 221.495C276.617 221.495 276.617 221.495 276.617 221.495C276.617 221.495 276.617 221.495 276.083 220.649C275.55 219.803 275.55 219.803 275.55 219.803C275.55 219.803 275.55 219.803 275.55 219.803C275.551 219.803 275.551 219.802 275.552 219.802C275.553 219.801 275.555 219.8 275.557 219.799C275.562 219.795 275.569 219.791 275.579 219.785C275.597 219.774 275.624 219.756 275.66 219.734C275.731 219.69 275.835 219.625 275.967 219.543C276.232 219.38 276.611 219.147 277.071 218.871C277.989 218.318 279.233 217.587 280.53 216.878C281.822 216.171 283.189 215.473 284.348 214.994C284.924 214.756 285.481 214.559 285.968 214.447C286.212 214.392 286.464 214.351 286.709 214.345C286.944 214.339 287.244 214.362 287.536 214.497L286.698 216.313ZM276.498 221.559L264.711 226.93L263.882 225.11L275.668 219.739L276.498 221.559ZM263.713 226.833L200.775 181.669L201.941 180.044L264.879 225.208L263.713 226.833ZM200.649 180.151L218.49 162.227L219.907 163.638L202.067 181.562L200.649 180.151ZM218.49 163.638L193.494 138.516L194.912 137.106L219.907 162.227L218.49 163.638ZM194.907 138.52L165.603 167.633L164.194 166.215L193.498 137.102L194.907 138.52ZM165.604 167.633C162.159 171.059 160.389 175.721 160.055 180.692L158.06 180.558C158.419 175.209 160.335 170.052 164.194 166.215L165.604 167.633ZM160.055 180.692C159.342 191.31 165.614 201.29 175.528 206.143L174.648 207.939C164.082 202.767 157.286 192.069 158.06 180.558L160.055 180.692ZM175.532 206.145L249.693 242.881L248.805 244.673L174.644 207.937L175.532 206.145ZM249.249 243.777C249.215 242.777 249.215 242.777 249.215 242.777C249.215 242.777 249.215 242.777 249.215 242.777C249.215 242.777 249.215 242.777 249.216 242.777C249.216 242.777 249.217 242.777 249.219 242.777C249.222 242.777 249.227 242.777 249.234 242.777C249.248 242.776 249.269 242.775 249.298 242.774C249.355 242.772 249.441 242.768 249.554 242.762C249.781 242.751 250.117 242.732 250.55 242.702C251.414 242.643 252.664 242.541 254.193 242.368C257.253 242.022 261.421 241.395 265.865 240.275L266.354 242.214C261.8 243.362 257.538 244.002 254.417 244.355C252.856 244.532 251.577 244.637 250.686 244.698C250.241 244.728 249.893 244.748 249.654 244.76C249.535 244.766 249.443 244.77 249.381 244.772C249.35 244.774 249.326 244.775 249.309 244.775C249.301 244.776 249.294 244.776 249.29 244.776C249.288 244.776 249.286 244.776 249.285 244.776C249.284 244.776 249.284 244.776 249.283 244.776C249.283 244.776 249.283 244.776 249.283 244.776C249.282 244.776 249.282 244.776 249.249 243.777ZM265.865 240.275C268.999 239.485 273.282 237.93 276.813 236.557C278.572 235.873 280.132 235.24 281.253 234.777C281.813 234.546 282.263 234.357 282.572 234.227C282.727 234.162 282.847 234.111 282.927 234.077C282.968 234.059 282.998 234.046 283.019 234.038C283.029 234.033 283.037 234.03 283.042 234.028C283.044 234.027 283.046 234.026 283.047 234.025C283.048 234.025 283.048 234.025 283.049 234.025C283.049 234.025 283.049 234.025 283.049 234.025C283.049 234.025 283.049 234.025 283.443 234.944C283.837 235.863 283.837 235.863 283.837 235.863C283.837 235.863 283.837 235.863 283.836 235.863C283.836 235.863 283.835 235.864 283.835 235.864C283.833 235.864 283.831 235.865 283.828 235.867C283.823 235.869 283.815 235.872 283.804 235.877C283.783 235.886 283.751 235.899 283.71 235.917C283.627 235.952 283.506 236.004 283.349 236.07C283.036 236.202 282.581 236.392 282.016 236.626C280.886 237.092 279.313 237.731 277.538 238.421C274.002 239.796 269.618 241.391 266.354 242.214L265.865 240.275ZM283.443 234.944C284.439 235.038 284.439 235.034 284.439 235.031C284.439 235.03 284.44 235.026 284.44 235.024C284.44 235.02 284.44 235.015 284.441 235.011C284.441 235.002 284.442 234.994 284.442 234.986C284.443 234.97 284.443 234.955 284.443 234.941C284.443 234.914 284.442 234.89 284.44 234.869C284.437 234.83 284.432 234.799 284.428 234.78C284.421 234.743 284.416 234.729 284.422 234.748C284.434 234.787 284.476 234.905 284.587 235.158C284.809 235.661 285.277 236.63 286.249 238.451L284.485 239.394C283.504 237.556 283.009 236.536 282.757 235.964C282.632 235.68 282.559 235.489 282.516 235.354C282.494 235.286 282.476 235.218 282.463 235.15C282.456 235.115 282.45 235.073 282.446 235.027C282.444 235.004 282.443 234.977 282.443 234.948C282.443 234.934 282.443 234.918 282.444 234.902C282.444 234.894 282.445 234.885 282.445 234.877C282.446 234.872 282.446 234.868 282.446 234.863C282.446 234.861 282.447 234.858 282.447 234.857C282.447 234.853 282.447 234.85 283.443 234.944ZM286.249 238.452C287.05 239.95 287.844 240.489 288.465 240.654C289.101 240.823 289.803 240.667 290.547 240.257C291.287 239.85 291.963 239.247 292.467 238.72C292.716 238.46 292.914 238.229 293.048 238.064C293.115 237.981 293.166 237.916 293.2 237.873C293.216 237.852 293.228 237.836 293.235 237.826C293.239 237.821 293.242 237.818 293.243 237.816C293.243 237.815 293.244 237.815 293.244 237.814C293.244 237.814 293.244 237.815 293.244 237.815C293.244 237.815 293.243 237.815 293.243 237.815C293.243 237.815 293.243 237.816 294.052 238.404C294.861 238.992 294.86 238.992 294.86 238.992C294.86 238.993 294.86 238.993 294.86 238.993C294.859 238.994 294.859 238.995 294.858 238.995C294.857 238.997 294.855 238.999 294.853 239.002C294.85 239.007 294.845 239.014 294.838 239.022C294.826 239.039 294.808 239.062 294.786 239.091C294.742 239.148 294.679 239.229 294.598 239.329C294.436 239.526 294.203 239.799 293.912 240.103C293.338 240.702 292.502 241.464 291.511 242.009C290.523 242.553 289.274 242.938 287.952 242.587C286.615 242.232 285.444 241.189 284.485 239.394L286.249 238.452ZM294.052 238.404C294.963 237.991 294.963 237.991 294.963 237.991C294.963 237.991 294.963 237.991 294.963 237.991C294.963 237.991 294.963 237.991 294.963 237.991C294.963 237.991 294.963 237.991 294.963 237.991C294.963 237.992 294.964 237.993 294.964 237.995C294.966 237.998 294.969 238.004 294.972 238.012C294.979 238.027 294.99 238.05 295.004 238.081C295.033 238.142 295.076 238.232 295.13 238.342C295.239 238.564 295.393 238.869 295.574 239.198C295.958 239.895 296.393 240.569 296.737 240.891L295.371 242.352C294.769 241.789 294.203 240.854 293.822 240.163C293.621 239.799 293.452 239.464 293.333 239.222C293.274 239.1 293.227 239 293.194 238.93C293.177 238.895 293.164 238.868 293.156 238.848C293.151 238.839 293.148 238.831 293.145 238.826C293.144 238.823 293.143 238.821 293.142 238.819C293.142 238.818 293.142 238.818 293.141 238.817C293.141 238.817 293.141 238.817 293.141 238.817C293.141 238.817 293.141 238.816 293.141 238.816C293.141 238.816 293.141 238.816 294.052 238.404ZM296.738 240.892C297.726 241.817 298.546 242.118 299.18 242.16C299.819 242.203 300.409 241.992 300.946 241.636C301.49 241.276 301.939 240.795 302.26 240.384C302.417 240.182 302.538 240.005 302.617 239.881C302.657 239.819 302.686 239.771 302.704 239.741C302.713 239.726 302.72 239.715 302.723 239.709C302.725 239.706 302.726 239.704 302.726 239.704C302.726 239.703 302.726 239.703 302.726 239.704C302.726 239.704 302.726 239.704 302.725 239.705C302.725 239.705 302.725 239.705 302.725 239.705C302.725 239.706 302.725 239.706 303.6 240.189C304.476 240.672 304.476 240.672 304.476 240.672C304.475 240.673 304.475 240.673 304.475 240.673C304.475 240.674 304.474 240.675 304.474 240.676C304.473 240.678 304.472 240.68 304.47 240.682C304.468 240.687 304.464 240.693 304.46 240.701C304.451 240.716 304.44 240.736 304.425 240.76C304.395 240.81 304.354 240.878 304.3 240.962C304.193 241.128 304.038 241.357 303.836 241.615C303.438 242.124 302.836 242.784 302.05 243.304C301.258 243.828 300.239 244.236 299.046 244.156C297.847 244.076 296.61 243.512 295.371 242.351L296.738 240.892ZM303.6 240.189C304.46 239.677 304.459 239.677 304.459 239.676C304.459 239.676 304.458 239.675 304.458 239.675C304.458 239.674 304.457 239.673 304.457 239.672C304.456 239.671 304.455 239.669 304.454 239.668C304.452 239.665 304.451 239.663 304.45 239.661C304.448 239.658 304.447 239.657 304.447 239.657C304.447 239.657 304.452 239.664 304.461 239.676C304.48 239.701 304.517 239.746 304.573 239.801C304.686 239.912 304.875 240.064 305.158 240.184C305.695 240.412 306.74 240.597 308.536 239.844L309.31 241.688C307.121 242.607 305.505 242.504 304.377 242.025C303.827 241.792 303.433 241.485 303.17 241.227C303.039 241.098 302.94 240.98 302.87 240.888C302.835 240.842 302.807 240.802 302.786 240.77C302.775 240.755 302.766 240.741 302.759 240.729C302.755 240.723 302.752 240.717 302.749 240.713C302.747 240.71 302.746 240.708 302.744 240.706C302.744 240.705 302.743 240.704 302.743 240.703C302.742 240.702 302.742 240.702 302.742 240.701C302.741 240.701 302.741 240.7 303.6 240.189ZM308.536 239.844C309.011 239.645 309.393 239.096 309.514 237.894C309.631 236.725 309.459 235.238 309.146 233.721C308.836 232.219 308.404 230.758 308.046 229.668C307.868 229.124 307.71 228.675 307.596 228.364C307.54 228.209 307.494 228.087 307.463 228.006C307.448 227.965 307.436 227.935 307.428 227.914C307.424 227.904 307.422 227.897 307.42 227.892C307.419 227.89 307.418 227.888 307.418 227.887C307.418 227.887 307.417 227.886 307.417 227.886C307.417 227.886 307.417 227.886 307.417 227.886C307.417 227.886 307.417 227.886 308.348 227.521C309.279 227.155 309.279 227.156 309.279 227.156C309.279 227.156 309.279 227.156 309.28 227.157C309.28 227.157 309.28 227.158 309.28 227.159C309.281 227.161 309.282 227.163 309.283 227.166C309.286 227.173 309.289 227.182 309.294 227.194C309.303 227.218 309.316 227.252 309.333 227.297C309.367 227.386 309.416 227.515 309.475 227.679C309.595 228.008 309.761 228.477 309.947 229.045C310.318 230.177 310.774 231.715 311.105 233.317C311.432 234.902 311.651 236.623 311.504 238.093C311.36 239.53 310.821 241.054 309.31 241.688L308.536 239.844ZM308.348 227.521C309.232 227.053 309.232 227.052 309.231 227.051C309.231 227.051 309.231 227.051 309.231 227.05C309.23 227.05 309.23 227.049 309.23 227.048C309.229 227.047 309.228 227.046 309.228 227.045C309.227 227.043 309.226 227.042 309.225 227.041C309.224 227.039 309.224 227.039 309.225 227.041C309.228 227.044 309.234 227.055 309.244 227.07C309.265 227.101 309.299 227.148 309.345 227.2C309.443 227.311 309.556 227.398 309.671 227.438C309.756 227.468 309.905 227.497 310.168 227.383C310.459 227.257 310.906 226.945 311.494 226.222L313.046 227.483C312.34 228.352 311.651 228.92 310.964 229.218C310.249 229.528 309.579 229.526 309.007 229.325C308.464 229.134 308.082 228.79 307.85 228.529C307.73 228.394 307.64 228.27 307.577 228.176C307.546 228.128 307.521 228.088 307.502 228.056C307.493 228.04 307.485 228.027 307.479 228.015C307.476 228.01 307.473 228.005 307.471 228C307.47 227.998 307.468 227.996 307.467 227.994C307.467 227.993 307.466 227.993 307.466 227.992C307.466 227.991 307.465 227.991 307.465 227.99C307.465 227.99 307.465 227.989 308.348 227.521ZM311.494 226.222C311.87 225.759 312.045 224.911 311.829 223.64C311.619 222.407 311.07 220.97 310.294 219.565C309.521 218.165 308.549 216.845 307.535 215.837C306.499 214.807 305.516 214.197 304.733 214.04L305.127 212.079C306.476 212.35 307.8 213.28 308.945 214.419C310.111 215.579 311.193 217.056 312.045 218.598C312.895 220.136 313.543 221.788 313.8 223.306C314.052 224.786 313.964 226.352 313.046 227.482L311.494 226.222Z" fill="#0A0B0B" mask="url(#path-57-inside-3_334_638)"/>
<path d="M202.195 180.953C202.169 181.114 198.866 180.226 194.763 180.719C190.654 181.164 187.658 182.773 187.594 182.623C187.564 182.573 188.269 182.107 189.527 181.572C190.781 181.034 192.613 180.474 194.704 180.232C196.795 179.995 198.712 180.128 200.061 180.367C201.415 180.605 202.212 180.9 202.195 180.953Z" fill="#F68260"/>
<path d="M341.198 17.7815C325.626 17.5733 310.029 19.1625 294.845 22.5084C291.324 23.2837 287.6 24.2812 285.218 26.9037C282.698 29.6779 282.253 33.6257 281.923 37.3023C281.52 41.7767 281.119 46.2511 280.717 50.7256C280.044 51.8428 279.296 52.9166 278.497 53.9245C274.829 58.5506 270.158 62.4071 266.823 67.2621C263.487 72.1171 261.646 78.5621 264.362 83.7638C266.005 86.911 269.049 89.1284 271.274 91.9223C275.046 96.6586 276.277 102.766 278.483 108.35C280.689 113.932 284.665 119.626 290.742 120.747C293.638 121.282 296.649 120.689 299.566 121.101C303.928 121.717 307.59 124.476 311.061 127.1C314.533 129.724 318.286 132.409 322.672 132.83C327.058 133.251 332.082 130.384 332.174 126.127C328.953 127.932 324.68 127.816 321.57 125.839C319.013 124.215 317.365 121.578 315.169 119.52C309.781 114.472 301.095 112.871 297.345 106.59C294.38 101.621 295.557 95.4011 296.903 89.8151C298.069 84.9705 299.251 79.7198 297.806 75.0683C297.915 74.3194 297.978 73.5649 297.984 72.8085C298.021 67.8527 295.989 62.5418 298.378 58.156C301.536 52.358 310.648 51.627 313.841 45.8451C315.696 42.4851 315.046 38.1887 317.073 34.9228C318.98 31.852 322.791 30.4343 326.415 29.6741C330.039 28.9139 333.86 28.5616 337.063 26.7587C340.267 24.9557 342.646 21.0785 341.198 17.7815Z" fill="#17282F"/>
<path d="M353.016 118.851C353.023 118.856 352.973 118.934 352.868 119.083C352.744 119.253 352.587 119.47 352.39 119.739C351.951 120.301 351.223 121.08 350.146 121.931C349.054 122.761 347.57 123.616 345.695 124.238C343.828 124.858 341.55 125.237 339.058 124.982C336.573 124.781 333.881 123.809 331.59 122.026C329.266 120.301 327.197 118.017 324.575 116.192C323.262 115.3 321.755 114.58 320.106 114.379C318.449 114.154 316.763 114.614 315.135 115.251C313.5 115.873 311.845 116.677 309.97 116.972C308.09 117.289 306.121 116.844 304.416 116.017C302.692 115.199 301.182 114.098 299.728 113.013C298.279 111.921 296.854 110.818 295.612 109.558C294.366 108.311 293.289 106.894 292.685 105.296C292.045 103.707 292.016 101.967 292.352 100.402C292.675 98.8224 293.27 97.3745 293.825 95.9813C294.389 94.5919 294.875 93.227 295.308 91.8931C296.151 89.2179 296.729 86.6679 297.113 84.3186C297.872 79.6143 297.87 75.7371 297.743 73.0817C297.681 71.7507 297.593 70.7182 297.52 70.0202C297.49 69.6934 297.467 69.4315 297.448 69.2243C297.434 69.0443 297.432 68.952 297.44 68.9511C297.449 68.9492 297.469 69.0406 297.499 69.2177C297.531 69.423 297.571 69.6839 297.622 70.0089C297.728 70.705 297.848 71.7365 297.94 73.0704C298.129 75.7334 298.186 79.6294 297.468 84.3714C297.106 86.7386 296.543 89.3111 295.712 92.0109C295.285 93.356 294.8 94.7398 294.241 96.1358C293.694 97.5318 293.116 98.9636 292.811 100.488C292.495 102.002 292.53 103.627 293.14 105.134C293.717 106.646 294.751 108.01 295.97 109.225C297.185 110.452 298.593 111.541 300.039 112.627C301.486 113.708 302.974 114.787 304.639 115.576C306.29 116.374 308.129 116.785 309.891 116.489C311.662 116.215 313.292 115.435 314.952 114.804C316.596 114.163 318.397 113.669 320.165 113.915C321.922 114.132 323.501 114.902 324.845 115.822C327.525 117.707 329.573 119.997 331.849 121.705C334.084 123.464 336.663 124.414 339.096 124.637C341.527 124.91 343.764 124.563 345.606 123.978C347.456 123.392 348.93 122.575 350.026 121.779C352.202 120.145 352.946 118.79 353.016 118.851Z" fill="#17282F"/>
<path d="M255.572 88.8932C255.572 88.8932 255.266 88.5616 254.789 87.8551C254.33 87.1392 253.752 86.0004 253.409 84.4225C253.054 82.8504 253.013 80.8411 253.505 78.6011C254.021 76.3789 255.049 73.8987 256.881 71.6153C258.676 69.315 261.112 67.1748 263.92 65.1853C266.719 63.1742 269.897 61.3015 273.066 59.1161C276.204 56.9175 279.428 54.3798 281.747 50.9708C282.918 49.2827 283.75 47.363 284.378 45.3499C285.009 43.3332 285.437 41.2231 285.942 39.098C286.436 36.971 287.009 34.8609 287.914 32.895C288.795 30.9234 290.094 29.1356 291.747 27.7772C293.392 26.4161 295.315 25.4552 297.279 24.8363C299.243 24.1986 301.248 23.8671 303.208 23.7041C307.142 23.3763 310.866 23.7964 314.322 24.0441C317.781 24.3183 321.016 24.4718 323.941 24.1657C326.867 23.8906 329.419 23.0428 331.477 21.9963C333.525 20.9205 335.08 19.6404 336.097 18.3979C337.124 17.162 337.674 16.0297 337.964 15.2451C338.241 14.4547 338.343 14.0214 338.37 14.028C338.37 14.028 338.309 14.4679 338.06 15.2771C337.799 16.0797 337.272 17.2421 336.251 18.5166C335.242 19.7977 333.679 21.1212 331.613 22.2374C329.536 23.3235 326.947 24.209 323.98 24.5095C321.02 24.8429 317.755 24.7064 314.29 24.4501C310.826 24.2175 307.119 23.819 303.249 24.1543C301.318 24.3201 299.35 24.6536 297.433 25.281C295.516 25.8895 293.656 26.8277 292.071 28.1408C290.482 29.453 289.234 31.1712 288.375 33.0938C287.495 35.0098 286.93 37.0878 286.436 39.2063C285.934 41.3239 285.502 43.4434 284.862 45.4903C284.224 47.5316 283.365 49.5088 282.163 51.2355C279.78 54.7217 276.504 57.2811 273.34 59.4844C270.14 61.6736 266.96 63.5284 264.168 65.5122C261.368 67.4753 258.952 69.574 257.167 71.8263C255.348 74.055 254.317 76.4788 253.782 78.6604C253.273 80.8581 253.283 82.8334 253.603 84.3858C254.249 87.5273 255.687 88.8508 255.572 88.8932Z" fill="#33535F"/>
<path d="M258.429 93.8403C258.429 93.8403 257.22 92.9973 255.43 91.0662C254.557 90.0931 253.517 88.8214 252.827 87.0769C252.49 86.2093 252.271 85.2014 252.381 84.1332C252.481 83.0678 252.933 81.9761 253.697 81.0454C255.274 79.1784 257.889 78.1723 260.631 77.6156C262.012 77.3349 263.446 77.1192 264.887 76.7772C266.32 76.4362 267.779 75.9596 269.042 75.109C270.295 74.2442 271.314 73.0394 272.066 71.6472C272.833 70.2596 273.372 68.7176 273.936 67.1539C274.499 65.5893 275.07 63.9728 275.924 62.4365C276.752 60.8954 277.992 59.4805 279.586 58.5263C281.178 57.5711 282.944 57.0455 284.664 56.6122C286.39 56.1826 288.098 55.8322 289.707 55.3056C292.966 54.3184 295.523 52.1566 297.453 49.795C299.412 47.4297 300.846 44.8797 302.259 42.537C303.664 40.1887 305.062 38.024 306.638 36.2643C308.191 34.4878 309.945 33.1652 311.646 32.3193C313.349 31.4659 314.979 31.0721 316.319 30.9572C317.665 30.8564 318.715 31.0128 319.394 31.2012C320.076 31.3811 320.409 31.5431 320.409 31.5431C320.4 31.5695 320.051 31.4442 319.37 31.2973C318.693 31.1418 317.654 31.0194 316.338 31.1475C315.026 31.2888 313.437 31.7014 311.779 32.5614C310.121 33.4167 308.426 34.7242 306.912 36.4885C305.376 38.2359 304.01 40.3874 302.624 42.7395C301.23 45.0851 299.801 47.6624 297.819 50.0767C296.835 51.2824 295.703 52.4429 294.379 53.4377C293.065 54.4437 291.516 55.2331 289.867 55.7597C288.22 56.3022 286.501 56.6564 284.792 57.085C283.088 57.5146 281.37 58.0317 279.855 58.9417C278.343 59.8498 277.175 61.1751 276.368 62.6691C275.541 64.1556 274.972 65.7475 274.407 67.3112C273.838 68.8749 273.29 70.4358 272.495 71.8667C271.716 73.3004 270.637 74.573 269.31 75.4801C267.97 76.3731 266.453 76.8554 264.992 77.1964C263.524 77.5365 262.085 77.7437 260.717 78.0131C258.015 78.5425 255.477 79.5137 253.975 81.2639C253.247 82.1343 252.809 83.1582 252.703 84.1652C252.586 85.1731 252.781 86.1387 253.093 86.9836C253.736 88.6839 254.738 89.9603 255.58 90.9428C256.436 91.9253 257.172 92.6318 257.671 93.1056C257.906 93.3269 258.094 93.5041 258.244 93.6454C258.371 93.7688 258.435 93.8347 258.429 93.8403Z" fill="#33535F"/>
<path d="M378.489 32.9899C378.516 33.0116 378.337 33.2706 377.987 33.719C377.635 34.1674 377.113 34.8032 376.446 35.5747C375.115 37.1167 373.203 39.1929 370.965 41.3661C369.849 42.4154 368.807 43.6033 367.372 44.0394C366.677 44.2476 365.937 44.2561 365.314 44.0177C364.682 43.7822 364.248 43.3075 363.989 42.8459C363.468 41.8917 363.553 40.9996 363.624 40.4504C363.713 39.8871 363.825 39.5923 363.855 39.5989C363.894 39.6055 363.848 39.9145 363.821 40.4683C363.808 41.009 363.796 41.8502 364.302 42.6735C364.551 43.0758 364.938 43.4601 365.463 43.6372C365.985 43.8199 366.62 43.8039 367.229 43.6089C368.472 43.2189 369.481 42.0867 370.604 41.0203C372.835 38.8557 374.78 36.8266 376.175 35.3458C377.573 33.866 378.433 32.9447 378.489 32.9899Z" fill="#F68260"/>
<path d="M385.939 32.9949C385.965 33.0175 385.755 33.2784 385.352 33.7287C384.95 34.1799 384.357 34.8204 383.616 35.606C382.839 36.419 381.956 37.3412 380.993 38.3472C380.492 38.8625 379.971 39.3994 379.432 39.9542C378.888 40.5091 378.308 41.0959 377.601 41.5876C376.899 42.0775 376.084 42.4458 375.224 42.4976C374.377 42.5701 373.474 42.2235 373.009 41.565C372.773 41.2457 372.635 40.8576 372.648 40.4714C372.657 40.0843 372.811 39.7442 372.98 39.4606C373.339 38.8992 373.711 38.464 374.032 38.026C374.683 37.1697 375.218 36.4821 375.596 36.013C375.974 35.5439 376.198 35.2933 376.226 35.3131C376.254 35.3329 376.087 35.6202 375.758 36.1222C375.429 36.6253 374.94 37.344 374.325 38.2257C374.029 38.6666 373.653 39.1489 373.348 39.6604C373.033 40.1681 372.983 40.7926 373.389 41.2994C373.769 41.8128 374.462 42.0784 375.191 42.0181C375.923 41.9692 376.652 41.6451 377.305 41.1901C377.961 40.7333 378.525 40.1709 379.072 39.6227C379.618 39.0754 380.147 38.545 380.654 38.0364C381.647 37.0558 382.555 36.158 383.357 35.3668C384.131 34.6122 384.764 34.0075 385.21 33.5968C385.656 33.187 385.914 32.9713 385.939 32.9949Z" fill="#F68260"/>
</svg>
