<svg width="74" height="69" viewBox="0 0 74 69" fill="none" xmlns="http://www.w3.org/2000/svg">
<path d="M10.0977 33.8296C10.4795 34.4034 10.6275 35.0281 10.7087 35.6565C11.7312 35.5241 13.0103 35.4015 14.4975 35.2869C11.4368 29.985 9.18776 23.1783 8.56191 17.0335C8.53219 16.7433 8.73338 16.4764 9.03401 16.4089C9.33522 16.3402 9.64157 16.4937 9.75359 16.7655C11.4517 20.8824 13.3235 25.4148 16.0687 29.3512C16.6929 26.4728 17.8571 24.9609 19.1997 24.1942C19.2271 23.6106 19.4198 23.0675 19.6129 22.5396C19.7644 22.1279 19.9067 21.7394 19.957 21.3573C20.1033 20.2415 19.5804 19.9789 18.3847 19.4915C17.6634 19.1965 16.846 18.8626 16.2831 18.1634C15.412 17.0811 15.516 15.7875 15.6081 14.6468C15.6749 13.8201 15.7384 13.0404 15.4554 12.4109C14.6478 10.6088 12.6514 9.2574 10.3703 8.96994C8.29441 8.70625 6.02362 9.26227 3.97801 10.5332C3.04809 11.1108 2.38738 11.703 1.95814 12.3449C0.246904 14.9024 1.977 18.3817 2.80005 19.759C3.70482 21.272 4.81593 23.1302 3.84657 24.822C3.66939 25.1322 3.44476 25.384 3.22871 25.6272C3.07839 25.7963 2.9355 25.9557 2.82405 26.1205C2.11189 27.1655 2.51541 28.6353 3.28186 29.5468C4.18549 30.621 5.61039 31.2786 6.88496 31.7806L7.03185 31.8379C8.13667 32.2718 9.38951 32.7624 10.0977 33.8296Z" fill="#C1E8A3"/>
<path d="M10.6458 22.0021C11.7192 26.6686 13.5659 31.3674 15.8476 35.1887C15.9144 35.1844 15.9847 35.1801 16.0522 35.1752C15.755 33.8524 15.6675 32.4638 15.803 31.0529C13.6734 28.2491 12.0433 25.1129 10.6458 22.0021Z" fill="#375947"/>
<path d="M25.9241 23.6873C26.0984 23.6824 26.2619 23.67 26.4071 23.6429C26.8443 23.5603 27.265 23.3787 27.6811 23.1415C27.5245 22.2397 27.3478 21.2254 27.1724 20.2166C26.7106 20.0767 26.2367 19.9016 25.7406 19.6676C25.4634 19.5363 25.332 19.231 25.4331 18.9544C25.4646 18.8658 25.8447 17.8494 26.5505 16.6876C26.3722 15.6918 26.235 14.9418 26.1773 14.6705C26.1333 14.5279 25.5783 14.2707 24.8227 14.2707C24.6793 14.2707 24.5289 14.2804 24.3729 14.3015C23.7871 14.3809 22.8034 14.6754 22.8034 15.7631C22.8034 17.141 24.4278 20.7148 25.9241 23.6873Z" fill="#375947"/>
<path d="M72.5031 15.8459C71.8098 15.3758 70.4392 15.4434 70.1912 15.6341C69.9848 16.0059 69.507 18.6579 69.0772 21.5233C69.5339 21.5866 70.0248 21.7179 70.5569 21.9297L72.7008 16.5235C72.8237 16.2155 72.7677 16.0253 72.5031 15.8459Z" fill="#385B48"/>
<path d="M70.557 21.9296C70.0249 21.7178 69.5339 21.5865 69.0772 21.5232C69.507 18.6578 69.9848 16.0058 70.1912 15.634C70.4392 15.4433 71.8098 15.3757 72.5031 15.8458C72.7677 16.0252 72.8238 16.2154 72.7009 16.5234L70.557 21.9296ZM16.0522 35.1751C15.9848 35.1799 15.9145 35.1842 15.8476 35.1886C13.5659 31.3672 11.7193 26.6684 10.6459 22.002C12.0433 25.1127 13.6734 28.2489 15.803 31.0528C15.6676 32.4636 15.755 33.8523 16.0522 35.1751ZM54.1476 22.183C55.2793 22.6418 56.7905 22.9022 58.3217 22.9017C59.2802 22.9017 60.2421 22.7957 61.1274 22.5769C61.3309 22.8044 61.5281 23.0405 61.7139 23.2891C62.7164 24.6318 60.8205 29.4463 57.701 34.2856C54.003 34.2392 49.7009 34.2365 45.1993 34.2759C45.2788 33.2865 45.3348 32.2788 45.3776 31.2727C46.5756 25.3791 48.7778 20.0114 50.2004 19.591C50.4971 19.5034 50.7948 19.431 51.0915 19.3689C51.9094 20.6349 53.0096 21.7221 54.1476 22.183ZM51.0635 14.8651C51.3127 14.1578 52.0546 13.9833 52.7284 13.9833C53.3806 13.9833 53.9681 14.147 53.979 14.1508C54.2459 14.2259 54.538 14.1254 54.6854 13.9006C54.834 13.6758 54.8032 13.384 54.6117 13.1906C54.0499 12.627 52.6204 10.886 52.7473 9.61728C52.7867 9.20985 52.9925 8.88511 53.3737 8.62251C53.8858 8.26966 54.3579 8.15456 54.8135 8.26263C55.7017 8.47822 56.4001 9.53353 56.5938 9.92096C56.7076 10.1506 56.9619 10.2846 57.2317 10.2533C57.4975 10.2214 57.7124 10.0306 57.7615 9.78154C58.0907 8.12971 59.0561 5.32478 60.2472 4.82658C60.4341 4.74769 60.7376 4.67529 61.204 4.94707C63.6383 6.36386 60.7988 10.8482 60.7696 10.8936C60.605 11.1502 60.6725 11.4842 60.9274 11.6646C61.1812 11.8462 61.539 11.8149 61.7544 11.5922C62.0837 11.2529 62.9581 10.5888 63.5657 10.6947C63.8961 10.7536 64.1784 11.0665 64.4047 11.6252C64.5979 12.0975 64.5854 12.5276 64.3682 12.9409C63.7812 14.0567 61.8293 14.7976 61.128 14.9888C60.8142 15.0742 60.6239 15.3747 60.6942 15.6762C60.7645 15.9777 61.0691 16.1727 61.3926 16.1284C61.4006 16.1268 62.2334 16.0236 62.8673 16.5375C63.4017 16.9708 63.6732 17.7376 63.6732 18.8161C63.6732 19.638 63.2788 20.2837 62.4677 20.79C60.5233 22.0009 56.7293 21.9566 54.6345 21.1082C52.6524 20.3048 50.4828 16.5121 51.0635 14.8651ZM36.5517 16.899C36.5196 12.0948 36.4802 6.11691 38.9373 2.58738C39.5203 1.75093 40.4777 0.953926 41.4053 1.22086C46.3298 2.64683 45.0255 17.4755 44.5346 23.0578L44.4454 24.078C44.3374 25.3635 44.2894 26.898 44.2379 28.5218C44.0836 33.3941 43.8916 39.4584 41.9214 42.2638C41.4413 42.9485 40.9201 43.2462 40.3897 43.15C39.2757 42.9506 38.0085 41.1886 37.5616 39.2212V39.2217C36.3796 33.9993 36.4539 28.1398 36.5248 22.4737C36.5431 21.0839 36.5602 19.7082 36.5591 18.3601C36.5585 17.8856 36.5551 17.3977 36.5517 16.899ZM30.6503 14.395C31.4174 14.1394 32.1987 14.2156 33.0263 14.6301C32.9034 15.5546 32.417 18.0531 30.6801 19.0025C29.6827 19.5467 28.3801 19.4937 26.8032 18.8464C27.2913 17.7349 28.6487 15.0602 30.6503 14.395ZM24.3729 14.3015C24.529 14.2805 24.6793 14.2707 24.8228 14.2707C25.5784 14.2707 26.1333 14.5279 26.1773 14.6706C26.2351 14.9418 26.3722 15.6918 26.5506 16.6877C25.8447 17.8494 25.4646 18.8658 25.4332 18.9544C25.332 19.2311 25.4635 19.5364 25.7407 19.6677C26.2368 19.9017 26.7106 20.0767 27.1724 20.2167C27.3479 21.2255 27.5245 22.2397 27.6811 23.1416C27.265 23.3788 26.8443 23.5603 26.4071 23.643C26.2619 23.67 26.0985 23.6825 25.9241 23.6873C24.4278 20.7149 22.8034 17.141 22.8034 15.7632C22.8034 14.6754 23.7871 14.381 24.3729 14.3015ZM24.1918 24.7507C25.0874 24.841 25.9339 24.9252 26.65 24.7896C27.9989 24.5346 29.1203 23.6608 30.2045 22.8168C31.4254 21.8658 32.5753 20.9726 33.8562 21.1131C34.3197 21.165 34.7987 21.3584 35.2977 21.6794C35.2948 21.9398 35.2919 22.1976 35.2885 22.4597C35.2376 26.4393 35.1965 30.5097 35.576 34.4197C28.8436 34.5612 22.3148 34.7898 17.2976 35.0956C16.9187 33.5146 16.8644 31.8217 17.1748 30.112C18.0195 25.4515 20.0508 24.6232 22.293 24.6232C22.9155 24.6232 23.5562 24.6875 24.1918 24.7507ZM6.88503 31.7806C5.61045 31.2786 4.18556 30.621 3.28193 29.5468C2.51547 28.6353 2.11196 27.1655 2.82411 26.1205C2.93557 25.9557 3.07846 25.7963 3.22878 25.6272C3.44483 25.384 3.66945 25.1322 3.84664 24.822C4.816 23.1302 3.70489 21.272 2.80011 19.759C1.97707 18.3817 0.246973 14.9024 1.95821 12.3449C2.38745 11.703 3.04816 11.1108 3.97808 10.5332C6.02368 9.26226 8.29448 8.70625 10.3704 8.96994C12.6515 9.2574 14.6479 10.6088 15.4555 12.4109C15.7384 13.0404 15.675 13.8201 15.6081 14.6468C15.5161 15.7875 15.4121 17.0811 16.2831 18.1634C16.8461 18.8626 17.6634 19.1965 18.3847 19.4915C19.5804 19.9789 20.1034 20.2415 19.9571 21.3573C19.9068 21.7394 19.7645 22.1279 19.613 22.5396C19.4198 23.0675 19.2272 23.6106 19.1998 24.1942C17.8572 24.9609 16.6929 26.4728 16.0688 29.3512C13.3236 25.4148 11.4518 20.8824 9.75366 16.7655C9.64164 16.4937 9.33529 16.3402 9.03408 16.4089C8.73344 16.4764 8.53226 16.7433 8.56198 17.0335C9.18783 23.1783 11.4369 29.985 14.4976 35.2869C13.0104 35.4015 11.7312 35.5241 10.7087 35.6565C10.6276 35.0281 10.4795 34.4034 10.0977 33.8296C9.38958 32.7624 8.13674 32.2718 7.03192 31.8379L6.88503 31.7806ZM10.1686 36.9133C14.3896 36.2665 24.7856 35.8078 35.696 35.5776C35.8555 36.8982 36.0658 38.1999 36.3528 39.4659V39.4665C36.6494 40.7725 37.3067 42.1498 38.1926 43.1068C25.2731 43.163 12.7218 43.1052 10.6407 42.9647C8.95348 42.8507 7.83267 41.1648 7.7618 39.6686C7.72808 38.9564 7.89496 37.2613 10.1686 36.9133ZM61.763 59.8613C56.7196 65.149 49.0676 67.8307 39.0231 67.8307C28.7293 67.8307 21.1133 65.1674 16.3883 59.9136C11.6547 54.6534 10.9511 47.9526 10.9934 44.1491C13.103 44.2139 20.9836 44.2653 30.3 44.2653C33.4115 44.2653 36.682 44.2593 39.9501 44.2469C40.0193 44.2647 40.0879 44.2858 40.1582 44.2988C40.2953 44.3236 40.4428 44.3388 40.6006 44.3388C40.8057 44.3388 41.0269 44.3074 41.2561 44.241C53.4772 44.1858 65.3507 44.0264 68.4039 43.6893C68.0981 47.9104 66.7635 54.6194 61.763 59.8613ZM68.644 42.4773C66.8893 42.8085 55.245 42.9998 42.8193 43.0814C42.8633 43.0236 42.9079 42.9733 42.9519 42.9101C44.1917 41.1453 44.7821 38.4279 45.0936 35.436C55.9434 35.3393 65.6593 35.4863 68.4011 35.918C70.6278 36.2682 71.8693 37.2905 71.895 38.7964C71.923 40.4531 70.4341 42.1385 68.644 42.4773ZM71.0828 31.4267C70.6336 32.8191 70.2786 33.9188 70.3661 34.6666C70.3815 34.8011 70.4021 35.0059 70.4204 35.2604C69.8831 35.0389 69.2761 34.8703 68.6034 34.7644C67.1345 34.5326 63.68 34.3824 59.1253 34.3067C60.637 31.8968 61.9145 29.4063 62.6146 27.2876C63.4262 26.6835 64.0944 25.9054 64.7483 25.1441C65.9114 23.7889 66.8904 22.6472 68.4473 22.6472C68.9635 22.6472 69.5442 22.7731 70.2157 23.0589C73.1175 24.293 72.3254 27.5789 71.0828 31.4267ZM72.8958 14.7068C71.7447 14.1502 69.7414 14.1708 69.1887 14.9559C68.7731 15.5449 68.2062 18.9517 67.8272 21.5151C66.0497 21.7734 64.8689 23.147 63.788 24.4071C63.572 24.6589 63.3537 24.9117 63.1307 25.1581C63.2725 24.085 63.1639 23.2026 62.7249 22.6142C62.6089 22.4591 62.4843 22.3138 62.3626 22.1662C62.6392 22.0468 62.9061 21.9166 63.149 21.7659C64.3013 21.0472 64.91 20.0276 64.91 18.8161C64.91 17.3804 64.4945 16.3159 63.6726 15.6497C63.548 15.5486 63.4205 15.4616 63.2902 15.3876C64.1224 14.9559 65.0209 14.3226 65.4741 13.464C65.8508 12.7513 65.8793 11.9905 65.5598 11.2048C65.1683 10.2435 64.5756 9.68535 63.7966 9.54594C63.4542 9.48489 63.1142 9.51514 62.7941 9.5989C63.5188 7.8109 64.0469 5.22806 61.8522 3.95123C60.9623 3.43411 60.2152 3.56055 59.746 3.7567C58.2342 4.38998 57.3243 6.7167 56.8773 8.2394C56.4481 7.7747 55.8594 7.31108 55.1255 7.13223C54.299 6.93014 53.4651 7.11332 52.6461 7.6769C51.9791 8.13511 51.5882 8.76839 51.515 9.50813C51.4001 10.6709 52.09 11.9262 52.7278 12.8123C51.5819 12.821 50.3462 13.2008 49.8895 14.495C49.5357 15.5 49.8301 16.933 50.4948 18.3055C50.2742 18.3584 50.053 18.4103 49.8318 18.4757C48.3074 18.9258 46.7797 21.9128 45.5863 25.6272C45.612 25.1165 45.6411 24.6221 45.6794 24.1709L45.7674 23.1551C46.6962 12.5967 46.9466 1.60235 41.7677 0.10289C40.4434 -0.280754 38.9631 0.424927 37.9045 1.94492C35.2411 5.76948 35.2817 11.9445 35.3148 16.906C35.3182 17.4026 35.3217 17.8889 35.3222 18.3611C35.3222 19.0155 35.3188 19.6758 35.3125 20.3415C34.8736 20.1367 34.438 20.0005 34.0025 19.9514C32.201 19.7477 30.7852 20.8489 29.4181 21.9139C29.2117 22.0755 29.0077 22.2332 28.8036 22.3862C28.699 21.7831 28.5882 21.145 28.4756 20.5009C28.6996 20.5268 28.9208 20.5474 29.1346 20.5474C29.9267 20.5474 30.6503 20.3696 31.299 20.0146C34.0082 18.534 34.2883 14.5182 34.2986 14.348C34.3123 14.1356 34.2026 13.933 34.0122 13.8195C32.74 13.0598 31.4705 12.881 30.2394 13.2916C29.1654 13.6488 28.2704 14.4204 27.5508 15.2812C27.4782 14.8856 27.4222 14.5928 27.3908 14.4409C27.1747 13.4213 25.6778 12.9998 24.3838 13.1225C22.6725 13.2824 21.5666 14.3188 21.5666 15.7632C21.5666 17.3269 23.1012 20.7738 24.5078 23.6057C24.445 23.5992 24.3849 23.5938 24.3215 23.5879C23.1961 23.475 21.8404 23.3404 20.5355 23.6646C20.6018 23.4231 20.6887 23.1767 20.7818 22.9227C20.9476 22.4715 21.1185 22.0052 21.1842 21.5011C21.4506 19.4688 20.0228 18.8858 18.8751 18.4168C18.2367 18.1569 17.6337 17.911 17.2673 17.455C16.6809 16.7261 16.7587 15.7594 16.8421 14.736C16.917 13.806 16.9941 12.8458 16.5946 11.9537C15.619 9.77884 13.2407 8.1524 10.5344 7.81036C8.16189 7.50993 5.59388 8.13025 3.29908 9.55568C2.21884 10.2268 1.43809 10.9346 0.912833 11.7198C-0.543492 13.8963 -0.248575 17.0368 1.7353 20.3545C2.51661 21.6616 3.40254 23.1421 2.75954 24.2649C2.64179 24.4703 2.46632 24.667 2.28171 24.8745C2.1131 25.0641 1.93878 25.2603 1.78446 25.4877C0.862536 26.8391 1.08087 28.8076 2.31372 30.2741C3.39167 31.5569 4.9886 32.3015 6.40891 32.8597L6.5581 32.9186C7.53832 33.3028 8.55169 33.6999 9.05009 34.451C9.31643 34.8508 9.42216 35.3345 9.48561 35.8543C7.20624 36.4076 6.4535 38.1778 6.52609 39.7215C6.61125 41.5198 7.81323 43.4461 9.73823 43.9886C9.65421 47.9348 10.3406 54.9906 15.4384 60.6631C20.4098 66.1946 28.3447 69 39.0231 69C49.4334 69 57.3935 66.1887 62.6821 60.6443C67.9587 55.1127 69.3515 48.1952 69.6585 43.8081C69.7859 43.6282 69.91 43.4472 70.0226 43.2613C71.8418 42.4476 73.1638 40.6315 73.1318 38.777C73.1124 37.6542 72.6026 36.701 71.6967 35.9921C71.6801 35.382 71.6361 34.8773 71.5955 34.5369C71.536 34.0295 71.8904 32.931 72.2659 31.7676C73.2096 28.8476 74.579 24.5681 71.6464 22.5131L73.8594 16.9346C74.2258 16.0096 73.8663 15.1763 72.8958 14.7068Z" fill="#385B48"/>
<path d="M70.2157 23.0587C69.5441 22.7729 68.9634 22.647 68.4473 22.647C66.8904 22.647 65.9113 23.7887 64.7482 25.1439C64.0943 25.9053 63.4262 26.6834 62.6146 27.2875C61.9144 29.4062 60.637 31.8966 59.1252 34.3065C63.6799 34.3822 67.1344 34.5324 68.6033 34.7642C69.276 34.8701 69.883 35.0387 70.4203 35.2603C70.402 35.0058 70.3815 34.801 70.366 34.6664C70.2786 33.9186 70.6335 32.819 71.0828 31.4265C72.3253 27.5787 73.1175 24.2929 70.2157 23.0587Z" fill="#C1E8A3"/>
<path d="M41.2561 44.2409C41.0269 44.3074 40.8057 44.3388 40.6005 44.3388C40.4428 44.3388 40.2953 44.3236 40.1581 44.2988C40.0878 44.2858 40.0192 44.2647 39.9501 44.2469C36.6819 44.2593 33.4115 44.2653 30.2999 44.2653C20.9836 44.2653 13.103 44.2139 10.9933 44.1491C10.951 47.9526 11.6546 54.6534 16.3883 59.9136C21.1133 65.1674 28.7293 67.8307 39.023 67.8307C49.0676 67.8307 56.7195 65.149 61.763 59.8612C66.7635 54.6194 68.0981 47.9104 68.4039 43.6893C65.3506 44.0264 53.4771 44.1858 41.2561 44.2409Z" fill="#E9E9E6"/>
<path d="M68.401 35.9182C65.6593 35.4865 55.9434 35.3395 45.0935 35.4362C44.782 38.4281 44.1916 41.1455 42.9519 42.9103C42.9079 42.9735 42.8633 43.0237 42.8193 43.0815C55.2449 43 66.8892 42.8087 68.6439 42.4774C70.434 42.1386 71.923 40.4533 71.895 38.7966C71.8692 37.2907 70.6278 36.2683 68.401 35.9182Z" fill="#E9E9E6"/>
<path d="M10.6407 42.9646C12.7218 43.105 25.2731 43.1629 38.1926 43.1067C37.3067 42.1497 36.6494 40.7724 36.3528 39.4664V39.4658C36.0658 38.1998 35.8555 36.8981 35.6961 35.5775C24.7856 35.8077 14.3896 36.2664 10.1686 36.9132C7.89498 37.2612 7.72809 38.9563 7.76181 39.6684C7.83268 41.1647 8.9535 42.8505 10.6407 42.9646Z" fill="#E9E9E6"/>
<path d="M36.5247 22.4737C36.4538 28.1397 36.3795 33.9992 37.5615 39.2217V39.2211C38.0085 41.1885 39.2756 42.9506 40.3896 43.15C40.92 43.2462 41.4412 42.9484 41.9213 42.2638C43.8915 39.4583 44.0835 33.394 44.2379 28.5218C44.2893 26.898 44.3373 25.3634 44.4453 24.078L44.5345 23.0578C45.0255 17.4755 46.3298 2.6468 41.4052 1.22083C40.4776 0.953896 39.5202 1.7509 38.9373 2.58736C36.4801 6.11689 36.5196 12.0947 36.5516 16.8989C36.555 17.3977 36.5584 17.8856 36.559 18.36C36.5601 19.7082 36.543 21.0839 36.5247 22.4737Z" fill="#E9E9E6"/>
<path d="M54.6345 21.1083C56.7292 21.9567 60.5232 22.001 62.4677 20.7901C63.2787 20.2838 63.6731 19.6381 63.6731 18.8162C63.6731 17.7377 63.4016 16.9709 62.8672 16.5376C62.2333 16.0237 61.4006 16.1269 61.3926 16.1285C61.0691 16.1728 60.7644 15.9778 60.6941 15.6762C60.6238 15.3747 60.8142 15.0743 61.1279 14.9889C61.8292 14.7976 63.7811 14.0568 64.3681 12.941C64.5853 12.5277 64.5979 12.0975 64.4047 11.6253C64.1783 11.0666 63.896 10.7537 63.5656 10.6948C62.9581 10.5889 62.0836 11.253 61.7544 11.5923C61.5389 11.8149 61.1811 11.8463 60.9273 11.6647C60.6724 11.4843 60.605 11.1503 60.7696 10.8937C60.7987 10.8483 63.6382 6.36394 61.204 4.94715C60.7376 4.67536 60.4341 4.74777 60.2472 4.82666C59.056 5.32486 58.0907 8.12979 57.7615 9.78162C57.7123 10.0307 57.4974 10.2215 57.2316 10.2533C56.9619 10.2847 56.7075 10.1507 56.5938 9.92103C56.4 9.53361 55.7016 8.47831 54.8134 8.26271C54.3579 8.15464 53.8857 8.26974 53.3736 8.62258C52.9924 8.88519 52.7866 9.20994 52.7472 9.61736C52.6203 10.8861 54.0498 12.6271 54.6116 13.1907C54.8031 13.3841 54.834 13.6759 54.6854 13.9007C54.5379 14.1255 54.2458 14.226 53.9789 14.1508C53.968 14.1471 53.3805 13.9833 52.7283 13.9833C52.0545 13.9833 51.3126 14.1579 51.0634 14.8652C50.4827 16.5122 52.6523 20.3048 54.6345 21.1083Z" fill="#C1E8A3"/>
<path d="M26.8032 18.8463C28.3801 19.4936 29.6827 19.5466 30.6801 19.0025C32.4171 18.0531 32.9035 15.5545 33.0263 14.63C32.1987 14.2156 31.4174 14.1394 30.6504 14.395C28.6488 15.0601 27.2913 17.7348 26.8032 18.8463Z" fill="#C1E8A3"/>
<path d="M59.2121 27.2644C57.9867 26.8554 56.3383 27.2055 55.0335 27.1255C53.1273 27.0072 51.0737 26.7095 50.0844 24.962C49.9129 24.6594 49.3608 24.8664 49.4882 25.1992C50.1621 26.9688 51.7401 27.8145 53.6331 28.1554C54.9026 28.3846 56.2377 28.5099 57.5295 28.5245C58.4371 28.5348 59.0126 28.6558 59.4796 27.8853C59.6316 27.6351 59.4836 27.3547 59.2121 27.2644Z" fill="#385B48"/>
<path d="M56.2549 32.5674C54.1361 31.4543 50.1792 33.3817 48.9875 30.4925C48.8578 30.1785 48.3874 30.2963 48.4514 30.6324C48.708 31.9741 49.7877 32.8689 51.1326 33.2796C52.5478 33.7118 54.9243 34.1706 56.2549 33.4352C56.5932 33.2482 56.6058 32.7522 56.2549 32.5674Z" fill="#385B48"/>
<path d="M69.7122 24.7242C69.3755 24.3757 68.7165 24.8393 69.0103 25.2365C69.8162 26.3274 69.8893 27.628 69.2886 28.8276C69.1394 29.1253 69.1897 29.3782 69.3984 29.63C69.531 29.7899 69.6944 29.8008 69.8939 29.824C70.1151 29.8499 70.4049 29.683 70.4986 29.496C71.3062 27.8852 70.981 26.0383 69.7122 24.7242Z" fill="#385B48"/>
<path d="M70.0025 31.3936C69.9585 31.3001 69.9448 31.2261 69.9442 31.1256C69.9402 30.5264 69.1103 30.4858 68.9 30.9921C68.7822 31.2764 68.7708 31.5622 68.8325 31.8599C68.9068 32.2187 69.3692 32.3824 69.6961 32.2522C70.0757 32.1009 70.158 31.7249 70.0025 31.3936Z" fill="#385B48"/>
<path d="M61.2137 6.1168C60.9394 5.70884 60.2489 6.08655 60.525 6.49721C60.641 6.66904 60.7107 6.85708 60.6799 7.06457C60.6496 7.26774 60.7325 7.46658 60.9582 7.52764C61.1446 7.57844 61.4183 7.46604 61.4486 7.2645C61.5103 6.85329 61.4526 6.47181 61.2137 6.1168Z" fill="#385B48"/>
<path d="M60.3226 8.38327C60.3261 8.50809 60.3295 8.63399 60.3329 8.75881C60.3478 9.27484 61.1668 9.27592 61.1817 8.75881C61.1851 8.63399 61.1886 8.50809 61.192 8.38327C61.2074 7.85373 60.3072 7.85319 60.3226 8.38327Z" fill="#385B48"/>
<path d="M40.3119 2.58367C39.0916 3.65139 38.2646 4.95903 37.9136 6.50874C37.6781 7.54944 37.3249 9.47307 38.5286 10.0604C38.7075 10.148 38.939 10.1361 39.0847 9.99234C39.8443 9.24558 39.4362 7.91633 39.6083 6.95074C39.8461 5.61771 40.4113 4.3533 41.1846 3.21966C41.5373 2.70363 40.7623 2.18868 40.3119 2.58367Z" fill="#385B48"/>
<path d="M39.3134 11.6122C39.1865 10.9405 38.1766 11.1621 38.1269 11.764C38.0794 12.3438 37.9851 12.9209 37.9131 13.499C37.8639 13.8908 38.3023 14.2285 38.6841 14.2285C39.1305 14.2285 39.4214 13.893 39.4563 13.499C39.5123 12.8587 39.4323 12.2433 39.3134 11.6122Z" fill="#385B48"/>
<path d="M31.028 15.1522C30.4496 15.049 29.8747 15.5942 29.534 15.9816C29.2688 16.2836 29.6815 16.6916 29.9953 16.4182C30.1873 16.2507 30.3942 16.1113 30.628 15.9983C30.8674 15.8827 31.0595 15.8271 31.2287 15.6185C31.3555 15.4618 31.2247 15.1873 31.028 15.1522Z" fill="#385B48"/>
<path d="M22.2204 25.8238C19.825 25.5244 18.5905 28.1224 18.7254 30.0195C18.7802 30.7911 20.0474 31.0619 20.2354 30.2124C20.4863 29.0804 20.4955 27.0719 22.2204 27.0806C23.1023 27.0844 23.04 25.927 22.2204 25.8238Z" fill="#385B48"/>
<path d="M20.0713 32.0636C19.9702 31.2579 18.8436 31.2558 18.743 32.0636C18.6939 32.4537 18.6539 32.7552 18.8225 33.1264C19.0128 33.5457 19.801 33.5457 19.9913 33.1264C20.1588 32.7579 20.1199 32.4494 20.0713 32.0636Z" fill="#385B48"/>
<path d="M8.96255 9.90391C7.62911 9.80124 6.21221 9.96983 5.13883 10.7987C4.03515 11.6503 3.64821 12.9736 3.13724 14.1775C2.75658 15.0739 4.34095 15.704 4.7919 14.8367C5.24172 13.9743 5.42746 12.8742 6.19278 12.1961C6.96438 11.512 8.14694 11.2607 9.10372 10.8911C9.65356 10.6788 9.58612 9.952 8.96255 9.90391Z" fill="#385B48"/>
<path d="M5.22576 17.7441C5.00685 17.2723 4.78223 16.7941 4.59933 16.3089C4.37757 15.7188 3.36992 15.7713 3.38878 16.464C3.40764 17.1162 3.49165 17.7268 3.72485 18.3428C3.89003 18.7788 4.35471 19.0366 4.83368 18.8458C5.32121 18.6513 5.42352 18.1704 5.22576 17.7441Z" fill="#385B48"/>
<path d="M60.7387 24.1124C60.4729 23.4683 59.4361 23.7034 59.6208 24.4037C59.7476 24.8846 59.7476 25.3428 59.7837 25.8323C59.8437 26.6391 61.0919 26.6537 61.1228 25.8323C61.1445 25.2563 60.9588 24.6441 60.7387 24.1124Z" fill="#385B48"/>
<path d="M20.4394 37.9579C19.1905 37.1431 17.4227 37.5732 15.9744 37.6645C14.2992 37.7704 12.6439 37.9509 10.9916 38.2303C10.2537 38.3556 10.5217 39.3093 11.1556 39.3742C12.9897 39.5622 14.8176 39.62 16.6626 39.5952C18.0966 39.5757 19.4186 39.8097 20.5743 38.9446C20.9361 38.6739 20.7532 38.1622 20.4394 37.9579Z" fill="#385B48"/>
<path d="M24.9668 37.3957C24.4627 37.1558 23.9374 37.2563 23.3979 37.3277C22.9692 37.3849 22.2839 37.6892 22.4617 38.2144C22.6177 38.6774 23.1127 38.7974 23.5705 38.8487C24.0671 38.9033 24.4998 38.9822 24.9668 38.7601C25.5121 38.5002 25.5121 37.6551 24.9668 37.3957Z" fill="#385B48"/>
<path d="M69.1869 37.0874C68.6153 36.894 68.0524 36.8465 67.5654 37.2409C67.1087 37.6116 67.3734 38.3448 67.9118 38.4815C68.3753 38.5993 68.7439 38.4016 69.1869 38.3211C69.4749 38.2686 69.6841 37.9687 69.6841 37.7045C69.6841 37.4089 69.4698 37.1836 69.1869 37.0874Z" fill="#385B48"/>
<path d="M65.1346 46.1731C64.4927 49.0181 63.0638 51.5685 61.3217 53.9433C60.7079 54.7814 58.7383 56.9692 60.8451 57.4566C61.284 57.5582 61.8356 57.4734 62.1459 57.1319C64.9157 54.0816 65.9725 50.2517 66.4394 46.3401C66.5229 45.6377 65.2895 45.4858 65.1346 46.1731Z" fill="#385B48"/>
<path d="M59.9654 57.8122C59.6254 57.4907 59.1133 57.5253 58.7697 57.8122C58.5045 58.0333 58.2319 58.2391 57.9398 58.4265C57.5638 58.6682 57.1128 58.8951 56.8893 59.2848C56.591 59.804 56.951 60.6626 57.6786 60.5841C58.6509 60.4798 59.3802 59.6267 59.9654 58.9426C60.2524 58.607 60.3124 58.1403 59.9654 57.8122Z" fill="#385B48"/>
</svg>
