<svg width="60" height="85" viewBox="0 0 60 85" fill="none" xmlns="http://www.w3.org/2000/svg">
<mask id="path-1-inside-1_153_1440" fill="white">
<path d="M28.7413 27.5676C28.7413 27.5676 22.7776 24.7312 24.2271 22.4569C25.6766 20.1845 27.5541 17.2298 27.5541 17.2298C27.5541 17.2298 29.8159 18.3469 30.5376 21.8693C31.2561 25.3935 28.7413 27.5676 28.7413 27.5676Z"/>
</mask>
<path d="M28.7413 27.5676C28.7413 27.5676 22.7776 24.7312 24.2271 22.4569C25.6766 20.1845 27.5541 17.2298 27.5541 17.2298C27.5541 17.2298 29.8159 18.3469 30.5376 21.8693C31.2561 25.3935 28.7413 27.5676 28.7413 27.5676Z" fill="#248725"/>
<path d="M24.2271 22.4569L23.3838 21.9195L23.384 21.9191L24.2271 22.4569ZM27.5541 17.2298L26.7101 16.6935L27.1918 15.9355L27.997 16.3332L27.5541 17.2298ZM30.5376 21.8693L31.5172 21.6686L31.5174 21.6695L30.5376 21.8693ZM28.7413 27.5676C28.3117 28.4707 28.3115 28.4706 28.3113 28.4705C28.3112 28.4704 28.311 28.4703 28.3108 28.4702C28.3103 28.47 28.3098 28.4698 28.3092 28.4695C28.308 28.4689 28.3064 28.4682 28.3045 28.4672C28.3007 28.4654 28.2954 28.4629 28.2888 28.4597C28.2755 28.4532 28.2568 28.4441 28.2329 28.4324C28.1853 28.4089 28.1173 28.375 28.0323 28.3315C27.8624 28.2446 27.6234 28.1187 27.3422 27.9607C26.7834 27.6467 26.0406 27.1961 25.3363 26.6619C24.6483 26.14 23.9193 25.481 23.4659 24.7335C22.9948 23.9568 22.744 22.9233 23.3838 21.9195L25.0704 22.9944C24.9854 23.1277 24.9365 23.3015 25.1759 23.6963C25.4331 24.1203 25.9232 24.5968 26.5449 25.0684C27.1503 25.5275 27.8078 25.9282 28.322 26.2171C28.5772 26.3605 28.7928 26.4741 28.9434 26.5511C29.0186 26.5896 29.0773 26.6188 29.1163 26.6381C29.1358 26.6477 29.1504 26.6547 29.1596 26.6592C29.1642 26.6614 29.1675 26.663 29.1694 26.6639C29.1703 26.6643 29.1709 26.6646 29.1711 26.6647C29.1712 26.6648 29.1713 26.6648 29.1712 26.6648C29.1712 26.6648 29.1711 26.6647 29.1711 26.6647C29.1709 26.6646 29.1708 26.6646 28.7413 27.5676ZM23.384 21.9191C24.1084 20.7835 24.9399 19.4771 25.5904 18.4545C25.9156 17.9432 26.1956 17.5029 26.3942 17.1905C26.4935 17.0343 26.5725 16.91 26.6266 16.8248C26.6537 16.7822 26.6746 16.7494 26.6887 16.7272C26.6957 16.7161 26.7011 16.7077 26.7047 16.702C26.7065 16.6992 26.7078 16.697 26.7087 16.6956C26.7092 16.6949 26.7095 16.6944 26.7098 16.694C26.7099 16.6938 26.71 16.6937 26.71 16.6936C26.71 16.6936 26.7101 16.6935 26.7101 16.6935C26.7101 16.6935 26.7101 16.6935 27.5541 17.2298C28.3981 17.7661 28.3981 17.7661 28.3981 17.7661C28.3981 17.7662 28.3981 17.7662 28.3981 17.7662C28.398 17.7663 28.3979 17.7665 28.3978 17.7666C28.3976 17.767 28.3972 17.7675 28.3968 17.7683C28.3959 17.7697 28.3945 17.7718 28.3927 17.7747C28.3891 17.7803 28.3837 17.7888 28.3767 17.7999C28.3626 17.8221 28.3417 17.8549 28.3146 17.8976C28.2604 17.9828 28.1814 18.1072 28.082 18.2634C27.8833 18.576 27.6033 19.0165 27.2779 19.5279C26.6273 20.5508 25.7953 21.858 25.0702 22.9947L23.384 21.9191ZM27.5541 17.2298C27.997 16.3332 27.9975 16.3334 27.998 16.3337C27.9982 16.3338 27.9987 16.334 27.999 16.3342C27.9998 16.3346 28.0005 16.335 28.0013 16.3354C28.0029 16.3362 28.0047 16.337 28.0065 16.338C28.0103 16.3399 28.0146 16.3421 28.0194 16.3446C28.0291 16.3496 28.041 16.3558 28.0549 16.3633C28.0827 16.3783 28.1187 16.3985 28.1619 16.424C28.2483 16.4752 28.3639 16.5482 28.5007 16.6461C28.774 16.8417 29.1336 17.1372 29.5144 17.5551C30.2809 18.3964 31.1173 19.7165 31.5172 21.6686L29.5579 22.07C29.2362 20.4997 28.5809 19.5001 28.036 18.9022C27.7612 18.6005 27.5102 18.3966 27.337 18.2727C27.2504 18.2107 27.1836 18.169 27.1435 18.1453C27.1235 18.1335 27.1102 18.1261 27.1045 18.1231C27.1017 18.1215 27.1007 18.1211 27.1018 18.1216C27.1024 18.1219 27.1034 18.1225 27.105 18.1233C27.1058 18.1236 27.1067 18.1241 27.1077 18.1246C27.1083 18.1249 27.1088 18.1252 27.1094 18.1255C27.1097 18.1256 27.1102 18.1258 27.1103 18.1259C27.1108 18.1262 27.1113 18.1264 27.5541 17.2298ZM31.5174 21.6695C31.9347 23.7163 31.4094 25.3818 30.786 26.5203C30.4758 27.0868 30.1398 27.5267 29.8784 27.828C29.7473 27.9792 29.6337 28.097 29.5496 28.1798C29.5074 28.2213 29.4726 28.2542 29.4464 28.2783C29.4333 28.2903 29.4224 28.3002 29.4138 28.3078C29.4095 28.3116 29.4058 28.3149 29.4027 28.3176C29.4012 28.319 29.3998 28.3202 29.3985 28.3213C29.3979 28.3218 29.3973 28.3223 29.3968 28.3228C29.3965 28.323 29.3961 28.3234 29.396 28.3235C29.3956 28.3238 29.3953 28.3241 28.7413 27.5676C28.0872 26.8111 28.0869 26.8114 28.0866 26.8117C28.0865 26.8118 28.0862 26.8121 28.086 26.8123C28.0856 26.8126 28.0852 26.8129 28.0849 26.8132C28.0843 26.8137 28.0838 26.8142 28.0834 26.8145C28.0828 26.8151 28.0827 26.8152 28.0831 26.8148C28.084 26.814 28.0871 26.8112 28.0923 26.8064C28.1026 26.7969 28.121 26.7797 28.1463 26.7548C28.1968 26.705 28.2741 26.6254 28.3675 26.5176C28.5553 26.3012 28.8031 25.9773 29.0318 25.5597C29.4861 24.73 29.8589 23.5464 29.5577 22.069L31.5174 21.6695Z" fill="#248725" mask="url(#path-1-inside-1_153_1440)"/>
<mask id="path-3-inside-2_153_1440" fill="white">
<path d="M28.6958 31.5879C28.6958 31.5879 28.0903 27.6109 32.4031 24.9598C36.7159 22.3072 37.9486 21.8244 37.9486 21.8244C37.9486 21.8244 40.2059 24.1145 36.7159 27.4906C33.2228 30.8648 28.6958 31.5879 28.6958 31.5879Z"/>
</mask>
<path d="M28.6958 31.5879C28.6958 31.5879 28.0903 27.6109 32.4031 24.9598C36.7159 22.3072 37.9486 21.8244 37.9486 21.8244C37.9486 21.8244 40.2059 24.1145 36.7159 27.4906C33.2228 30.8648 28.6958 31.5879 28.6958 31.5879Z" fill="#C1E8A3"/>
<path d="M32.4031 24.9598L32.927 25.8116L32.9267 25.8118L32.4031 24.9598ZM37.9486 21.8244L37.5839 20.8932L38.1979 20.6528L38.6608 21.1224L37.9486 21.8244ZM36.7159 27.4906L37.4112 28.2094L37.4107 28.2099L36.7159 27.4906ZM28.6958 31.5879C27.7071 31.7384 27.7071 31.7378 27.707 31.7372C27.7069 31.737 27.7068 31.7364 27.7068 31.736C27.7067 31.7351 27.7065 31.7342 27.7064 31.7332C27.7061 31.7312 27.7057 31.7289 27.7054 31.7264C27.7047 31.7215 27.7038 31.7155 27.7029 31.7086C27.7011 31.6947 27.6988 31.6769 27.6964 31.6554C27.6915 31.6125 27.6858 31.5546 27.6807 31.483C27.6705 31.3401 27.6626 31.1419 27.6689 30.8994C27.6813 30.4154 27.7499 29.7476 27.9723 28.9873C28.4227 27.4473 29.4919 25.5755 31.8794 24.1079L32.9267 25.8118C31.0015 26.9952 30.2169 28.4374 29.8919 29.5487C29.7266 30.114 29.677 30.6062 29.6682 30.9507C29.6638 31.1225 29.6696 31.2557 29.6756 31.3406C29.6787 31.383 29.6817 31.4131 29.6836 31.4297C29.6846 31.438 29.6852 31.4429 29.6854 31.4442C29.6855 31.4449 29.6854 31.4447 29.6853 31.4435C29.6852 31.443 29.6851 31.4422 29.6849 31.4412C29.6849 31.4406 29.6848 31.4401 29.6847 31.4394C29.6846 31.4391 29.6846 31.4386 29.6845 31.4385C29.6844 31.4379 29.6844 31.4374 28.6958 31.5879ZM31.8792 24.1081C34.0478 22.7742 35.4524 21.9795 36.3222 21.5152C36.7574 21.2829 37.0606 21.1323 37.2603 21.0376C37.3603 20.9902 37.4347 20.9567 37.4873 20.9338C37.5136 20.9223 37.5345 20.9134 37.5504 20.9068C37.5584 20.9035 37.5651 20.9008 37.5707 20.8985C37.5735 20.8974 37.5759 20.8964 37.5782 20.8955C37.5793 20.8951 37.5803 20.8947 37.5812 20.8943C37.5817 20.8941 37.5822 20.8939 37.5826 20.8937C37.5829 20.8937 37.5832 20.8935 37.5833 20.8935C37.5836 20.8934 37.5839 20.8932 37.9486 21.8244C38.3133 22.7555 38.3136 22.7554 38.3139 22.7553C38.314 22.7552 38.3143 22.7551 38.3145 22.755C38.3148 22.7549 38.3152 22.7548 38.3155 22.7546C38.3162 22.7544 38.3167 22.7541 38.3172 22.754C38.3182 22.7536 38.3189 22.7533 38.3192 22.7532C38.3198 22.7529 38.3191 22.7532 38.317 22.7541C38.3128 22.7558 38.303 22.7599 38.2871 22.7669C38.2554 22.7807 38.1999 22.8056 38.1169 22.8449C37.9507 22.9237 37.6761 23.0596 37.2641 23.2795C36.4393 23.7198 35.0711 24.4928 32.927 25.8116L31.8792 24.1081ZM37.9486 21.8244C38.6608 21.1224 38.6613 21.1229 38.6618 21.1235C38.662 21.1237 38.6626 21.1242 38.663 21.1246C38.6637 21.1254 38.6645 21.1262 38.6654 21.1271C38.667 21.1288 38.6688 21.1306 38.6708 21.1326C38.6747 21.1367 38.6791 21.1413 38.684 21.1466C38.6939 21.1572 38.7059 21.1702 38.7197 21.1856C38.7472 21.2165 38.7821 21.2574 38.8222 21.3079C38.9021 21.4086 39.0039 21.5496 39.109 21.7285C39.3187 22.0854 39.548 22.6051 39.6328 23.2637C39.8099 24.6387 39.3295 26.3536 37.4112 28.2094L36.0206 26.7719C37.5923 25.2515 37.7283 24.1333 37.6492 23.5192C37.6059 23.1833 37.4891 22.9194 37.3845 22.7414C37.3325 22.6529 37.2852 22.5885 37.2554 22.5509C37.2405 22.5322 37.2303 22.5205 37.2265 22.5162C37.2246 22.5141 37.2243 22.5138 37.2259 22.5155C37.2267 22.5163 37.2279 22.5176 37.2297 22.5195C37.2305 22.5204 37.2315 22.5214 37.2327 22.5225C37.2332 22.5231 37.2338 22.5237 37.2344 22.5244C37.2348 22.5247 37.2352 22.5252 37.2354 22.5253C37.2359 22.5259 37.2364 22.5264 37.9486 21.8244ZM37.4107 28.2099C35.5382 30.0186 33.4033 31.1046 31.7546 31.738C30.9271 32.0559 30.213 32.2633 29.7017 32.392C29.4458 32.4564 29.2398 32.5012 29.095 32.5305C29.0225 32.5451 28.9652 32.5558 28.9246 32.5631C28.9042 32.5668 28.888 32.5696 28.8761 32.5716C28.8702 32.5726 28.8653 32.5734 28.8615 32.5741C28.8596 32.5744 28.858 32.5746 28.8567 32.5749C28.856 32.575 28.8554 32.5751 28.8549 32.5752C28.8546 32.5752 28.8543 32.5752 28.8541 32.5753C28.8538 32.5753 28.8535 32.5754 28.6958 31.5879C28.538 30.6004 28.5378 30.6005 28.5375 30.6005C28.5374 30.6005 28.5372 30.6005 28.5371 30.6006C28.5368 30.6006 28.5366 30.6006 28.5365 30.6007C28.5363 30.6007 28.5363 30.6007 28.5366 30.6006C28.5372 30.6005 28.5389 30.6003 28.5416 30.5998C28.547 30.5989 28.5567 30.5972 28.5703 30.5948C28.5977 30.5898 28.6411 30.5817 28.6992 30.57C28.8156 30.5465 28.9906 30.5085 29.2137 30.4524C29.6604 30.34 30.2964 30.1557 31.0373 29.8711C32.5253 29.2994 34.4006 28.3368 36.0212 26.7714L37.4107 28.2099Z" fill="#C1E8A3" mask="url(#path-3-inside-2_153_1440)"/>
<path d="M27.4993 33.276C27.4463 33.2634 27.3899 33.2497 27.3303 33.2347C26.8676 33.1183 26.2123 32.9284 25.4498 32.6355C23.9219 32.0485 21.9819 31.0549 20.2977 29.4277L27.4993 33.276ZM27.4993 33.276C27.4991 33.2624 27.4988 33.2484 27.4985 33.2343C27.4893 32.8549 27.4357 32.3188 27.2567 31.7047C26.9017 30.4863 26.0474 28.9366 24.0059 27.6819C21.8533 26.359 20.4755 25.5809 19.6395 25.135C19.3015 24.9546 19.0527 24.829 18.8776 24.7438C18.8693 24.7574 18.8608 24.7714 18.8523 24.7859C18.7212 25.0087 18.5758 25.3365 18.5218 25.7531C18.4176 26.5571 18.6388 27.8241 20.2976 29.4276L27.4993 33.276Z" fill="#C1E8A3" stroke="#C1E8A3"/>
<path d="M30.5338 64.7472C29.3077 66.1121 29.4702 67.9149 30.2051 69.5248C30.9326 71.2243 31.2908 72.9653 31.3314 74.6916C31.3647 78.1419 30.9547 81.5639 30.7701 85C30.6482 81.5675 30.7479 78.1256 30.4082 74.7092C30.2125 73.005 29.7102 71.3221 28.8535 69.6772C27.9967 67.9857 27.4465 66.1738 28.8978 64.3243L30.5338 64.7472Z" fill="#9DB3A7"/>
<path d="M28.301 65.1099C27.6992 66.6372 27.2639 68.233 27.0974 69.8142C26.9572 71.3923 27.0039 73.0187 28.1199 74.4314C29.1803 75.8903 30.4482 77.39 30.6176 79.0495C30.8426 80.6665 30.419 82.3147 31.3333 83.8513C30.2992 82.3438 30.5943 80.6468 30.2554 79.0727C29.972 77.4769 28.6428 76.0654 27.4626 74.6308C26.1538 73.1415 25.9785 71.41 26.0019 69.7887C26.0545 68.1406 26.3671 66.5248 26.8812 64.8986L28.301 65.1099Z" fill="#9DB3A7"/>
<path d="M30.3861 69.2229C30.7436 69.188 30.6668 69.1317 30.6432 69.1742L30.5102 69.3183L30.2591 69.7343L29.8632 70.6922C29.5943 71.3434 29.3284 71.9849 29.1659 72.6259C29.095 72.9388 29.0182 73.2915 29.0004 73.5831C28.9679 73.8521 29.16 74.1595 29.2604 74.5054C29.3609 74.8079 29.5796 75.138 29.6091 75.5299C29.5943 75.9792 29.3845 76.2236 29.2959 76.5695C28.8468 77.8677 28.5838 79.1941 28.5247 80.5253C28.4922 81.1916 28.5159 81.8586 28.6075 82.5228C28.7641 83.1624 28.7315 83.9036 29.4022 84.4257C28.6724 83.9194 28.6459 83.1747 28.4302 82.5353C28.2766 81.8697 28.1938 81.1985 28.1643 80.5253C28.1052 79.1797 28.2499 77.8306 28.5897 76.4961C28.6459 76.1797 28.8439 75.7809 28.8025 75.558C28.7611 75.2801 28.5425 74.9802 28.3829 74.6322C28.2736 74.3229 28.0195 73.9961 28.0018 73.5921C27.9899 73.2125 28.0402 72.8996 28.0815 72.5469C28.1879 71.86 28.4036 71.1911 28.6045 70.5336L28.9207 69.5291C28.9916 69.3547 29.0713 69.1778 29.1895 68.9931L29.4377 68.6926C29.5707 68.6012 29.6977 68.3996 30.3448 68.3446L30.3861 69.2229Z" fill="#BCCCC3"/>
<path d="M30.4888 64.9065C30.4344 65.5944 30.6169 66.2227 31.0814 66.8708C31.5523 67.524 32.0745 68.3139 31.9912 69.1218C31.4786 70.6103 31.4338 72.1031 29.7841 73.4299C29.3356 73.7371 29.0665 73.9782 28.7077 74.283C28.397 74.6121 28.067 74.9171 27.8076 75.2361C27.2726 75.861 27.1477 76.5872 27.0804 77.3019C26.949 78.0339 27.1989 78.7203 27.2438 79.4734C27.2213 79.8528 26.9907 80.1939 26.8626 80.5485C26.7921 80.7266 26.6992 80.9038 26.7345 81.0804C26.7729 81.2583 26.9843 81.4087 27.1669 81.5541C26.9715 81.4145 26.7472 81.2725 26.6832 81.0839C26.6319 80.8989 26.712 80.7152 26.76 80.5372C26.8594 80.1798 27.058 79.8238 27.042 79.4719C26.9395 78.775 26.6127 78.0303 26.68 77.2985C26.68 76.5723 26.7344 75.81 27.2534 75.0987C27.5 74.7497 27.814 74.4249 28.0799 74.1051C28.3938 73.7944 28.807 73.415 29.1497 73.1505C30.4439 72.0322 30.46 70.4451 30.7899 69.1111C30.7899 68.4466 30.3383 67.8452 29.7873 67.1773C29.2107 66.495 28.8807 65.6653 28.8871 64.8987L30.4888 64.9065Z" fill="#B3C9BC"/>
<path d="M27.0131 66.1131C27.0131 66.1131 26.2336 42.1537 27.0131 34.1839C27.2301 31.9464 28.7562 25.2702 28.7562 25.2702C28.7562 25.2702 28.7529 32.1612 28.7562 34.4575C28.7628 41.582 28.8154 62.9527 28.8154 62.9527C28.8154 62.9527 30.7953 68.2517 27.0131 66.1131Z" fill="#385B48"/>
<mask id="path-11-inside-3_153_1440" fill="white">
<path d="M20.7608 36.1825C20.4698 36.4272 18.4078 39.4082 19.8273 41.4794C21.2436 43.5532 23.5742 43.6487 23.5742 43.6487C23.5742 43.6487 25.8889 43.5581 25.208 40.2404C24.5302 36.9197 20.7608 36.1825 20.7608 36.1825Z"/>
</mask>
<path d="M20.7608 36.1825C20.4698 36.4272 18.4078 39.4082 19.8273 41.4794C21.2436 43.5532 23.5742 43.6487 23.5742 43.6487C23.5742 43.6487 25.8889 43.5581 25.208 40.2404C24.5302 36.9197 20.7608 36.1825 20.7608 36.1825Z" fill="#248725"/>
<path d="M19.8273 41.4794L20.6521 40.914L20.6531 40.9154L19.8273 41.4794ZM23.5742 43.6487L23.6133 44.6479L23.5733 44.6495L23.5333 44.6478L23.5742 43.6487ZM25.208 40.2404L24.2284 40.4414L24.2282 40.4403L25.208 40.2404ZM21.4045 36.9477C21.4651 36.8967 21.4609 36.8857 21.3799 36.9941C21.3188 37.0758 21.237 37.1946 21.1453 37.3444C20.9611 37.6452 20.7528 38.0445 20.5929 38.4863C20.2575 39.4131 20.2164 40.2783 20.6521 40.914L19.0024 42.0447C18.0186 40.6093 18.2988 38.9483 18.7123 37.8057C18.9269 37.2128 19.1999 36.6915 19.4398 36.2998C19.5601 36.1033 19.6761 35.9329 19.7779 35.7967C19.8599 35.6871 19.9837 35.5294 20.1171 35.4172L21.4045 36.9477ZM20.6531 40.9154C21.2149 41.7381 21.9587 42.1728 22.581 42.4047C22.8922 42.5206 23.166 42.5829 23.3573 42.6158C23.4524 42.6322 23.5257 42.641 23.571 42.6455C23.5936 42.6478 23.6091 42.649 23.6167 42.6495C23.6206 42.6498 23.6224 42.6499 23.6222 42.6498C23.6221 42.6498 23.6214 42.6498 23.6203 42.6497C23.6197 42.6497 23.619 42.6497 23.6181 42.6496C23.6177 42.6496 23.6172 42.6496 23.6167 42.6496C23.6165 42.6496 23.6161 42.6496 23.616 42.6496C23.6156 42.6495 23.6151 42.6495 23.5742 43.6487C23.5333 44.6478 23.5329 44.6478 23.5324 44.6478C23.5323 44.6478 23.5318 44.6478 23.5315 44.6478C23.5309 44.6477 23.5302 44.6477 23.5295 44.6477C23.5281 44.6476 23.5265 44.6475 23.5248 44.6475C23.5214 44.6473 23.5174 44.6471 23.5128 44.6468C23.5037 44.6463 23.4922 44.6457 23.4787 44.6447C23.4515 44.6428 23.4155 44.6399 23.3716 44.6356C23.284 44.6268 23.164 44.6119 23.0186 44.5869C22.7286 44.5371 22.3312 44.4459 21.8827 44.2788C20.9856 43.9445 19.8559 43.2945 19.0015 42.0433L20.6531 40.9154ZM23.5742 43.6487C23.5351 42.6494 23.5344 42.6495 23.5337 42.6495C23.5335 42.6495 23.5328 42.6495 23.5324 42.6496C23.5315 42.6496 23.5307 42.6496 23.5299 42.6497C23.5282 42.6497 23.5267 42.6498 23.5253 42.6499C23.5226 42.65 23.5203 42.6502 23.5184 42.6503C23.5147 42.6505 23.5129 42.6507 23.5126 42.6507C23.5122 42.6507 23.5181 42.6502 23.5293 42.6486C23.5521 42.6453 23.5932 42.6379 23.6446 42.6229C23.7508 42.5918 23.8751 42.5361 23.9832 42.4402C24.1317 42.3087 24.5205 41.8648 24.2284 40.4414L26.1875 40.0393C26.5763 41.9336 26.1483 43.1939 25.3097 43.9371C24.9243 44.2786 24.5125 44.4529 24.2059 44.5425C24.051 44.5878 23.9165 44.6134 23.8154 44.628C23.7646 44.6354 23.7215 44.64 23.6875 44.643C23.6705 44.6445 23.6557 44.6456 23.6433 44.6464C23.6371 44.6468 23.6314 44.6471 23.6264 44.6473C23.624 44.6475 23.6216 44.6476 23.6194 44.6477C23.6183 44.6477 23.6173 44.6478 23.6162 44.6478C23.6157 44.6478 23.615 44.6478 23.6148 44.6479C23.614 44.6479 23.6133 44.6479 23.5742 43.6487ZM24.2282 40.4403C23.9662 39.1571 23.1098 38.3455 22.2262 37.8298C21.7867 37.5734 21.361 37.4036 21.0449 37.2985C20.8879 37.2463 20.761 37.2111 20.6768 37.1896C20.6348 37.1788 20.6036 37.1716 20.5851 37.1675C20.5758 37.1654 20.5696 37.1641 20.5669 37.1635C20.5655 37.1632 20.5649 37.1631 20.5652 37.1632C20.5654 37.1632 20.5658 37.1633 20.5664 37.1634C20.5667 37.1634 20.567 37.1635 20.5674 37.1636C20.5676 37.1636 20.568 37.1637 20.5681 37.1637C20.5685 37.1638 20.5688 37.1639 20.7608 36.1825C20.9527 35.2011 20.9531 35.2011 20.9536 35.2012C20.9537 35.2013 20.9541 35.2013 20.9545 35.2014C20.9551 35.2015 20.9558 35.2017 20.9566 35.2018C20.9581 35.2021 20.9598 35.2025 20.9618 35.2029C20.9657 35.2037 20.9706 35.2047 20.9764 35.2059C20.9879 35.2083 21.003 35.2115 21.0215 35.2157C21.0585 35.2239 21.109 35.2358 21.1714 35.2517C21.296 35.2835 21.4688 35.3318 21.6758 35.4006C22.0876 35.5375 22.6467 35.7596 23.2342 36.1025C24.4047 36.7856 25.7719 38.003 26.1878 40.0404L24.2282 40.4403Z" fill="#248725" mask="url(#path-11-inside-3_153_1440)"/>
<path d="M19.295 44.1824L19.2953 44.1824C21.8714 44.3267 22.9278 44.6771 23.3335 44.9245C23.3549 44.9375 23.3738 44.9498 23.3905 44.9614C23.2877 45.0357 23.1393 45.129 22.9332 45.2296C22.3649 45.5073 21.3547 45.8424 19.6515 45.9853L19.295 44.1824ZM19.295 44.1824C16.7698 44.0395 15.0002 44.3745 13.8759 44.7336C13.6088 44.819 13.3776 44.9058 13.1809 44.9882M19.295 44.1824L13.1809 44.9882M13.1809 44.9882C13.6062 45.1356 14.1482 45.3047 14.7655 45.4628C16.1884 45.8272 17.9779 46.1245 19.6514 45.9853L13.1809 44.9882ZM23.5115 45.0729C23.5115 45.0729 23.5112 45.072 23.5102 45.0704C23.5109 45.0721 23.5114 45.0729 23.5115 45.0729Z" fill="#248725" stroke="#248725"/>
<mask id="path-14-inside-4_153_1440" fill="white">
<path d="M8.01499 35.038C7.91235 35.39 8.26067 39.2348 11.486 41.1062C14.7083 42.9766 17.2307 42.4237 17.2307 42.4237C17.2307 42.4237 19.5759 41.672 16.0768 38.2289C12.5778 34.7838 8.01499 35.038 8.01499 35.038Z"/>
</mask>
<path d="M8.01499 35.038C7.91235 35.39 8.26067 39.2348 11.486 41.1062C14.7083 42.9766 17.2307 42.4237 17.2307 42.4237C17.2307 42.4237 19.5759 41.672 16.0768 38.2289C12.5778 34.7838 8.01499 35.038 8.01499 35.038Z" fill="#C1E8A3"/>
<path d="M11.486 41.1062L11.9879 40.2412L11.9881 40.2413L11.486 41.1062ZM17.2307 42.4237L17.536 43.3759L17.491 43.3903L17.4449 43.4005L17.2307 42.4237ZM16.0768 38.2289L15.3754 38.9417L15.3752 38.9415L16.0768 38.2289ZM8.97502 35.3179C9.00284 35.2225 9.00192 35.1614 9.00047 35.1915C8.99999 35.2017 8.99938 35.2307 9.00149 35.281C9.00567 35.3802 9.01905 35.5287 9.04849 35.7171C9.10727 36.0934 9.22495 36.596 9.43565 37.1428C9.85833 38.2398 10.6292 39.4529 11.9879 40.2412L10.9842 41.9711C9.11754 40.8881 8.10154 39.243 7.56938 37.8618C7.30265 37.1696 7.15091 36.528 7.07246 36.0259C7.03327 35.7751 7.01108 35.5508 7.00326 35.3651C6.99938 35.2729 6.99866 35.1814 7.00277 35.0957C7.00593 35.0299 7.01431 34.8975 7.05496 34.7581L8.97502 35.3179ZM11.9881 40.2413C13.46 41.0957 14.7533 41.3868 15.6588 41.4706C16.113 41.5126 16.4716 41.5025 16.7077 41.4839C16.8256 41.4746 16.9127 41.4632 16.9654 41.4552C16.9918 41.4512 17.0095 41.448 17.0182 41.4464C17.0226 41.4456 17.0246 41.4451 17.0244 41.4452C17.0243 41.4452 17.0236 41.4454 17.0223 41.4456C17.0216 41.4458 17.0208 41.4459 17.0199 41.4461C17.0194 41.4462 17.0189 41.4464 17.0183 41.4465C17.0181 41.4465 17.0176 41.4466 17.0175 41.4467C17.0171 41.4468 17.0166 41.4469 17.2307 42.4237C17.4449 43.4005 17.4444 43.4006 17.4439 43.4007C17.4437 43.4007 17.4432 43.4008 17.4429 43.4009C17.4422 43.401 17.4415 43.4012 17.4407 43.4014C17.4391 43.4017 17.4374 43.4021 17.4355 43.4025C17.4318 43.4033 17.4274 43.4042 17.4224 43.4052C17.4124 43.4072 17.3999 43.4097 17.385 43.4124C17.3552 43.418 17.3156 43.4249 17.2667 43.4324C17.1689 43.4473 17.0337 43.4644 16.8649 43.4777C16.5273 43.5044 16.0538 43.5156 15.4746 43.4621C14.3133 43.3547 12.7343 42.987 10.984 41.971L11.9881 40.2413ZM17.2307 42.4237C16.9255 41.4714 16.9247 41.4716 16.9239 41.4719C16.9236 41.472 16.9228 41.4722 16.9223 41.4724C16.9213 41.4727 16.9203 41.4731 16.9193 41.4734C16.9174 41.474 16.9155 41.4746 16.9138 41.4752C16.9103 41.4764 16.9073 41.4774 16.9048 41.4783C16.8996 41.4801 16.896 41.4815 16.8939 41.4823C16.8896 41.484 16.8904 41.4838 16.8948 41.4817C16.9047 41.477 16.9227 41.4673 16.9413 41.4533C16.9774 41.4261 16.9881 41.4065 16.9937 41.3833C17.007 41.3281 17.0981 40.6368 15.3754 38.9417L16.7782 37.5161C18.5546 39.2641 19.2227 40.6702 18.9381 41.8516C18.7948 42.4467 18.4379 42.8302 18.1437 43.0515C17.9971 43.1618 17.8592 43.2377 17.7546 43.2875C17.7016 43.3127 17.6554 43.3321 17.6186 43.3464C17.6001 43.3536 17.5838 43.3596 17.57 43.3645C17.563 43.3669 17.5567 43.3691 17.551 43.371C17.5482 43.3719 17.5455 43.3728 17.543 43.3736C17.5418 43.3741 17.5405 43.3745 17.5394 43.3748C17.5388 43.375 17.5379 43.3753 17.5376 43.3754C17.5368 43.3757 17.536 43.3759 17.2307 42.4237ZM15.3752 38.9415C13.7926 37.3833 11.9618 36.6539 10.5072 36.3155C9.78138 36.1467 9.1578 36.0774 8.72053 36.0502C8.50231 36.0366 8.33175 36.0336 8.21956 36.0338C8.16351 36.0339 8.12216 36.0348 8.09685 36.0355C8.0842 36.0359 8.07558 36.0362 8.07114 36.0364C8.06893 36.0365 8.06776 36.0366 8.06766 36.0366C8.06762 36.0366 8.06784 36.0366 8.06833 36.0366C8.06857 36.0366 8.06888 36.0365 8.06927 36.0365C8.06946 36.0365 8.06979 36.0365 8.06989 36.0365C8.07024 36.0365 8.07061 36.0364 8.01499 35.038C7.95937 34.0395 7.95977 34.0395 7.9602 34.0395C7.96036 34.0395 7.9608 34.0395 7.96113 34.0394C7.96179 34.0394 7.96252 34.0394 7.96332 34.0393C7.96492 34.0392 7.9668 34.0391 7.96895 34.039C7.97327 34.0388 7.9787 34.0386 7.98523 34.0383C7.99827 34.0377 8.0157 34.0371 8.03732 34.0364C8.08056 34.0351 8.14065 34.0339 8.2162 34.0338C8.36721 34.0335 8.58045 34.0376 8.84466 34.054C9.37225 34.0868 10.1081 34.1693 10.9603 34.3675C12.6618 34.7633 14.862 35.6294 16.7784 37.5163L15.3752 38.9415Z" fill="#C1E8A3" mask="url(#path-14-inside-4_153_1440)"/>
<path d="M16.6667 42.041C16.6667 42.041 20.488 43.8342 22.9456 44.7431C25.4062 45.652 27.3333 52.8379 27.3333 52.8379L27.1235 47.9991C27.1235 47.9991 25.2114 45.1254 23.9886 44.6539C22.7628 44.1851 21.8127 40.2028 21.8127 40.2028L22.6609 44.3438L16.6667 42.041Z" fill="#207921"/>
<mask id="path-17-inside-5_153_1440" fill="white">
<path d="M36.5049 38.4798C36.8431 38.7887 39.1312 42.5249 37.2931 45.0618C35.455 47.5986 32.6434 47.6689 32.6434 47.6689C32.6434 47.6689 29.8642 47.5075 30.8965 43.4114C31.9229 39.3133 36.5049 38.4798 36.5049 38.4798Z"/>
</mask>
<path d="M36.5049 38.4798C36.8431 38.7887 39.1312 42.5249 37.2931 45.0618C35.455 47.5986 32.6434 47.6689 32.6434 47.6689C32.6434 47.6689 29.8642 47.5075 30.8965 43.4114C31.9229 39.3133 36.5049 38.4798 36.5049 38.4798Z" fill="#C1E8A3"/>
<path d="M32.6434 47.6689L32.6684 48.6686L32.6269 48.6697L32.5854 48.6673L32.6434 47.6689ZM30.8965 43.4114L31.8666 43.6544L31.8662 43.6558L30.8965 43.4114ZM37.1794 37.7414C37.3204 37.8703 37.4515 38.055 37.5427 38.1916C37.6536 38.3576 37.7798 38.5663 37.9097 38.8077C38.1689 39.2891 38.4582 39.9276 38.6734 40.6496C39.0927 42.0561 39.2924 44.0068 38.1029 45.6485L36.4833 44.475C37.1319 43.5799 37.1065 42.3941 36.7568 41.221C36.5875 40.6532 36.3562 40.1411 36.1488 39.7559C36.0454 39.5639 35.9516 39.4102 35.8798 39.3028C35.7884 39.166 35.774 39.1665 35.8305 39.2181L37.1794 37.7414ZM38.1029 45.6485C37.0379 47.1184 35.6886 47.8733 34.6167 48.2579C34.0814 48.45 33.6103 48.5519 33.2677 48.606C33.0959 48.6332 32.9551 48.6486 32.853 48.6573C32.8019 48.6617 32.7603 48.6644 32.7293 48.6661C32.7138 48.6669 32.7008 48.6675 32.6907 48.6679C32.6856 48.6681 32.6812 48.6683 32.6775 48.6684C32.6756 48.6684 32.6739 48.6685 32.6724 48.6685C32.6717 48.6685 32.671 48.6686 32.6703 48.6686C32.67 48.6686 32.6695 48.6686 32.6693 48.6686C32.6689 48.6686 32.6684 48.6686 32.6434 47.6689C32.6184 46.6693 32.618 46.6693 32.6176 46.6693C32.6175 46.6693 32.6171 46.6693 32.6168 46.6693C32.6163 46.6693 32.6159 46.6693 32.6155 46.6693C32.6146 46.6694 32.614 46.6694 32.6135 46.6694C32.6125 46.6694 32.6121 46.6694 32.6124 46.6694C32.613 46.6694 32.6161 46.6693 32.6216 46.669C32.6327 46.6684 32.6533 46.6671 32.6827 46.6646C32.7415 46.6596 32.8347 46.6497 32.9552 46.6306C33.1972 46.5923 33.5439 46.518 33.9412 46.3754C34.7347 46.0907 35.7102 45.542 36.4833 44.475L38.1029 45.6485ZM32.6434 47.6689C32.5854 48.6673 32.5847 48.6672 32.584 48.6672C32.5837 48.6672 32.5829 48.6671 32.5824 48.6671C32.5813 48.667 32.5802 48.6669 32.5791 48.6669C32.5768 48.6667 32.5743 48.6666 32.5716 48.6664C32.5663 48.666 32.5602 48.6655 32.5534 48.665C32.5399 48.6639 32.5235 48.6624 32.5045 48.6603C32.4667 48.6562 32.418 48.6499 32.3605 48.6402C32.2461 48.621 32.0931 48.588 31.9173 48.5311C31.5686 48.4182 31.1054 48.2029 30.6843 47.7918C29.7795 46.9083 29.3568 45.4288 29.9268 43.1671L31.8662 43.6558C31.4039 45.4902 31.8548 46.1394 32.0815 46.3607C32.2261 46.5019 32.3932 46.583 32.5333 46.6283C32.602 46.6506 32.658 46.6622 32.6915 46.6678C32.708 46.6706 32.7181 46.6717 32.7204 46.672C32.7215 46.6721 32.7206 46.672 32.7175 46.6717C32.716 46.6716 32.7139 46.6714 32.7112 46.6713C32.7099 46.6712 32.7084 46.6711 32.7068 46.671C32.7059 46.6709 32.7051 46.6708 32.7042 46.6708C32.7037 46.6708 32.703 46.6707 32.7028 46.6707C32.7021 46.6707 32.7014 46.6706 32.6434 47.6689ZM29.9265 43.1685C30.5286 40.7641 32.1754 39.3405 33.5932 38.5384C34.3038 38.1364 34.975 37.8789 35.469 37.7213C35.717 37.6422 35.9231 37.5874 36.0709 37.5516C36.1449 37.5337 36.2044 37.5206 36.2476 37.5115C36.2691 37.507 36.2866 37.5034 36.2998 37.5009C36.3063 37.4996 36.3118 37.4985 36.3162 37.4977C36.3184 37.4973 36.3203 37.4969 36.3219 37.4966C36.3227 37.4965 36.3235 37.4964 36.3242 37.4962C36.3245 37.4962 36.3249 37.4961 36.3251 37.4961C36.3255 37.496 36.326 37.4959 36.5049 38.4798C36.6839 39.4636 36.6843 39.4635 36.6846 39.4635C36.6847 39.4635 36.6851 39.4634 36.6853 39.4634C36.6857 39.4633 36.686 39.4632 36.6863 39.4632C36.6868 39.4631 36.687 39.463 36.687 39.463C36.687 39.463 36.6859 39.4633 36.6837 39.4637C36.6795 39.4645 36.6711 39.4662 36.6589 39.4687C36.6344 39.4739 36.5945 39.4826 36.5412 39.4955C36.4343 39.5214 36.2745 39.5637 36.0769 39.6267C35.6797 39.7535 35.1413 39.9605 34.578 40.2791C33.4482 40.9183 32.2908 41.9605 31.8666 43.6544L29.9265 43.1685Z" fill="#C1E8A3" mask="url(#path-17-inside-5_153_1440)"/>
<mask id="path-19-inside-6_153_1440" fill="white">
<path d="M48 50.3608C47.6041 50.616 42.2917 52.6779 37.6372 52.1888C32.9857 51.6954 32.013 50.1411 32.013 50.1411C32.013 50.1411 31.4145 48.5578 38.3324 48.2677C45.2472 47.9783 48 50.3608 48 50.3608Z"/>
</mask>
<path d="M48 50.3608C47.6041 50.616 42.2917 52.6779 37.6372 52.1888C32.9857 51.6954 32.013 50.1411 32.013 50.1411C32.013 50.1411 31.4145 48.5578 38.3324 48.2677C45.2472 47.9783 48 50.3608 48 50.3608Z" fill="#C1E8A3"/>
<path d="M37.6372 52.1888L37.5327 53.1833L37.5317 53.1832L37.6372 52.1888ZM32.013 50.1411L31.1653 50.6717L31.1127 50.5876L31.0776 50.4948L32.013 50.1411ZM38.3324 48.2677L38.2905 47.2685L38.2906 47.2685L38.3324 48.2677ZM48.5417 51.2014C48.4046 51.2898 48.1946 51.3819 48.0155 51.4562C47.8039 51.5441 47.5287 51.65 47.2017 51.7657C46.5475 51.9971 45.6699 52.273 44.6564 52.5245C42.6446 53.0237 40.0245 53.4452 37.5327 53.1833L37.7417 51.1943C39.9044 51.4215 42.2677 51.0566 44.1747 50.5834C45.1206 50.3486 45.9363 50.0918 46.5349 49.8801C46.8344 49.7742 47.0755 49.681 47.2484 49.6092C47.4538 49.5239 47.4964 49.4957 47.4583 49.5203L48.5417 51.2014ZM37.5317 53.1832C35.1059 52.9259 33.5664 52.3844 32.6016 51.8576C32.1187 51.594 31.7825 51.3354 31.5542 51.1217C31.4404 51.0151 31.3543 50.9206 31.291 50.8434C31.2594 50.8049 31.2335 50.7708 31.2128 50.742C31.2024 50.7275 31.1933 50.7144 31.1854 50.7026C31.1815 50.6967 31.1779 50.6912 31.1745 50.6861C31.1728 50.6835 31.1712 50.681 31.1697 50.6786C31.169 50.6774 31.1682 50.6762 31.1675 50.675C31.1671 50.6745 31.1666 50.6736 31.1664 50.6733C31.1659 50.6725 31.1653 50.6717 32.013 50.1411C32.8607 49.6106 32.8602 49.6098 32.8597 49.609C32.8595 49.6087 32.859 49.6079 32.8587 49.6074C32.858 49.6063 32.8573 49.6053 32.8567 49.6043C32.8554 49.6022 32.8542 49.6003 32.853 49.5985C32.8506 49.5948 32.8484 49.5915 32.8465 49.5886C32.8426 49.5828 32.8395 49.5784 32.8374 49.5755C32.8332 49.5696 32.8327 49.5694 32.8368 49.5744C32.8448 49.5841 32.8711 49.6149 32.9211 49.6617C33.0206 49.7549 33.2183 49.9157 33.56 50.1022C34.2444 50.4759 35.517 50.9583 37.7427 51.1944L37.5317 53.1832ZM32.013 50.1411C31.0776 50.4948 31.077 50.493 31.0763 50.4912C31.0761 50.4906 31.0754 50.4888 31.0749 50.4875C31.074 50.4851 31.0731 50.4826 31.0722 50.4801C31.0704 50.475 31.0685 50.4697 31.0667 50.4643C31.063 50.4535 31.0592 50.442 31.0555 50.4298C31.048 50.4054 31.0405 50.3782 31.0336 50.3484C31.0199 50.2887 31.0082 50.2179 31.0029 50.1375C30.9923 49.9743 31.0089 49.7789 31.0808 49.5675C31.2284 49.1328 31.5622 48.7589 32.0613 48.4573C33.0069 47.8859 34.8073 47.4146 38.2905 47.2685L38.3743 49.2668C34.9395 49.4108 33.5803 49.8763 33.0957 50.1691C32.8796 50.2996 32.9307 50.3396 32.9744 50.2109C32.9943 50.1525 33.0036 50.0831 32.9987 50.0076C32.9963 49.971 32.9907 49.9346 32.9823 49.8982C32.9781 49.88 32.9732 49.8618 32.9676 49.8434C32.9648 49.8342 32.9618 49.825 32.9586 49.8157C32.957 49.811 32.9553 49.8063 32.9536 49.8017C32.9528 49.7993 32.9519 49.797 32.9511 49.7946C32.9506 49.7934 32.95 49.7917 32.9497 49.7911C32.9491 49.7893 32.9484 49.7875 32.013 50.1411ZM38.2906 47.2685C41.8711 47.1187 44.4179 47.6594 46.0983 48.2649C46.9371 48.5672 47.5554 48.884 47.9749 49.1347C48.1845 49.26 48.3441 49.3686 48.4565 49.4504C48.5127 49.4912 48.557 49.5254 48.5899 49.5515C48.6063 49.5646 48.6199 49.5757 48.6306 49.5846C48.636 49.5891 48.6407 49.593 48.6446 49.5963C48.6466 49.598 48.6484 49.5996 48.6501 49.601C48.6509 49.6017 48.6516 49.6023 48.6524 49.6029C48.6527 49.6033 48.6533 49.6037 48.6534 49.6039C48.6539 49.6043 48.6544 49.6047 48 50.3608C47.3456 51.117 47.346 51.1174 47.3465 51.1178C47.3466 51.1179 47.3471 51.1183 47.3474 51.1185C47.3479 51.119 47.3485 51.1194 47.3489 51.1199C47.3499 51.1207 47.3507 51.1214 47.3513 51.1219C47.3526 51.123 47.3532 51.1235 47.3531 51.1234C47.353 51.1233 47.3503 51.1211 47.3449 51.1168C47.3341 51.1082 47.3125 51.0914 47.2799 51.0677C47.2148 51.0203 47.1053 50.945 46.9488 50.8514C46.636 50.6645 46.134 50.4037 45.4202 50.1465C43.9955 49.6331 41.7084 49.1272 38.3742 49.2668L38.2906 47.2685Z" fill="#C1E8A3" mask="url(#path-19-inside-6_153_1440)"/>
<mask id="path-21-inside-7_153_1440" fill="white">
<path d="M53.3233 37.3424C53.4308 37.7883 52.7332 42.6039 48.4398 44.8779C44.1495 47.1525 40.9256 46.4014 40.9256 46.4014C40.9256 46.4014 37.9414 45.4081 42.6897 41.1654C47.4379 36.9241 53.3233 37.3424 53.3233 37.3424Z"/>
</mask>
<path d="M53.3233 37.3424C53.4308 37.7883 52.7332 42.6039 48.4398 44.8779C44.1495 47.1525 40.9256 46.4014 40.9256 46.4014C40.9256 46.4014 37.9414 45.4081 42.6897 41.1654C47.4379 36.9241 53.3233 37.3424 53.3233 37.3424Z" fill="#248725"/>
<path d="M48.4398 44.8779L47.9714 43.9944L47.9718 43.9943L48.4398 44.8779ZM40.9256 46.4014L40.6987 47.3754L40.6536 47.3649L40.6098 47.3503L40.9256 46.4014ZM42.6897 41.1654L42.0234 40.4197L42.0235 40.4196L42.6897 41.1654ZM54.2954 37.1079C54.3314 37.2574 54.3336 37.4014 54.3333 37.4797C54.3329 37.5785 54.3265 37.6859 54.3158 37.7965C54.2945 38.0191 54.2527 38.2908 54.1873 38.597C54.0565 39.2099 53.8241 39.9935 53.4432 40.8364C52.6821 42.5207 51.303 44.493 48.9079 45.7616L47.9718 43.9943C49.87 42.9888 50.9864 41.4164 51.6206 40.0128C51.9374 39.3119 52.1276 38.6658 52.2314 38.1794C52.2834 37.9358 52.312 37.7404 52.325 37.6054C52.3315 37.5373 52.3332 37.4932 52.3333 37.4714C52.3335 37.4291 52.3285 37.4832 52.3512 37.577L54.2954 37.1079ZM48.9083 45.7615C46.6275 46.9706 44.6114 47.3846 43.1456 47.4901C42.414 47.5427 41.8212 47.5184 41.4024 47.4788C41.1929 47.4591 41.0267 47.4354 40.908 47.4157C40.8487 47.4058 40.8013 47.3968 40.7662 47.3898C40.7487 47.3863 40.7342 47.3832 40.723 47.3808C40.7173 47.3796 40.7125 47.3785 40.7084 47.3776C40.7064 47.3771 40.7046 47.3767 40.703 47.3764C40.7022 47.3762 40.7014 47.376 40.7007 47.3758C40.7003 47.3757 40.6998 47.3756 40.6997 47.3756C40.6992 47.3755 40.6987 47.3754 40.9256 46.4014C41.1525 45.4275 41.152 45.4274 41.1516 45.4273C41.1515 45.4273 41.151 45.4272 41.1508 45.4271C41.1503 45.427 41.1498 45.4269 41.1494 45.4268C41.1486 45.4266 41.1479 45.4265 41.1474 45.4264C41.1465 45.4262 41.1464 45.4261 41.147 45.4263C41.1482 45.4265 41.1523 45.4274 41.1595 45.4289C41.1737 45.4317 41.1997 45.4367 41.237 45.4429C41.3114 45.4553 41.4306 45.4726 41.5904 45.4877C41.9101 45.5179 42.3915 45.5392 43.0021 45.4952C44.2208 45.4076 45.9619 45.0598 47.9714 43.9944L48.9083 45.7615ZM40.9256 46.4014C40.6098 47.3503 40.6089 47.35 40.6081 47.3497C40.6078 47.3496 40.6069 47.3493 40.6063 47.3491C40.6052 47.3487 40.6039 47.3483 40.6026 47.3479C40.6001 47.347 40.5973 47.346 40.5943 47.345C40.5884 47.3429 40.5816 47.3405 40.5742 47.3378C40.5592 47.3323 40.5412 47.3255 40.5206 47.3172C40.4794 47.3007 40.427 47.2781 40.3665 47.2484C40.2469 47.1898 40.0882 47.1 39.9207 46.9702C39.5846 46.7096 39.1813 46.2591 39.0457 45.5667C38.9105 44.8766 39.0736 44.1111 39.5393 43.2832C40.0012 42.4619 40.7917 41.5203 42.0234 40.4197L43.356 41.9111C42.2135 42.9319 41.5964 43.7054 41.2825 44.2637C40.9722 44.8153 40.991 45.0937 41.0084 45.1822C41.0253 45.2684 41.0712 45.3315 41.1463 45.3897C41.1844 45.4193 41.2217 45.4403 41.2467 45.4525C41.2586 45.4583 41.2656 45.4612 41.2659 45.4613C41.2659 45.4613 41.2641 45.4606 41.2602 45.4591C41.2582 45.4584 41.2557 45.4575 41.2526 45.4564C41.251 45.4559 41.2493 45.4553 41.2475 45.4547C41.2465 45.4544 41.2456 45.454 41.2446 45.4537C41.2441 45.4535 41.2433 45.4533 41.243 45.4532C41.2422 45.4529 41.2414 45.4526 40.9256 46.4014ZM42.0235 40.4196C44.565 38.1494 47.402 37.134 49.5852 36.684C50.6786 36.4587 51.6167 36.3732 52.2863 36.3443C52.6215 36.3298 52.8906 36.3294 53.0796 36.3329C53.1742 36.3347 53.2488 36.3374 53.3018 36.3398C53.3283 36.341 53.3494 36.3422 53.3648 36.3431C53.3726 36.3435 53.3789 36.3439 53.3838 36.3442C53.3862 36.3444 53.3883 36.3445 53.3901 36.3447C53.3909 36.3447 53.3917 36.3448 53.3924 36.3448C53.3927 36.3448 53.3932 36.3449 53.3933 36.3449C53.3938 36.3449 53.3942 36.3449 53.3233 37.3424C53.2524 38.3399 53.2527 38.3399 53.2531 38.34C53.2531 38.34 53.2535 38.34 53.2536 38.34C53.2539 38.34 53.2542 38.34 53.2543 38.34C53.2546 38.3401 53.2546 38.3401 53.2542 38.34C53.2534 38.34 53.2512 38.3398 53.2477 38.3396C53.2406 38.3392 53.228 38.3385 53.2102 38.3377C53.1747 38.3361 53.1182 38.334 53.0426 38.3326C52.8912 38.3298 52.6634 38.3298 52.3727 38.3424C51.7904 38.3676 50.9604 38.4426 49.9889 38.6429C48.0424 39.0441 45.5625 39.9401 43.3558 41.9112L42.0235 40.4196Z" fill="#248725" mask="url(#path-21-inside-7_153_1440)"/>
<path d="M41.3333 46.1959C41.3333 46.1959 36.2436 48.4742 32.9865 49.6166C29.7234 50.7595 28.1171 56.2838 28.1171 56.2838L27.3333 53.8205C27.3333 53.8205 30.0124 50.0691 31.6365 49.4756C33.2606 48.8828 34.7625 43.6487 34.7625 43.6487L33.3857 49.0939L41.3333 46.1959Z" fill="#207921"/>
<path d="M9.34844 20.2187L9.34846 20.2187L9.34757 20.2141C9.28121 19.8711 8.98563 19.6013 8.61001 19.6013C8.15812 19.6013 7.7994 20.0054 7.86778 20.4603C7.8452 20.3245 7.83334 20.1823 7.83334 20.0343C7.83334 19.6123 8.00306 19.1021 8.41487 18.4919C8.77243 17.9621 9.29697 17.3803 10 16.7467C10.703 17.3803 11.2276 17.9621 11.5851 18.4919C11.997 19.1021 12.1667 19.6123 12.1667 20.0343C12.1667 21.4136 11.137 22.2815 10 22.2815C9.60509 22.2815 9.22312 22.1768 8.89274 21.9823C9.27805 22.2052 9.71739 22.2967 10.1218 22.2723C10.5162 22.2507 10.8333 21.9245 10.8333 21.5218C10.8333 21.0916 10.4741 20.7511 10.0467 20.7711L10.0381 20.7715L10.0295 20.7722C9.76779 20.7935 9.42793 20.6512 9.34844 20.2187ZM8.06353 21.0821C7.97692 20.9033 7.91219 20.707 7.87379 20.4949C7.91521 20.7117 7.98003 20.9071 8.06353 21.0821Z" fill="#C1EFFF" stroke="#BBDEFB"/>
<path d="M26.0151 4.13762L26.0151 4.13762L26.0142 4.13301C25.9479 3.79 25.6523 3.52027 25.2767 3.52027C24.8248 3.52027 24.4661 3.92434 24.5344 4.37921C24.5119 4.24341 24.5 4.10128 24.5 3.95327C24.5 3.53122 24.6697 3.02105 25.0815 2.41087C25.4391 1.88107 25.9636 1.2992 26.6667 0.665612C27.3697 1.2992 27.8942 1.88107 28.2518 2.41087C28.6636 3.02105 28.8333 3.53122 28.8333 3.95327C28.8333 5.33258 27.8037 6.20045 26.6667 6.20045C26.2717 6.20045 25.8898 6.09575 25.5594 5.90128C25.9447 6.12414 26.384 6.21561 26.7885 6.19123C27.1829 6.16965 27.5 5.84343 27.5 5.44077C27.5 5.01053 27.1408 4.67006 26.7133 4.69004L26.7047 4.69045L26.6962 4.69114C26.4344 4.71242 26.0946 4.57019 26.0151 4.13762ZM24.7302 5.00101C24.6436 4.82221 24.5788 4.6259 24.5404 4.41382C24.5819 4.6306 24.6467 4.82605 24.7302 5.00101Z" fill="#C1EFFF" stroke="#BBDEFB"/>
<path d="M54.0151 16.7728L54.0151 16.7727L54.0142 16.7681C53.9479 16.4251 53.6523 16.1554 53.2767 16.1554C52.8248 16.1554 52.4661 16.5595 52.5344 17.0143C52.5119 16.8785 52.5 16.7364 52.5 16.5884C52.5 16.1663 52.6697 15.6562 53.0815 15.046C53.4391 14.5162 53.9636 13.9343 54.6667 13.3007C55.3697 13.9343 55.8942 14.5162 56.2518 15.046C56.6636 15.6562 56.8333 16.1663 56.8333 16.5884C56.8333 17.9677 55.8037 18.8356 54.6667 18.8356C54.2717 18.8356 53.8898 18.7309 53.5594 18.5364C53.9447 18.7593 54.384 18.8507 54.7885 18.8264C55.1829 18.8048 55.5 18.4786 55.5 18.0759C55.5 17.6457 55.1408 17.3052 54.7133 17.3252L54.7047 17.3256L54.6962 17.3263C54.4344 17.3475 54.0946 17.2053 54.0151 16.7728ZM52.7302 17.6361C52.6436 17.4573 52.5788 17.261 52.5404 17.049C52.5819 17.2657 52.6467 17.4612 52.7302 17.6361Z" fill="#C1EFFF" stroke="#BBDEFB"/>
<path d="M44.6818 31.7052L44.6818 31.7052L44.6809 31.7006C44.6145 31.3576 44.3189 31.0879 43.9433 31.0879C43.4914 31.0879 43.1327 31.492 43.2011 31.9468C43.1785 31.811 43.1667 31.6689 43.1667 31.5209C43.1667 31.0988 43.3364 30.5887 43.7482 29.9785C44.1057 29.4487 44.6303 28.8668 45.3333 28.2332C46.0364 28.8668 46.5609 29.4487 46.9185 29.9785C47.3303 30.5887 47.5 31.0988 47.5 31.5209C47.5 32.9002 46.4703 33.7681 45.3333 33.7681C44.9384 33.7681 44.5564 33.6634 44.2261 33.4689C44.6114 33.6918 45.0507 33.7832 45.4551 33.7589C45.8495 33.7373 46.1667 33.4111 46.1667 33.0084C46.1667 32.5782 45.8074 32.2377 45.38 32.2577L45.3714 32.2581L45.3628 32.2588C45.1011 32.28 44.7612 32.1378 44.6818 31.7052ZM43.3968 32.5686C43.3102 32.3898 43.2455 32.1935 43.2071 31.9814C43.2485 32.1982 43.3133 32.3937 43.3968 32.5686Z" fill="#C1EFFF" stroke="#BBDEFB"/>
<path d="M2.0151 46.0633L2.01512 46.0633L2.01423 46.0587C1.94787 45.7157 1.65229 45.4459 1.27667 45.4459C0.824776 45.4459 0.466059 45.85 0.534434 46.3049C0.511858 46.1691 0.5 46.0269 0.5 45.8789C0.5 45.4569 0.669716 44.9467 1.08153 44.3365C1.43909 43.8067 1.96363 43.2249 2.66667 42.5913C3.3697 43.2249 3.89425 43.8067 4.25181 44.3365C4.66362 44.9467 4.83333 45.4569 4.83333 45.8789C4.83333 47.2582 3.80366 48.1261 2.66667 48.1261C2.27175 48.1261 1.88977 48.0214 1.5594 47.8269C1.94471 48.0498 2.38405 48.1413 2.78846 48.1169C3.18287 48.0953 3.5 47.7691 3.5 47.3664C3.5 46.9362 3.14078 46.5957 2.71332 46.6157L2.70473 46.6161L2.69615 46.6168C2.43444 46.6381 2.09459 46.4958 2.0151 46.0633ZM0.730185 46.9267C0.64358 46.7479 0.57885 46.5516 0.540443 46.3395C0.581868 46.5563 0.646691 46.7517 0.730185 46.9267Z" fill="#C1EFFF" stroke="#BBDEFB"/>
<path d="M56.6818 46.0633L56.6818 46.0633L56.6809 46.0587C56.6145 45.7157 56.3189 45.4459 55.9433 45.4459C55.4914 45.4459 55.1327 45.85 55.2011 46.3049C55.1785 46.1691 55.1667 46.0269 55.1667 45.8789C55.1667 45.4569 55.3364 44.9467 55.7482 44.3365C56.1057 43.8067 56.6303 43.2249 57.3333 42.5913C58.0364 43.2249 58.5609 43.8067 58.9185 44.3365C59.3303 44.9467 59.5 45.4569 59.5 45.8789C59.5 47.2582 58.4703 48.1261 57.3333 48.1261C56.9384 48.1261 56.5564 48.0214 56.2261 47.8269C56.6114 48.0498 57.0507 48.1413 57.4551 48.1169C57.8495 48.0953 58.1667 47.7691 58.1667 47.3664C58.1667 46.9362 57.8074 46.5957 57.38 46.6157L57.3714 46.6161L57.3628 46.6168C57.1011 46.6381 56.7612 46.4958 56.6818 46.0633ZM55.3968 46.9267C55.3102 46.7479 55.2455 46.5516 55.2071 46.3395C55.2485 46.5563 55.3133 46.7517 55.3968 46.9267Z" fill="#C1EFFF" stroke="#BBDEFB"/>
</svg>
