<svg width="39" height="69" viewBox="0 0 39 69" fill="none" xmlns="http://www.w3.org/2000/svg">
<path d="M38.5452 3.08875C38.3113 2.18578 37.889 1.38051 37.1308 0.878929C36.1633 0.23896 34.9211 0.210777 33.7553 0.205139C28.9571 0.180717 24.1602 0.188232 19.3617 0.207649C14.4088 0.227058 9.5515 -0.232567 4.59921 0.157555C3.58672 0.237076 2.51915 0.359184 1.7075 0.960335C0.592278 1.78628 0.264093 3.27786 0.123569 4.64484C-0.141956 7.22726 0.104294 9.82095 0.0963423 12.4096C0.0883269 15.0008 0.0644089 17.592 0.0750324 20.1838C0.112438 29.2811 0.163328 38.3785 0.231268 47.4758C0.253214 50.4151 0.257031 53.3551 0.278851 56.2944C0.299017 58.9983 0.0734411 61.9202 0.462124 64.5877C0.592405 65.4819 0.9482 66.373 1.61736 66.9911C2.1687 67.5008 2.8911 67.7913 3.6156 68.0055C6.36221 68.8164 9.66448 68.6135 12.4958 68.7187C16.7582 68.8759 21.0244 68.9504 25.2895 68.983C28.8445 69.0105 32.4351 69.0731 35.9561 68.5115C39.544 67.9391 38.8733 63.1563 38.9535 60.4874C39.0622 56.8705 38.9459 51.7608 38.9489 48.142C38.954 42.361 38.955 36.5807 38.9512 30.7997C38.9482 26.1708 38.9421 21.5414 38.9278 16.9126C38.9172 13.5086 38.8001 10.1391 38.8258 6.73883C38.8339 5.67681 38.858 4.29543 38.5452 3.08875Z" fill="#385B48"/>
<path d="M37.001 4.83887C36.7861 4.03115 36.398 3.31101 35.7013 2.86178C34.8123 2.28907 33.6708 2.26387 32.5996 2.25883C28.1903 2.23677 23.7824 2.24371 19.3729 2.26072C14.8216 2.27899 10.3582 1.86694 5.80745 2.21598C4.87707 2.28781 3.89601 2.39681 3.15018 2.93487C2.12534 3.67392 1.82379 5.00835 1.69463 6.23128C1.45069 8.54166 1.67696 10.8621 1.66964 13.1788C1.66232 15.4974 1.6403 17.816 1.65008 20.1345C1.68447 28.2741 1.73122 36.4137 1.79363 44.5533C1.81382 47.1837 1.81729 49.8136 1.83742 52.444C1.85591 54.8628 1.64863 57.4775 2.00577 59.8641C2.12553 60.6642 2.45244 61.4612 3.06734 62.0144C3.57395 62.4706 4.23781 62.7308 4.90357 62.9217C7.42751 63.6475 10.462 63.4667 13.0638 63.5599C16.9805 63.7011 20.9008 63.7672 24.8201 63.7968C28.0868 63.8214 31.3863 63.8775 34.6218 63.3747C37.9188 62.8631 37.3025 58.5832 37.3762 56.1953C37.4761 52.9594 37.3692 48.3871 37.372 45.1499C37.3767 39.9773 37.3776 34.8052 37.3741 29.6325C37.3714 25.4912 37.3658 21.3493 37.3526 17.208C37.3429 14.1617 37.2353 11.1469 37.2589 8.10504C37.2663 7.1543 37.2884 5.91877 37.001 4.83887Z" fill="#F0F4F2"/>
<path d="M15.0761 65.3364C14.9383 65.5013 14.8344 65.7155 14.7796 65.9881C14.7571 66.1001 14.7461 66.2176 14.771 66.3278C14.8038 66.4724 14.8948 66.5881 14.9899 66.6878C15.8714 67.6133 17.5394 67.3936 18.6672 67.4268C20.0038 67.4662 21.3418 67.4287 22.6792 67.3918C23.0157 67.3825 23.362 67.3702 23.6728 67.2139C24.3695 66.8638 24.4354 65.8429 23.8299 65.3407C23.4099 64.9918 22.8567 64.9666 22.3376 64.9537C21.1658 64.9241 19.994 64.8946 18.8222 64.8651C17.9333 64.8429 17.0577 64.8454 16.1698 64.8675C15.7522 64.878 15.3482 65.0109 15.0761 65.3364Z" fill="#68597F"/>
<path d="M12.7625 4.60145C12.9311 4.66646 13.1268 4.65166 13.3116 4.65552C15.3478 4.70186 23.9686 4.62269 26.1978 4.53323C26.377 4.52615 26.58 4.50748 26.6906 4.36781C26.7619 4.27835 26.7769 4.15799 26.7876 4.04471C26.8303 3.59159 27.0846 1.16316 26.4925 1.15093C24.1482 1.10459 21.8037 1.06661 19.4589 1.05566C18.2876 1.04987 17.1163 1.05116 15.945 1.06082C14.9127 1.06983 13.7723 0.954618 12.7649 1.16702C12.6181 1.19791 12.4649 1.23202 12.3503 1.32728C12.1658 1.48111 12.1339 1.74564 12.1259 1.98379C12.105 2.61262 12.1601 3.24402 12.2895 3.85998C12.3442 4.12001 12.4288 4.40128 12.6543 4.54674C12.6887 4.56863 12.7249 4.58665 12.7625 4.60145Z" fill="#463E68"/>
<path d="M16.3824 2.13978C16.3483 2.23354 16.3317 2.34709 16.3399 2.48252C16.3456 2.57732 16.3521 2.67628 16.3822 2.76067C16.5049 3.10132 16.9506 3.05443 17.1594 3.07214C17.5017 3.10131 17.8446 3.11173 18.1874 3.11277C18.8732 3.11381 19.5587 3.07527 20.2445 3.06486C20.9522 3.0534 21.66 3.0461 22.3676 3.02631C22.7281 3.01589 23.0886 3.00234 23.4489 2.98359C23.756 2.96797 24.1056 3.01277 24.4029 2.87526C24.5171 2.82213 24.6266 2.72524 24.696 2.57419C24.7842 2.38251 24.7949 2.11166 24.7225 1.90435C24.6024 1.56058 24.1046 1.62099 23.8935 1.59287C23.6199 1.55536 23.3445 1.5564 23.0701 1.5564C21.565 1.56057 20.0594 1.56371 18.5545 1.60121C17.9649 1.61683 17.352 1.53245 16.7744 1.75642C16.6113 1.81997 16.456 1.93664 16.3824 2.13978Z" fill="#68597F"/>
<path d="M14.242 2.22203C14.2246 2.37624 14.2218 2.53879 14.2597 2.68572C14.3408 3.0004 14.611 3.17546 14.8401 3.0921C15.0693 3.00874 15.2409 2.70343 15.2765 2.37103C15.3801 1.40614 14.3538 1.22692 14.242 2.22203Z" fill="#68597F"/>
<path d="M17.9361 12.7334C17.9142 12.5316 17.9118 12.3265 17.9372 12.1188C17.9477 12.0326 17.9624 11.9464 17.9986 11.8686C18.1076 11.6335 18.3051 11.6929 18.4571 11.853C18.6959 12.1044 18.9023 12.3794 19.117 12.6518C18.9414 12.1724 18.8391 11.8053 18.7644 11.367C18.7248 11.1345 18.6958 10.8955 18.7308 10.6616C18.9253 9.36447 19.9731 10.9373 20.0075 11.5297C19.9499 10.5382 19.9979 9.35663 20.6547 8.56893C20.8158 8.3756 21.0948 8.20709 21.2914 8.36058C21.3729 8.42394 21.4146 8.52713 21.4508 8.62641C21.6515 9.17309 21.7987 9.74068 21.8894 10.3181C22.1031 9.84649 22.4666 9.45004 22.9093 9.20641C22.9937 9.16004 23.0848 9.11758 23.1803 9.12019C23.3959 9.12673 23.5503 9.36578 23.5536 9.59046C23.557 9.81515 23.452 10.0242 23.3498 10.2227C23.8 9.81057 24.3841 9.56042 24.9821 9.52384C25.2081 9.51012 25.4639 9.54017 25.6071 9.72305C25.7964 9.96406 25.6883 10.3226 25.5666 10.6074C25.2658 11.3115 24.9296 11.9986 24.5598 12.6661C25.0643 12.1893 25.7833 11.9705 26.4549 12.0888C26.582 12.1116 26.7158 12.1508 26.7994 12.2534C26.9866 12.4826 26.806 12.8288 26.6195 13.0587C26.0767 13.7275 25.4666 14.3369 24.8023 14.8738C25.0742 14.7706 25.3797 14.7673 25.6537 14.864C25.7698 15.1775 25.5124 15.4962 25.2769 15.7268C23.9173 17.056 22.5577 18.3851 21.1981 19.7143C21.182 19.73 19.4363 16.7927 19.275 16.4688C18.9157 15.7471 18.5944 15.0031 18.337 14.235C18.1724 13.7445 17.9916 13.2475 17.9361 12.7334Z" fill="#69C687"/>
<path d="M22.5158 13.2026C22.5649 13.8198 22.3259 14.4923 22.1943 15.0887C22.0199 15.8789 21.8448 16.6691 21.6703 17.4599C21.4742 18.3477 21.2702 19.2355 21.0903 20.1271C21.0762 20.1974 21.0741 20.2735 21.1147 20.3444C21.1999 20.4939 21.4457 20.5583 21.654 20.5993C22.3551 20.7365 23.6631 21.1183 24.366 21.2471C24.4584 21.2646 24.5561 21.2815 24.6393 21.262C24.789 21.2282 24.8317 21.0962 24.8569 20.9798C24.9644 20.4978 26.0537 15.7286 26.1461 15.2434C26.1888 15.0191 26.2199 14.7908 26.28 14.5723C26.3917 14.1651 26.372 14.1976 26.2229 13.9219C26.0825 13.6624 25.3284 12.1125 25.1308 11.7132C25.0307 11.5103 24.7791 11.4973 24.5817 11.4394C24.3369 11.3672 24.0908 11.2996 23.8437 11.2371C23.3494 11.1116 22.8509 11.0043 22.3493 10.9152C22.3148 10.9093 22.2093 10.8807 22.1822 10.9035C22.1498 10.9314 22.2189 11.0069 22.2248 11.0505C22.318 11.7321 22.4112 12.4143 22.5044 13.0959C22.5092 13.131 22.513 13.1668 22.5158 13.2026Z" fill="#ABD9F4"/>
<path d="M19.7808 12.4482C19.6174 12.539 19.5669 12.5822 19.5185 12.7818C19.2772 13.7789 18.1282 18.2685 17.929 19.1329C17.9135 19.1998 17.9112 19.2731 17.9559 19.3419C18.0496 19.4852 18.32 19.5472 18.549 19.5866C19.3203 19.7193 20.7591 20.0861 21.5323 20.2107C21.6339 20.2269 21.7414 20.2432 21.8329 20.2251C21.9976 20.1919 22.0446 20.0648 22.0723 19.9528C22.1905 19.489 23.3888 14.8993 23.4903 14.433C23.5373 14.217 23.5715 13.9973 23.6377 13.7864C23.7606 13.3946 23.7389 13.4259 23.5748 13.1605C23.4204 12.9108 22.5909 11.4199 22.3735 11.0349C22.3496 10.9924 22.326 10.9473 22.2824 10.9204C22.1887 10.8641 22.0585 10.9091 21.9687 10.9705C21.5638 11.2484 19.8204 12.4257 19.7808 12.4482Z" fill="#CCEFFC"/>
<path d="M25.7365 17.639C26.0265 16.5811 26.2932 15.6 26.3386 15.4032C26.3431 15.3838 26.3472 15.3645 26.3514 15.3452L22.2438 14.5263C22.1721 14.7787 22.0873 15.0277 22.0242 15.2637C21.8857 15.7816 21.7469 16.2988 21.6082 16.8166L25.7365 17.639Z" fill="#55BAAA"/>
<path d="M23.1014 17.1202C23.3913 15.8879 23.6581 14.7449 23.7034 14.5156C23.7079 14.4931 23.712 14.4699 23.7163 14.4474L19.5869 13.4887C19.4272 14.1888 19.1998 15.1762 18.973 16.1615L23.1014 17.1202Z" fill="#69C8B3"/>
<path d="M20.298 14.9433C20.3846 14.8982 20.4668 14.8523 20.5447 14.806C20.6227 14.7601 20.7052 14.7133 20.7927 14.6665C20.8016 14.6621 20.8088 14.6564 20.8142 14.649C20.8198 14.6416 20.8267 14.6341 20.8352 14.6276C20.8437 14.6206 20.8557 14.6149 20.8714 14.6105C20.887 14.6062 20.9087 14.6048 20.9366 14.6062C20.9774 14.6079 21.0085 14.6162 21.0299 14.6302C21.0511 14.6446 21.0657 14.6621 21.0736 14.6827C21.0825 14.708 21.0835 14.7417 21.0765 14.7837C21.0695 14.8257 21.0573 14.872 21.0398 14.9232C21.0222 14.9743 21.0018 15.0277 20.9786 15.0836C20.9553 15.1396 20.9319 15.1938 20.9085 15.2467C20.8873 15.2948 20.8679 15.3399 20.85 15.3818C20.8321 15.4238 20.8182 15.4597 20.8082 15.489C20.8065 15.496 20.8039 15.5034 20.8004 15.5117C20.7969 15.5204 20.7913 15.5283 20.7835 15.5353C20.7756 15.5427 20.7658 15.5489 20.7539 15.5541C20.7419 15.5594 20.7266 15.5624 20.7076 15.5637C20.6972 15.5642 20.6825 15.5633 20.6632 15.5615C20.644 15.5602 20.6244 15.5576 20.6044 15.5537C20.5845 15.5502 20.5661 15.5458 20.5493 15.541C20.5324 15.5362 20.5206 15.5309 20.5137 15.5244C20.4888 15.5043 20.475 15.4824 20.4726 15.4592C20.4702 15.4361 20.4738 15.4124 20.4833 15.3884C20.493 15.3643 20.5051 15.3407 20.5196 15.3167C20.5342 15.2931 20.5468 15.2708 20.5575 15.2494C20.5771 15.2109 20.5967 15.1715 20.6162 15.1313C20.6356 15.0915 20.654 15.0526 20.6714 15.0154C20.6885 14.9778 20.7034 14.9428 20.7158 14.91C20.7282 14.8773 20.7373 14.8488 20.7427 14.8248C20.7226 14.8379 20.6993 14.8523 20.673 14.8681C20.6466 14.8838 20.6209 14.8987 20.596 14.9135C20.5709 14.928 20.5481 14.9415 20.5276 14.9538C20.5071 14.9665 20.4928 14.9756 20.4847 14.9818C20.4762 14.9883 20.4666 14.9953 20.4557 15.0014C20.4448 15.008 20.4351 15.015 20.4265 15.022C20.4178 15.0294 20.4112 15.0373 20.4068 15.046C20.4024 15.0548 20.4016 15.0644 20.4043 15.0753C20.4069 15.0906 20.4021 15.1016 20.3901 15.1086C20.3781 15.1156 20.3619 15.1204 20.3417 15.1226C20.3213 15.1243 20.2995 15.1239 20.276 15.1208C20.2524 15.1173 20.2304 15.1125 20.2101 15.1068C20.1813 15.0976 20.1547 15.0845 20.1305 15.0679C20.1064 15.0508 20.0836 15.0325 20.0622 15.0115C20.0301 14.9791 20.0022 14.9446 19.9786 14.9087C19.9548 14.8729 19.9324 14.8427 19.9114 14.8182C19.9051 14.8305 19.897 14.8471 19.8876 14.8676C19.878 14.8882 19.8674 14.9105 19.856 14.935C19.8443 14.9595 19.8318 14.9853 19.8181 15.0119C19.8044 15.039 19.7909 15.0657 19.7777 15.0919C19.7714 15.1042 19.7639 15.1204 19.7554 15.1405C19.7467 15.161 19.738 15.1825 19.7287 15.2056C19.7195 15.2288 19.7095 15.2529 19.699 15.2769C19.6883 15.3009 19.6771 15.3232 19.6652 15.3434C19.6592 15.3552 19.6541 15.3652 19.6496 15.374C19.6453 15.3827 19.6386 15.3901 19.63 15.3954C19.6212 15.4011 19.6095 15.4046 19.5946 15.4055C19.5798 15.4068 19.5593 15.405 19.533 15.4006C19.5159 15.398 19.5057 15.388 19.5021 15.37C19.4988 15.3521 19.4994 15.3302 19.5039 15.3044C19.5066 15.2826 19.5113 15.2594 19.5179 15.2345C19.5246 15.21 19.5318 15.1864 19.5397 15.1645C19.5476 15.1422 19.5547 15.1226 19.561 15.1051C19.5673 15.0876 19.5715 15.0753 19.5736 15.0679C19.593 15.0032 19.6147 14.9328 19.6389 14.8571C19.6631 14.7815 19.6907 14.7098 19.7218 14.6416L19.7539 14.5782C19.7537 14.562 19.7607 14.5502 19.7746 14.5423C19.7885 14.5349 19.8077 14.5296 19.8323 14.5279C19.8623 14.5248 19.8957 14.5261 19.9325 14.531C19.9692 14.5362 19.9945 14.5432 20.0084 14.5524C20.021 14.5607 20.0365 14.5747 20.0548 14.5948C20.0731 14.6145 20.0922 14.6372 20.112 14.663C20.1318 14.6884 20.1515 14.7155 20.1711 14.7448C20.1908 14.7736 20.2091 14.8012 20.2258 14.8274C20.2427 14.8536 20.2576 14.8777 20.2704 14.8982C20.2832 14.9192 20.2924 14.9345 20.298 14.9433Z" fill="white"/>
<path d="M21.5276 15.9769C21.5548 15.9878 21.5757 16.0007 21.5903 16.0162C21.605 16.0317 21.6106 16.0451 21.6072 16.0575C21.6042 16.0673 21.5945 16.075 21.578 16.0797C21.5615 16.0843 21.5379 16.0838 21.507 16.0776C21.4857 16.074 21.4624 16.0688 21.4372 16.0632C21.4119 16.058 21.387 16.0528 21.3625 16.0482C21.3316 16.0425 21.303 16.0384 21.2768 16.0363C21.2669 16.0353 21.2544 16.0348 21.2392 16.0353C21.224 16.0353 21.2083 16.0342 21.1923 16.0311L21.1859 16.0301C21.17 16.027 21.1542 16.0208 21.1385 16.011C21.1227 16.0012 21.1084 15.9857 21.0952 15.9651C21.0842 15.9486 21.0797 15.9305 21.0815 15.9104C21.0833 15.8902 21.0871 15.8706 21.0928 15.8505L21.1572 15.6265L21.1574 15.6141C21.1604 15.6037 21.164 15.5893 21.1684 15.5702C21.1727 15.5511 21.1783 15.5289 21.1851 15.5031C21.1918 15.4778 21.1991 15.4504 21.207 15.421C21.2149 15.3916 21.2231 15.3622 21.2318 15.3317C21.2397 15.3043 21.2477 15.2775 21.2557 15.2512C21.2638 15.2254 21.272 15.2001 21.2802 15.1753L21.3065 15.1015C21.3165 15.0741 21.3277 15.0576 21.34 15.0519C21.3523 15.0457 21.3656 15.0442 21.3796 15.0457L21.386 15.0468C21.3988 15.0493 21.4113 15.0555 21.4234 15.0659C21.4355 15.0767 21.446 15.0896 21.4549 15.1061C21.4637 15.1221 21.4698 15.1407 21.4731 15.1624C21.4765 15.1841 21.4753 15.2068 21.4694 15.231C21.4333 15.3683 21.4042 15.4804 21.3821 15.5671C21.3598 15.6543 21.3425 15.7225 21.3299 15.772C21.3172 15.8221 21.309 15.8577 21.3051 15.8789C21.3011 15.9006 21.2993 15.9145 21.2998 15.9207C21.3046 15.9233 21.3108 15.9258 21.3186 15.9284C21.3263 15.9305 21.335 15.9331 21.3446 15.9346C21.3528 15.9372 21.3612 15.9393 21.3697 15.9408C21.3782 15.9424 21.3873 15.9439 21.3969 15.946L21.4575 15.9573C21.469 15.9604 21.4808 15.963 21.493 15.9656C21.505 15.9687 21.5166 15.9723 21.5276 15.9769Z" fill="white"/>
<path d="M22.5103 15.1217C22.5163 15.108 22.5263 15.0989 22.5402 15.0952C22.5542 15.0914 22.5689 15.0906 22.5845 15.0927C22.6001 15.0943 22.6142 15.0981 22.6269 15.103C22.6397 15.1084 22.6485 15.1134 22.6536 15.1175C22.6592 15.1233 22.6621 15.13 22.6622 15.1374C22.6623 15.1453 22.6603 15.154 22.656 15.1635C22.6487 15.1801 22.6363 15.1988 22.6185 15.2191C22.6008 15.2394 22.5796 15.2605 22.5551 15.282C22.5488 15.287 22.5384 15.2949 22.5242 15.3061C22.5098 15.3169 22.4927 15.3293 22.473 15.3434C22.4532 15.357 22.432 15.3724 22.4093 15.3885C22.3865 15.4043 22.3642 15.4204 22.3425 15.4358C22.3406 15.437 22.3386 15.4383 22.3366 15.4399C22.3345 15.4416 22.3325 15.4428 22.3307 15.4441C22.2972 15.4677 22.2682 15.4884 22.2437 15.507C22.2193 15.5253 22.2055 15.5369 22.2024 15.5406C22.2335 15.5568 22.2654 15.5825 22.2979 15.6177C22.3303 15.6533 22.3611 15.6906 22.3901 15.7308C22.3908 15.7325 22.3941 15.7403 22.3999 15.7553C22.4056 15.7702 22.412 15.7884 22.4191 15.81C22.426 15.8315 22.4335 15.8555 22.4414 15.8812C22.4494 15.9069 22.4564 15.9314 22.4627 15.9546C22.4689 15.9778 22.4734 15.9989 22.4763 16.0175C22.4791 16.0358 22.479 16.0486 22.4761 16.0557C22.4712 16.0664 22.4603 16.0743 22.4434 16.0789C22.4264 16.083 22.4069 16.0839 22.3848 16.0814C22.3562 16.0776 22.3295 16.0685 22.3045 16.054C22.2946 16.0482 22.2864 16.0383 22.28 16.0229C22.2736 16.008 22.2677 15.991 22.2627 15.9711C22.2574 15.9517 22.2529 15.9309 22.249 15.9086C22.2451 15.8862 22.2415 15.8646 22.2382 15.8439C22.2349 15.8232 22.2313 15.8041 22.2272 15.7872C22.223 15.7698 22.2181 15.7569 22.2124 15.7482C22.1984 15.7267 22.1845 15.7059 22.1708 15.6861C22.1568 15.6662 22.143 15.6483 22.1295 15.6326C22.1159 15.6169 22.1028 15.6036 22.0905 15.5928C22.0779 15.582 22.0662 15.5754 22.0551 15.5725C22.0479 15.5767 22.0412 15.5841 22.0353 15.5949C22.0292 15.6052 22.0229 15.6185 22.0159 15.6343C22.0045 15.6604 21.9925 15.6919 21.9799 15.7287C21.9673 15.7652 21.9542 15.8025 21.9407 15.8398C21.9373 15.8506 21.9334 15.8659 21.9285 15.8866C21.9237 15.9069 21.9165 15.9285 21.9068 15.9504C21.9002 15.9653 21.8923 15.9798 21.883 15.9931C21.8736 16.0064 21.8628 16.0184 21.8502 16.0283C21.8366 16.0374 21.8219 16.0445 21.8063 16.049C21.7905 16.0536 21.7724 16.0548 21.7517 16.0524C21.7439 16.0511 21.7375 16.0503 21.7326 16.0486C21.7004 16.0412 21.6752 16.0337 21.6571 16.0271C21.639 16.02 21.6263 16.0122 21.6193 16.003C21.6075 15.9894 21.6051 15.9736 21.612 15.9566C21.6188 15.9392 21.6271 15.9181 21.6366 15.8928C21.6626 15.8269 21.688 15.7569 21.7128 15.6832C21.7376 15.609 21.763 15.534 21.7894 15.4581C21.8058 15.4142 21.8217 15.3715 21.8372 15.3297C21.8527 15.2878 21.8693 15.2468 21.887 15.2062C21.8954 15.1867 21.904 15.1677 21.9129 15.1494C21.9216 15.1308 21.9306 15.1126 21.9397 15.0947L21.9424 15.0885C21.9457 15.0811 21.9493 15.074 21.9534 15.0682C21.9573 15.062 21.9626 15.057 21.9689 15.0537C21.9753 15.05 21.9842 15.0475 21.9958 15.0458C22.0074 15.0446 22.0229 15.045 22.0423 15.0475C22.0501 15.0483 22.0589 15.0508 22.0687 15.055C22.0785 15.0591 22.0881 15.0637 22.0976 15.0691C22.1069 15.074 22.1149 15.0794 22.1215 15.0844C22.1282 15.0898 22.1328 15.0939 22.1356 15.0972C22.1419 15.1043 22.1458 15.115 22.1474 15.1287C22.149 15.1424 22.149 15.1577 22.1475 15.1755C22.1459 15.193 22.1431 15.212 22.1391 15.2323C22.135 15.2526 22.1301 15.2725 22.1243 15.292C22.1173 15.3173 22.1099 15.3413 22.1023 15.3637C22.0946 15.386 22.0884 15.4039 22.0836 15.418C22.0807 15.425 22.0792 15.43 22.0791 15.4333C22.079 15.4366 22.0797 15.4387 22.0813 15.4399C22.0827 15.4412 22.0845 15.442 22.0863 15.4424C22.0884 15.4424 22.0905 15.4432 22.0928 15.4441C22.1046 15.442 22.111 15.4399 22.112 15.4378C22.1129 15.4358 22.1195 15.4316 22.1319 15.425C22.1934 15.3782 22.2542 15.3309 22.3144 15.2841C22.3746 15.2369 22.4348 15.1896 22.495 15.1424C22.4984 15.1407 22.5007 15.1395 22.5016 15.1391C22.5026 15.1383 22.5035 15.137 22.5044 15.1349L22.5071 15.1287L22.5103 15.1217Z" fill="white"/>
<path d="M14.7907 15.0452C14.6751 14.3206 14.8588 13.548 15.2838 12.97" stroke="#4FB6A0" stroke-width="5.94273" stroke-miterlimit="10" stroke-linecap="round" stroke-linejoin="round"/>
<path d="M13.3654 14.6767C13.1713 15.0164 13.123 15.4473 13.2352 15.9371C13.3929 16.6251 13.7889 17.2492 14.2442 17.7182C14.6246 18.1103 15.1378 18.3731 15.5674 17.9171C15.6068 17.8754 15.6375 17.8209 15.6848 17.7921C15.79 17.7289 15.9153 17.7957 16.0298 17.8331C16.0359 17.8352 16.0422 17.8367 16.0484 17.8388C16.3033 17.915 16.5517 17.8668 16.7644 17.6858C16.9687 17.5113 17.0964 17.112 17.1672 16.8513C17.4205 15.9191 17.7654 13.4802 16.2715 13.4888C16.0407 13.4902 15.8228 13.5549 15.6171 13.6763C15.5658 13.7064 15.1063 14.105 15.1118 14.1086C14.7734 13.8946 14.3702 13.9298 14.0219 14.0921C13.7286 14.2293 13.5078 14.4282 13.3654 14.6767Z" fill="#C72F4F"/>
<path d="M17.9189 15.0452C18.0678 14.3822 18.4604 13.8028 18.9729 13.4888" stroke="#4FB6A0" stroke-width="5.94273" stroke-miterlimit="10" stroke-linecap="round" stroke-linejoin="round"/>
<path d="M16.0302 14.1492C15.8131 14.2466 15.6244 14.3934 15.4944 14.5882C14.9462 15.409 15.477 18.384 16.9807 17.7984C17.034 17.7779 17.0865 17.751 17.1439 17.7478C17.2716 17.7414 17.3679 17.8496 17.4654 17.9291C18.5842 18.8377 19.6242 16.7982 19.9032 16.044C19.9623 15.8844 20.0142 15.7204 20.025 15.5512C20.0474 15.2001 19.8783 14.8432 19.5878 14.6285C19.2453 14.3748 18.8399 14.3825 18.4376 14.4632C18.2475 14.501 18.042 14.5702 17.8679 14.4876C17.7853 14.4485 17.7229 14.3799 17.6531 14.3222C17.2228 13.966 16.5463 13.9179 16.0302 14.1492Z" fill="#DE3B59"/>
<mask id="path-19-inside-1_153_1502" fill="white">
<path d="M11.9184 17.4033C12.5165 17.3699 12.5415 17.312 13.4013 17.2433C17.431 16.9221 20.3285 17.3315 24.3807 17.3315C25.0941 17.346 25.6201 17.3674 25.9747 17.4241C26.2119 18.1901 26.7433 19.996 26.9358 20.8426C28.0242 25.6342 28.097 30.4927 28.7963 35.3227C28.9099 36.1076 29.3969 38.2845 28.163 38.3229C24.7343 38.4307 13.6051 38.4313 9.44914 38.1711C9.21877 38.1573 8.98436 38.0943 8.80661 37.9677C8.2596 37.5771 8.45074 36.6115 8.53073 36.0969C8.6704 35.1968 8.82591 34.2991 8.98314 33.4009C9.09711 32.7502 9.19928 32.0983 9.30133 31.4463C9.63913 29.2864 9.9593 27.1252 10.2858 24.964C10.6227 22.7348 11.064 20.6618 11.5875 18.3828C11.6199 18.2417 11.8699 17.5098 11.9184 17.4033Z"/>
</mask>
<path d="M13.4013 17.2433L13.3217 16.2465L13.3219 16.2465L13.4013 17.2433ZM24.3807 17.3315V16.3315H24.3908L24.401 16.3317L24.3807 17.3315ZM25.9747 17.4241L26.1325 16.4367L26.7461 16.5347L26.9299 17.1283L25.9747 17.4241ZM26.9358 20.8426L27.9109 20.6209L27.9109 20.6211L26.9358 20.8426ZM28.7963 35.3227L29.786 35.1795L29.786 35.1795L28.7963 35.3227ZM28.163 38.3229L28.1316 37.3234L28.1319 37.3234L28.163 38.3229ZM9.44914 38.1711L9.50918 37.1729L9.51161 37.1731L9.44914 38.1711ZM8.80661 37.9677L8.22644 38.7822L8.22556 38.7815L8.80661 37.9677ZM8.53073 36.0969L9.51891 36.2502L9.51887 36.2505L8.53073 36.0969ZM8.98314 33.4009L7.99812 33.2285L7.99813 33.2284L8.98314 33.4009ZM9.30133 31.4463L10.2893 31.6008L10.2893 31.601L9.30133 31.4463ZM10.2858 24.964L9.29697 24.8147L9.29698 24.8146L10.2858 24.964ZM11.5875 18.3828L10.6129 18.159L10.6129 18.1588L11.5875 18.3828ZM11.8627 16.4049C12.1187 16.3906 12.2411 16.3725 12.4186 16.3468C12.6202 16.3177 12.8638 16.2831 13.3217 16.2465L13.4809 18.2402C13.079 18.2723 12.8802 18.3009 12.7048 18.3263C12.5054 18.3551 12.3162 18.3827 11.9741 18.4018L11.8627 16.4049ZM13.3219 16.2465C15.3917 16.0815 17.1668 16.1048 18.9184 16.1676C20.6796 16.2308 22.3784 16.3315 24.3807 16.3315V18.3315C22.3307 18.3315 20.5546 18.2276 18.8467 18.1663C17.1291 18.1047 15.4406 18.0839 13.4808 18.2402L13.3219 16.2465ZM24.401 16.3317C25.1006 16.3459 25.6975 16.3671 26.1325 16.4367L25.8168 18.4116C25.5427 18.3678 25.0877 18.3461 24.3604 18.3313L24.401 16.3317ZM26.9299 17.1283C27.1669 17.8934 27.709 19.7326 27.9109 20.6209L25.9606 21.0642C25.7777 20.2594 25.2569 18.4867 25.0194 17.72L26.9299 17.1283ZM27.9109 20.6211C28.4694 23.0796 28.7644 25.5424 29.007 27.9688C29.2513 30.4127 29.4406 32.7935 29.786 35.1795L27.8066 35.466C27.4528 33.0219 27.2559 30.5584 27.0169 28.1677C26.7761 25.7594 26.4906 23.3973 25.9606 21.0641L27.9109 20.6211ZM29.786 35.1795C29.8301 35.4841 30.0061 36.3698 29.9846 37.131C29.9738 37.5121 29.9147 38.0084 29.6678 38.4426C29.3786 38.9513 28.869 39.3014 28.1941 39.3225L28.1319 37.3234C28.1332 37.3234 28.0853 37.3262 28.0227 37.365C27.962 37.4026 27.9343 37.445 27.9292 37.4541C27.9269 37.458 27.9414 37.4329 27.9564 37.3606C27.9711 37.2899 27.9819 37.195 27.9854 37.0745C28.0004 36.5415 27.8761 35.9463 27.8066 35.466L29.786 35.1795ZM28.1944 39.3224C24.75 39.4307 13.5863 39.4321 9.38666 39.1692L9.51161 37.1731C13.6239 37.4305 24.7186 37.4307 28.1316 37.3234L28.1944 39.3224ZM9.38909 39.1693C9.03799 39.1482 8.60331 39.0506 8.22644 38.7822L9.38679 37.1532C9.37172 37.1425 9.37245 37.1469 9.39886 37.1549C9.42456 37.1627 9.46237 37.1701 9.50918 37.1729L9.38909 39.1693ZM8.22556 38.7815C7.56091 38.307 7.44737 37.5566 7.43399 37.1087C7.41996 36.6389 7.50926 36.1578 7.5426 35.9433L9.51887 36.2505C9.47221 36.5506 9.42595 36.8096 9.4331 37.049C9.4409 37.3101 9.5053 37.2378 9.38767 37.1538L8.22556 38.7815ZM7.54256 35.9435C7.68386 35.0329 7.84087 34.1268 7.99812 33.2285L9.96816 33.5733C9.81094 34.4715 9.65694 35.3606 9.51891 36.2502L7.54256 35.9435ZM7.99813 33.2284C8.11029 32.588 8.21111 31.9449 8.31336 31.2917L10.2893 31.601C10.1875 32.2516 10.0839 32.9124 9.96815 33.5734L7.99813 33.2284ZM8.31334 31.2918C8.6506 29.1353 8.96995 26.9796 9.29697 24.8147L11.2745 25.1134C10.9486 27.2708 10.6277 29.4375 10.2893 31.6008L8.31334 31.2918ZM9.29698 24.8146C9.63952 22.5481 10.0874 20.4464 10.6129 18.159L12.5621 18.6067C12.0405 20.8772 11.6058 22.9215 11.2745 25.1135L9.29698 24.8146ZM10.6129 18.1588C10.6432 18.0267 10.7347 17.7508 10.8 17.5587C10.8644 17.3687 10.958 17.0993 11.0085 16.9886L12.8283 17.8181C12.8372 17.7987 12.8274 17.8206 12.7921 17.919C12.7637 17.9982 12.7288 18.0985 12.6938 18.2015C12.6589 18.3046 12.6251 18.4066 12.5987 18.4892C12.5672 18.588 12.5592 18.6194 12.5621 18.6069L10.6129 18.1588Z" fill="black" mask="url(#path-19-inside-1_153_1502)"/>
<mask id="path-21-inside-2_153_1502" fill="white">
<path d="M26.3246 19.5507C26.3239 18.8769 26.3376 18.2025 26.3227 17.5294C26.3151 17.1861 26.2527 15.7664 26.2477 15.5378C25.7549 15.976 25.1665 16.5687 24.7453 17.0893C24.4112 16.6194 23.9482 15.8196 23.6558 15.2706C23.1818 15.869 22.3278 16.6314 22.0325 16.9132C21.9222 16.7207 21.1231 15.6011 20.8121 15.1686C20.3586 15.6131 19.8164 16.2508 19.3457 16.7726C19.154 16.4826 18.6761 15.5986 18.1312 15.0451C17.6684 15.5587 17.087 16.1153 16.6058 16.5561C16.3539 16.0469 15.9376 15.5555 15.6134 15.0451C15.2013 15.477 14.6728 16.5079 14.2656 16.8872C14.0439 16.6808 13.4124 15.7721 12.9808 15.2978C12.503 16.1995 12.2097 17.2824 12.1985 17.2894C12.1441 24.2893 11.4322 31.2797 11.6288 38.2809C15.677 38.393 21.982 38.4101 26.1324 38.374C26.0693 35.254 26.181 32.1333 26.2905 29.0133C26.4012 25.8597 26.3277 22.7049 26.3246 19.5507Z"/>
</mask>
<path d="M26.3246 19.5507C26.3239 18.8769 26.3376 18.2025 26.3227 17.5294C26.3151 17.1861 26.2527 15.7664 26.2477 15.5378C25.7549 15.976 25.1665 16.5687 24.7453 17.0893C24.4112 16.6194 23.9482 15.8196 23.6558 15.2706C23.1818 15.869 22.3278 16.6314 22.0325 16.9132C21.9222 16.7207 21.1231 15.6011 20.8121 15.1686C20.3586 15.6131 19.8164 16.2508 19.3457 16.7726C19.154 16.4826 18.6761 15.5986 18.1312 15.0451C17.6684 15.5587 17.087 16.1153 16.6058 16.5561C16.3539 16.0469 15.9376 15.5555 15.6134 15.0451C15.2013 15.477 14.6728 16.5079 14.2656 16.8872C14.0439 16.6808 13.4124 15.7721 12.9808 15.2978C12.503 16.1995 12.2097 17.2824 12.1985 17.2894C12.1441 24.2893 11.4322 31.2797 11.6288 38.2809C15.677 38.393 21.982 38.4101 26.1324 38.374C26.0693 35.254 26.181 32.1333 26.2905 29.0133C26.4012 25.8597 26.3277 22.7049 26.3246 19.5507Z" fill="white"/>
<path d="M26.3227 17.5294L27.3225 17.5072L27.3225 17.5073L26.3227 17.5294ZM26.2477 15.5378L25.5832 14.7905L27.2006 13.3524L27.2475 15.5161L26.2477 15.5378ZM24.7453 17.0893L25.5227 17.7182L24.694 18.7425L23.9304 17.6688L24.7453 17.0893ZM23.6558 15.2706L22.8719 14.6497L23.8205 13.4521L24.5385 14.8006L23.6558 15.2706ZM22.0325 16.9132L22.7229 17.6367L21.7996 18.5177L21.1649 17.4105L22.0325 16.9132ZM20.8121 15.1686L20.112 14.4545L20.9439 13.639L21.6239 14.5848L20.8121 15.1686ZM19.3457 16.7726L20.0883 17.4424L19.2235 18.4011L18.5115 17.3241L19.3457 16.7726ZM18.1312 15.0451L17.3884 14.3757L18.0991 13.5871L18.8438 14.3436L18.1312 15.0451ZM16.6058 16.5561L17.2811 17.2936L16.2995 18.1924L15.7094 16.9994L16.6058 16.5561ZM15.6134 15.0451L14.8899 14.3548L15.7722 13.4301L16.4575 14.5089L15.6134 15.0451ZM14.2656 16.8872L14.9471 17.619L14.2656 18.2538L13.584 17.619L14.2656 16.8872ZM12.9808 15.2978L12.0971 14.8296L12.763 13.5728L13.7204 14.6247L12.9808 15.2978ZM12.1985 17.2894L11.1986 17.2816L11.2028 16.7326L11.6683 16.4415L12.1985 17.2894ZM11.6288 38.2809L11.6012 39.2805L10.6558 39.2543L10.6292 38.309L11.6288 38.2809ZM26.1324 38.374L27.1322 38.3538L27.1527 39.3652L26.1411 39.374L26.1324 38.374ZM26.2905 29.0133L25.2911 28.9782V28.9782L26.2905 29.0133ZM25.3246 19.5517C25.3239 18.8475 25.3376 18.2124 25.323 17.5514L27.3225 17.5073C27.3376 18.1926 27.3239 18.9063 27.3246 19.5496L25.3246 19.5517ZM25.323 17.5515C25.3194 17.3915 25.3025 16.9633 25.285 16.5309C25.2682 16.1137 25.2507 15.6861 25.248 15.5595L27.2475 15.5161C27.2497 15.6181 27.2659 16.0146 27.2834 16.4503C27.3004 16.8707 27.3184 17.324 27.3225 17.5072L25.323 17.5515ZM26.9122 16.2851C26.4488 16.6971 25.9012 17.2505 25.5227 17.7182L23.9679 16.4603C24.4318 15.8869 25.061 15.2549 25.5832 14.7905L26.9122 16.2851ZM23.9304 17.6688C23.559 17.1466 23.0724 16.3025 22.7731 15.7406L24.5385 14.8006C24.8239 15.3367 25.2633 16.0921 25.5603 16.5097L23.9304 17.6688ZM24.4397 15.8915C23.9085 16.562 22.9672 17.4035 22.7229 17.6367L21.3422 16.1898C21.6884 15.8593 22.4551 15.1759 22.8719 14.6497L24.4397 15.8915ZM21.1649 17.4105C21.1688 17.4172 21.1602 17.4024 21.1273 17.3527C21.0986 17.3094 21.0607 17.2533 21.0146 17.1862C20.9228 17.0525 20.8055 16.8848 20.6803 16.7072C20.4301 16.3524 20.1545 15.967 20.0002 15.7524L21.6239 14.5848C21.7806 14.8027 22.0601 15.1934 22.3148 15.5546C22.5491 15.887 22.815 16.2674 22.9001 16.4159L21.1649 17.4105ZM21.5121 15.8827C21.0877 16.2988 20.5925 16.8834 20.0883 17.4424L18.6032 16.1028C19.0403 15.6182 19.6295 14.9275 20.112 14.4545L21.5121 15.8827ZM18.5115 17.3241C18.2348 16.9054 17.8731 16.2083 17.4186 15.7467L18.8438 14.3436C19.4791 14.9888 20.0733 16.0598 20.1799 16.2212L18.5115 17.3241ZM18.8741 15.7146C18.3796 16.2633 17.7709 16.845 17.2811 17.2936L15.9304 15.8186C16.4032 15.3856 16.9573 14.8541 17.3884 14.3757L18.8741 15.7146ZM15.7094 16.9994C15.6198 16.8183 15.4909 16.621 15.3188 16.3765C15.1613 16.1525 14.9482 15.8631 14.7693 15.5813L16.4575 14.5089C16.6027 14.7376 16.7599 14.949 16.9546 15.2257C17.1347 15.4817 17.3398 15.7847 17.5021 16.1127L15.7094 16.9994ZM16.3369 15.7355C16.2108 15.8675 16.0359 16.133 15.7749 16.5327C15.567 16.8511 15.2605 17.3271 14.9471 17.619L13.584 16.1555C13.6778 16.0681 13.8393 15.8389 14.1004 15.4391C14.3084 15.1205 14.6038 14.6546 14.8899 14.3548L16.3369 15.7355ZM13.584 17.619C13.4666 17.5097 13.3422 17.3572 13.2505 17.2425C13.146 17.1115 13.026 16.9548 12.9085 16.8016C12.6603 16.4781 12.4226 16.1702 12.2412 15.9709L13.7204 14.6247C13.9706 14.8997 14.2644 15.2833 14.4954 15.5843C14.6174 15.7434 14.7238 15.8823 14.8135 15.9946C14.9161 16.1231 14.9537 16.1616 14.9471 16.1555L13.584 17.619ZM13.8644 15.766C13.6591 16.1534 13.4855 16.5966 13.3586 16.9594C13.2962 17.1377 13.2471 17.2907 13.2125 17.4011C13.1895 17.4745 13.1871 17.483 13.1701 17.5373C13.1652 17.5531 13.1583 17.5751 13.1515 17.5952C13.1488 17.6033 13.1413 17.6255 13.1311 17.6514C13.1269 17.662 13.1145 17.6934 13.0955 17.7318C13.0867 17.7496 13.0663 17.7897 13.0351 17.8374C13.0273 17.8493 12.9274 18.013 12.7288 18.1372L11.6683 16.4415C11.4698 16.5656 11.3702 16.7291 11.3626 16.7406C11.3316 16.7879 11.3115 16.8275 11.303 16.8447C11.2846 16.8818 11.273 16.9115 11.2697 16.9198C11.2648 16.9323 11.2614 16.9418 11.2598 16.9462C11.258 16.9512 11.2568 16.9548 11.2563 16.9563C11.2553 16.9594 11.2562 16.9565 11.2613 16.9402C11.2644 16.9305 11.2905 16.8461 11.304 16.803C11.3425 16.6802 11.3987 16.5049 11.4708 16.2989C11.6128 15.893 11.8247 15.3439 12.0971 14.8296L13.8644 15.766ZM13.1985 17.2971C13.1711 20.8215 12.9781 24.3455 12.8185 27.8304C12.6584 31.3257 12.5313 34.792 12.6285 38.2528L10.6292 38.309C10.5298 34.7687 10.6603 31.2391 10.8206 27.7389C10.9814 24.2283 11.1715 20.7571 11.1986 17.2816L13.1985 17.2971ZM11.6565 37.2813C15.6876 37.3929 21.9792 37.4101 26.1237 37.374L26.1411 39.374C21.9848 39.4101 15.6664 39.3931 11.6012 39.2805L11.6565 37.2813ZM25.1326 38.3942C25.0688 35.2417 25.1818 32.0929 25.2911 28.9782L27.2899 29.0484C27.1802 32.1737 27.0697 35.2662 27.1322 38.3538L25.1326 38.3942ZM25.2911 28.9782C25.401 25.8485 25.3277 22.7358 25.3246 19.5517L27.3246 19.5497C27.3277 22.674 27.4014 25.871 27.2899 29.0484L25.2911 28.9782Z" fill="black" mask="url(#path-21-inside-2_153_1502)"/>
<path d="M15.6559 26.5401C15.0152 27.7778 15.2062 29.396 16.1949 30.3998C16.6468 30.8584 17.2346 31.1788 17.8533 31.391C18.7635 31.7038 19.8196 31.7802 20.6649 31.3296C22.9944 30.0875 23.4661 26.3348 21.1155 24.8924C19.2166 23.7273 16.6176 24.6828 15.6559 26.5401V26.5401Z" stroke="#F4F4F4" stroke-width="4.51117" stroke-miterlimit="10"/>
<path d="M16.1564 26.7511C15.5615 27.8118 15.7388 29.1987 16.6569 30.0589C17.0765 30.4516 17.6223 30.7268 18.1968 30.9088C19.042 31.177 20.0227 31.2422 20.8076 30.8558C22.9707 29.7913 23.4087 26.5749 21.226 25.3386C19.4628 24.3399 17.0495 25.1585 16.1564 26.7511Z" fill="#E3F2FD"/>
<path d="M13.3929 48.1034C12.1116 50.4013 12.4935 53.4069 14.4709 55.2701C15.3747 56.1218 16.5503 56.7174 17.7877 57.1119C19.6081 57.6929 21.7203 57.8344 23.411 56.9973C28.0699 54.6909 29.0133 47.7212 24.3121 45.0429C20.5144 42.8792 15.3166 44.6533 13.3929 48.1034Z" fill="#33A45C"/>
<path d="M19.0736 55.5112C20.027 52.3495 22.6827 48.4031 24.7702 46.1729C22.6506 46.8579 20.2534 49.1041 18.7424 51.635C17.6512 51.2328 15.9608 50.4119 15.2838 50.5737C15.7059 50.9118 16.9634 52.1207 17.3493 52.5278C18.1954 53.4194 18.7283 54.5397 19.0736 55.5112Z" fill="#F4F4F4"/>
</svg>
