<svg width="12" height="14" viewBox="0 0 12 14" fill="none" xmlns="http://www.w3.org/2000/svg">
<path d="M10 9.72C9.49333 9.72 9.04 9.92 8.69333 10.2333L3.94 7.46667C3.97333 7.31334 4 7.16 4 7C4 6.84 3.97333 6.68667 3.94 6.53334L8.64 3.79334C9 4.12667 9.47333 4.33334 10 4.33334C11.1067 4.33334 12 3.44 12 2.33334C12 1.22667 11.1067 0.333336 10 0.333336C8.89333 0.333336 8 1.22667 8 2.33334C8 2.49334 8.02667 2.64667 8.06 2.8L3.36 5.54C3 5.20667 2.52667 5 2 5C0.893333 5 0 5.89334 0 7C0 8.10667 0.893333 9 2 9C2.52667 9 3 8.79334 3.36 8.46L8.10667 11.2333C8.07333 11.3733 8.05333 11.52 8.05333 11.6667C8.05333 12.74 8.92667 13.6133 10 13.6133C11.0733 13.6133 11.9467 12.74 11.9467 11.6667C11.9467 10.5933 11.0733 9.72 10 9.72ZM10 1.66667C10.3667 1.66667 10.6667 1.96667 10.6667 2.33334C10.6667 2.7 10.3667 3 10 3C9.63333 3 9.33333 2.7 9.33333 2.33334C9.33333 1.96667 9.63333 1.66667 10 1.66667ZM2 7.66667C1.63333 7.66667 1.33333 7.36667 1.33333 7C1.33333 6.63334 1.63333 6.33334 2 6.33334C2.36667 6.33334 2.66667 6.63334 2.66667 7C2.66667 7.36667 2.36667 7.66667 2 7.66667ZM10 12.3467C9.63333 12.3467 9.33333 12.0467 9.33333 11.68C9.33333 11.3133 9.63333 11.0133 10 11.0133C10.3667 11.0133 10.6667 11.3133 10.6667 11.68C10.6667 12.0467 10.3667 12.3467 10 12.3467Z" fill="#393939"/>
</svg>
