<svg width="139" height="113" viewBox="0 0 139 113" fill="none" xmlns="http://www.w3.org/2000/svg">
<path d="M38.2939 91.6134C40.0436 90.1508 42.7068 89.769 44.1084 89.6705C43.9909 90.8411 43.5342 93.0661 41.7844 94.529C40.0301 95.9908 37.367 96.373 35.9653 96.4716C36.0829 95.3005 36.5395 93.0756 38.2939 91.6134ZM38.2939 100.806C40.0436 99.3438 42.7068 98.962 44.1084 98.8638C43.9909 100.034 43.5342 102.259 41.7844 103.722C40.0301 105.184 37.367 105.566 35.9653 105.665C36.0829 104.494 36.5395 102.269 38.2939 100.806ZM28.2201 103.722C26.4658 102.259 26.0091 100.034 25.8916 98.8638C27.2932 98.962 29.9609 99.3442 31.7107 100.806C33.4605 102.269 33.9171 104.494 34.0347 105.665C32.633 105.566 29.9699 105.184 28.2201 103.722ZM28.2201 94.529C26.4658 93.0654 26.0091 90.8381 25.8916 89.6682C27.2932 89.7645 29.9518 90.1436 31.7107 91.6134C33.4605 93.0756 33.9171 95.3009 34.0347 96.4716C32.633 96.373 29.9699 95.9908 28.2201 94.529ZM28.2201 85.3361C26.4658 83.8735 26.0091 81.6477 25.8916 80.4775C27.2932 80.5757 29.9609 80.9578 31.7107 82.42C33.4605 83.8826 33.9171 86.1083 34.0347 87.2786C32.633 87.1796 29.9699 86.7982 28.2201 85.3361ZM35.0023 68.9126C35.9065 69.8102 37.471 71.6538 37.471 73.7221C37.471 75.79 35.9065 77.6339 35.0023 78.5308C34.0934 77.6332 32.5336 75.7896 32.5336 73.7221C32.5336 71.6538 34.0934 69.8095 35.0023 68.9126ZM38.2939 82.42C40.0436 80.9578 42.7068 80.5757 44.1084 80.4775C43.9909 81.6485 43.5342 83.8735 41.7844 85.3361C40.0301 86.7986 37.367 87.1804 35.9653 87.2786C36.0829 86.1075 36.5395 83.8826 38.2939 82.42ZM43.0911 86.4289C46.1205 83.8988 46.0029 79.8204 45.9984 79.6478C45.9848 79.2396 45.5915 78.9118 45.1032 78.8994C44.8952 78.8948 40.012 78.7966 36.9826 81.3268C36.5757 81.6674 36.2276 82.0371 35.9246 82.4208V79.9869C36.7973 79.2237 39.3202 76.7495 39.3202 73.7221C39.3202 70.1429 35.7845 67.3277 35.6353 67.2099C35.2781 66.93 34.7219 66.93 34.3647 67.2099C34.2155 67.3277 30.6798 70.1429 30.6798 73.7221C30.6798 76.7495 33.2072 79.2237 34.0754 79.9869V82.4208C33.7724 82.0371 33.4288 81.6674 33.0174 81.3268C29.988 78.7948 25.1048 78.8922 24.9014 78.8994C24.4131 78.9118 24.0197 79.2396 24.0016 79.6478C23.9971 79.8204 23.8795 83.8988 26.9089 86.4289C29.1741 88.3186 32.4657 88.7426 34.0754 88.834V91.6138C33.7724 91.2305 33.4288 90.8604 33.0174 90.5201C29.988 87.9893 25.1094 88.0871 24.9014 88.092C24.4131 88.1048 24.0197 88.4322 24.0016 88.8404C23.9971 89.013 23.8795 93.0918 26.9089 95.6223C29.1741 97.5116 32.4657 97.9356 34.0754 98.027V100.807C33.7724 100.424 33.4288 100.054 33.0174 99.7131C29.9925 97.183 25.1094 97.2793 24.9014 97.285C24.4131 97.2978 24.0197 97.6252 24.0016 98.0338C23.9971 98.2064 23.8795 102.284 26.9089 104.815C29.1741 106.705 32.4657 107.129 34.0754 107.22V112.227C34.0754 112.654 34.4913 113 35.0023 113C35.5132 113 35.9246 112.654 35.9246 112.227V107.22C37.5388 107.128 40.8304 106.705 43.0911 104.815C46.1205 102.284 46.0029 98.2064 45.9984 98.0338C45.9848 97.6252 45.5915 97.2978 45.1032 97.285C44.8907 97.2778 40.012 97.1838 36.9826 99.7131C36.5757 100.054 36.2276 100.424 35.9246 100.807V98.027C37.5388 97.9356 40.8304 97.5112 43.0911 95.6223C46.1205 93.0918 46.0029 89.013 45.9984 88.8404C45.9848 88.4322 45.5915 88.1048 45.1032 88.092C44.8952 88.0871 40.012 87.9893 36.9826 90.5201C36.5757 90.8604 36.2276 91.2305 35.9246 91.6138V88.834C37.5388 88.7426 40.8304 88.3186 43.0911 86.4289Z" fill="#296A53"/>
<path d="M72.2893 91.6134C74.0437 90.1501 76.7113 89.7687 78.113 89.6705C77.9954 90.8389 77.5433 93.0589 75.7799 94.529C74.0301 95.992 71.3624 96.3738 69.9608 96.4719C70.0784 95.3036 70.5305 93.0827 72.2893 91.6134ZM72.2893 100.806C74.0437 99.3431 76.7113 98.9613 78.113 98.8631C77.9954 100.031 77.5433 102.252 75.7799 103.722C74.0301 105.185 71.3624 105.567 69.9608 105.665C70.0784 104.497 70.5305 102.276 72.2893 100.806ZM62.2201 103.722C60.4658 102.259 60.0092 100.034 59.8916 98.8638C61.2932 98.962 63.9563 99.3442 65.7106 100.806C67.4604 102.269 67.9171 104.494 68.0347 105.665C66.633 105.566 63.9699 105.184 62.2201 103.722ZM62.2201 94.529C60.4658 93.0654 60.0092 90.8381 59.8916 89.6682C61.2887 89.7645 63.9473 90.1436 65.7106 91.6134C67.4604 93.0756 67.9171 95.3009 68.0347 96.4716C66.633 96.373 63.9699 95.9908 62.2201 94.529ZM62.2201 85.3361C60.4658 83.8735 60.0092 81.6477 59.8916 80.4775C61.2932 80.5757 63.9563 80.9578 65.7106 82.42C67.4604 83.8826 67.9171 86.1083 68.0347 87.2786C66.633 87.1796 63.9699 86.7982 62.2201 85.3361ZM68.9977 68.9126C69.9066 69.8102 71.4665 71.6538 71.4665 73.7221C71.4665 75.79 69.9066 77.6339 68.9977 78.5308C68.0935 77.6332 66.5336 75.7896 66.5336 73.7221C66.5336 71.6538 68.0935 69.8095 68.9977 68.9126ZM72.2893 82.42C74.0437 80.9571 76.7113 80.5753 78.113 80.4771C77.9954 81.6455 77.5433 83.8659 75.7799 85.3361C74.0301 86.799 71.3624 87.1804 69.9608 87.2786C70.0784 86.1109 70.5305 83.8901 72.2893 82.42ZM77.0911 86.4289C80.1205 83.8988 80.0029 79.8204 79.9984 79.6478C79.9848 79.2396 79.5915 78.9118 79.1032 78.8994C78.8952 78.8948 74.012 78.7966 70.9827 81.3268C70.5757 81.6678 70.2276 82.0375 69.9246 82.4211V79.9869C70.7973 79.2237 73.3203 76.7495 73.3203 73.7221C73.3203 70.1429 69.7845 67.3277 69.6353 67.2099C69.2781 66.93 68.7219 66.93 68.3647 67.2099C68.2155 67.3277 64.6798 70.1429 64.6798 73.7221C64.6798 76.7495 67.2028 79.2237 68.0754 79.9869V82.42C67.7725 82.0367 67.4243 81.6674 67.0174 81.3268C63.988 78.7948 59.1049 78.8922 58.8969 78.8994C58.4086 78.9118 58.0152 79.2396 58.0016 79.6478C57.9971 79.8204 57.8796 83.8988 60.9089 86.4289C63.1696 88.3186 66.4658 88.7426 68.0754 88.834V91.6134C67.7725 91.2301 67.4243 90.8604 67.0174 90.5201C63.988 87.9896 59.1049 88.0859 58.8969 88.092C58.4086 88.1048 58.0152 88.4322 58.0016 88.8404C57.9971 89.013 57.8796 93.0918 60.9089 95.6223C63.1696 97.5116 66.4658 97.9356 68.0754 98.027V100.806C67.7725 100.423 67.4243 100.054 67.0174 99.7131C63.988 97.183 59.1094 97.2793 58.8969 97.285C58.4086 97.2978 58.0152 97.6252 58.0016 98.0338C57.9971 98.2064 57.8796 102.284 60.9089 104.815C63.1742 106.705 66.4658 107.129 68.0754 107.22V112.227C68.0754 112.654 68.4868 113 68.9977 113C69.5087 113 69.9246 112.654 69.9246 112.227V107.22C71.5343 107.128 74.8304 106.705 77.0911 104.815C80.1205 102.284 80.0029 98.2064 79.9984 98.0338C79.9848 97.6252 79.5915 97.2978 79.1032 97.285C78.8907 97.2778 74.0075 97.1838 70.9827 99.7131C70.5757 100.054 70.2276 100.424 69.9246 100.807V98.027C71.5388 97.9356 74.8304 97.5112 77.0911 95.6223C80.1205 93.0918 80.0029 89.013 79.9984 88.8404C79.9848 88.4322 79.5915 88.1048 79.1032 88.092C78.8952 88.0871 74.012 87.9893 70.9827 90.5201C70.5757 90.8604 70.2276 91.2305 69.9246 91.6141V88.834C71.5388 88.7426 74.8304 88.3186 77.0911 86.4289Z" fill="#296A53"/>
<path d="M75.4589 31.5563L78.4753 34.7448M80.6413 30.4878L84.6688 34.7448M58.5326 31.5563L55.5205 34.7448M42.9601 11.8708C45.3884 14.5057 50.0039 18.1071 53.5956 19.6213C56.0789 16.5784 61.1471 14.4897 66.9979 14.4897C72.8445 14.4897 77.9126 16.5784 80.3959 19.6213C83.9918 18.1071 88.6116 14.5057 91.0357 11.8708M53.3545 30.4878L45.5111 38.7848L42.7359 52L53.3545 30.4878ZM38.3954 2C45.2362 2 50.7866 3.16564 50.7866 4.60882V9.95552C50.7866 8.51085 45.2362 7.3467 38.3954 7.3467C31.5462 7.3467 26 8.51085 26 9.95552V4.60882C26 3.16564 31.5462 2 38.3954 2ZM95.6046 2C88.7597 2 83.2092 3.16564 83.2092 4.60882V9.95552C83.2092 8.51085 88.7597 7.3467 95.6046 7.3467C102.445 7.3467 108 8.51085 108 9.95552V4.60882C108 3.16564 102.445 2 95.6046 2ZM100.013 11.6297L85.316 26.9957C83.1246 29.2861 79.2537 31.2248 76.6139 31.2248C70.2046 31.2248 63.7912 31.2248 57.3862 31.2248C54.7421 31.2248 50.8712 29.2861 48.6798 26.9957L33.983 11.6297H100.013Z" stroke="#296A53" stroke-width="3.3" stroke-miterlimit="2.61313" stroke-linecap="round" stroke-linejoin="round"/>
<path d="M102.983 77H58C55.2386 77 53 74.7614 53 72V45C53 42.2386 55.2386 40 58 40H118C120.761 40 123 42.2386 123 45V70.1856" fill="white"/>
<path d="M102.983 77H58C55.2386 77 53 74.7614 53 72V45C53 42.2386 55.2386 40 58 40H118C120.761 40 123 42.2386 123 45V70.1856" stroke="#5B5B5B" stroke-width="2.3" stroke-miterlimit="2.61313" stroke-linecap="round" stroke-linejoin="round"/>
<path d="M113 40V69" stroke="#58595B" stroke-width="1.29508" stroke-miterlimit="2.61313" stroke-linecap="round" stroke-linejoin="round"/>
<path d="M117 56V61" stroke="#0B0C0B" stroke-width="1.29507" stroke-miterlimit="2.61313" stroke-linecap="round" stroke-linejoin="round"/>
<path d="M67 54V63" stroke="#0B0C0B" stroke-width="1.29508" stroke-miterlimit="2.61313" stroke-linecap="round" stroke-linejoin="round"/>
<path d="M74 58H60" stroke="#0B0C0B" stroke-width="1.29508" stroke-miterlimit="2.61313" stroke-linecap="round" stroke-linejoin="round"/>
<path d="M89 56H91.0777M89 63H91.0777H89ZM98.9184 56H101H98.9184Z" stroke="#0B0C0B" stroke-width="1.2951" stroke-miterlimit="2.61313" stroke-linecap="round" stroke-linejoin="round"/>
<path d="M118.974 101C118.958 98.2321 117.049 96.6212 115.293 95.4142C111.88 93.0675 107.651 92.2041 104.663 87.3441C100.5 77.9748 93.3149 76.8667 87 76.4918L118.974 101ZM122.408 48C125.722 50.9573 128.167 52.5282 129.246 57.2517C130.471 61.1475 130.318 69.4287 131.695 78.18C132.577 83.7861 134.09 89.5915 137 94.5464L122.408 48ZM115.425 85.0306C111.064 78.9934 102.936 75.8926 97.2762 71.2165C95.1946 69.6387 94.939 66.8451 96.7156 64.984C98.4839 63.1233 101.613 62.8989 103.698 64.4797C109.263 67.8825 123.29 77.2534 122.408 69.8039" fill="white"/>
<path d="M115.425 85.0306C111.064 78.9934 102.936 75.8926 97.2762 71.2165C95.1946 69.6387 94.939 66.8451 96.7156 64.984C98.4839 63.1233 101.613 62.8989 103.698 64.4797C109.263 67.8825 123.29 77.2534 122.408 69.8039M118.974 101C118.958 98.2321 117.049 96.6212 115.293 95.4142C111.88 93.0675 107.651 92.2041 104.663 87.3441C100.5 77.9748 93.3149 76.8667 87 76.4919L118.974 101ZM122.408 48C125.722 50.9573 128.167 52.5282 129.246 57.2517C130.471 61.1475 130.318 69.4287 131.695 78.18C132.577 83.7861 134.09 89.5915 137 94.5464L122.408 48Z" stroke="#505559" stroke-width="2.3" stroke-miterlimit="2.61313" stroke-linecap="round" stroke-linejoin="round"/>
<path d="M5.99425 50.2407C6.8491 49.9053 7.84504 50.3975 8.21401 51.3379C8.58298 52.2782 8.18755 53.3164 7.3327 53.6518C6.47785 53.9873 5.48193 53.495 5.11296 52.5547C4.74399 51.6143 5.13939 50.5762 5.99425 50.2407ZM8.67244 57.0662C11.2399 56.0588 12.4262 52.9442 11.318 50.1199C10.2098 47.2957 7.222 45.8189 4.6545 46.8263C2.087 47.8338 0.900798 50.9484 2.00897 53.7726C3.11715 56.5969 6.10494 58.0737 8.67244 57.0662Z" fill="#385B48"/>
<path d="M23.9942 30.2407C24.8491 29.9053 25.845 30.3975 26.214 31.3379C26.583 32.2782 26.1875 33.3164 25.3327 33.6518C24.4778 33.9873 23.4819 33.495 23.113 32.5547C22.744 31.6143 23.1394 30.5762 23.9942 30.2407ZM26.6724 37.0662C29.2399 36.0588 30.4262 32.9442 29.318 30.1199C28.2098 27.2957 25.222 25.8189 22.6545 26.8263C20.087 27.8338 18.9008 30.9484 20.009 33.7726C21.1171 36.5969 24.1049 38.0737 26.6724 37.0662Z" fill="#385B48"/>
<path d="M120.994 20.2407C121.849 19.9053 122.845 20.3975 123.214 21.3379C123.583 22.2782 123.188 23.3164 122.333 23.6518C121.478 23.9873 120.482 23.495 120.113 22.5547C119.744 21.6143 120.139 20.5762 120.994 20.2407ZM123.672 27.0662C126.24 26.0588 127.426 22.9442 126.318 20.1199C125.21 17.2957 122.222 15.8189 119.655 16.8263C117.087 17.8338 115.901 20.9484 117.009 23.7726C118.117 26.5969 121.105 28.0737 123.672 27.0662Z" fill="#385B48"/>
</svg>
