<svg width="72" height="114" viewBox="0 0 72 114" fill="none" xmlns="http://www.w3.org/2000/svg">
<path d="M59.5088 20.8743C60.0092 20.3913 60.711 20.1596 61.5002 20.1596C62.8569 20.1596 64.4755 20.8417 65.7583 22.0884C67.7899 24.0662 68.3642 26.8468 67.0108 28.1621C65.6508 29.4773 62.7931 28.9193 60.7614 26.948C58.7264 24.9735 58.1555 22.1929 59.5088 20.8743ZM65.0229 32.2939C66.7355 32.2939 68.3306 31.7358 69.5093 30.5935C72.2663 27.914 71.7055 23.0087 68.2567 19.6602C64.8147 16.3117 59.7674 15.7667 57.0104 18.4461C54.2533 21.1256 54.8142 26.0309 58.2596 29.3762C60.2342 31.2952 62.7293 32.2939 65.0229 32.2939Z" fill="#385B48"/>
<path d="M6.45888 22.256C7.39922 21.8736 8.46479 22.3558 8.83515 23.3342C9.20423 24.3093 8.73936 25.414 7.79902 25.7965C6.85869 26.179 5.79308 25.6968 5.42399 24.7217C5.05364 23.7433 5.51855 22.6385 6.45888 22.256ZM9.13792 29.3337C11.9622 28.185 13.3568 24.8707 12.2495 21.9454C11.141 19.0169 7.94423 17.5701 5.11998 18.7189C2.29573 19.8676 0.901081 23.1819 2.00961 26.1105C3.11686 29.0357 6.31367 30.4825 9.13792 29.3337Z" fill="#385B48"/>
<path d="M23.1867 5.43254C24.0415 5.08483 25.0375 5.5951 25.4065 6.56987C25.7754 7.54463 25.38 8.62084 24.5251 8.96855C23.6703 9.31626 22.6744 8.80598 22.3054 7.83121C21.9364 6.85645 22.3318 5.78025 23.1867 5.43254ZM25.8649 12.508C28.4324 11.4637 29.6186 8.23498 28.5104 5.30733C27.4023 2.37968 24.4144 0.848788 21.8469 1.89311C19.2794 2.93743 18.0932 6.1661 19.2014 9.09375C20.3096 12.0214 23.2974 13.5523 25.8649 12.508Z" fill="#385B48"/>
<path d="M58.2126 99.638C57.8695 101.221 57.406 102.349 56.5491 103.693C55.0941 105.978 52.6842 107.886 50.123 108.761C48.5827 109.288 47.3224 109.484 45.7848 109.495C38.758 109.495 31.7299 109.495 24.7031 109.495C23.7173 109.495 22.7328 109.5 21.747 109.495C19.1284 109.482 16.7255 108.79 14.4906 107.318C12.2291 105.831 10.3933 103.399 9.58807 100.831C8.93833 98.7605 8.96494 96.6822 9.03355 94.415C9.11757 91.6751 10.2504 88.847 12.1072 86.8026C14.1181 84.5898 16.5896 83.2341 19.6073 82.7084C19.7642 82.6812 19.9336 82.6581 20.1114 82.6391C23.9931 82.6337 27.8748 82.6147 31.7565 82.6147C36.6884 82.6147 41.6217 82.6147 46.555 82.6147C48.1248 82.7288 49.6315 83.0018 51.022 83.6362C53.7666 84.8886 55.8041 86.808 57.1554 89.4012C58.2966 91.5896 58.4563 93.8757 58.4563 96.4553C58.4563 97.6072 58.4255 98.6573 58.2126 99.638ZM12.7346 78.9606C12.0484 78.9606 11.3623 78.9511 10.6761 78.9606C10.6159 78.9606 10.5557 78.9592 10.4955 78.9565C10.3806 78.9511 10.123 78.9049 9.95916 78.8234C9.96476 78.8275 9.6791 78.6332 9.63289 78.6142C9.53486 78.515 9.33461 78.314 9.44524 78.4539C9.04195 77.9418 9.09376 77.8032 9.09376 77.2219C9.09376 77.1308 9.09096 77.0385 9.09376 76.9475C9.09797 76.851 9.09796 76.7967 9.09516 76.7627C9.10496 76.7315 9.11616 76.6866 9.13017 76.6228C9.15117 76.5304 9.16518 76.4734 9.17218 76.4448C9.22119 76.3443 9.27581 76.2465 9.33462 76.1528C9.36963 76.1025 9.39484 76.0645 9.41444 76.0373C9.82193 75.5728 10.1804 75.4885 10.7083 75.4831C10.9534 75.4818 11.197 75.4831 11.4421 75.4831C12.5525 75.4831 13.6616 75.4831 14.772 75.4831C23.3546 75.4831 31.9371 75.4831 40.521 75.4831C44.1745 75.4831 47.8279 75.4831 51.4827 75.4831C52.3635 75.4831 53.2457 75.4831 54.1279 75.4831C54.2889 75.4831 54.457 75.4763 54.6194 75.4858C54.548 75.4885 54.8981 75.5537 54.9877 75.57C55.0381 75.5891 55.1067 75.6135 55.1193 75.6203C55.1137 75.6162 55.3868 75.8023 55.4428 75.8281C55.545 75.9341 55.7733 76.1664 55.6332 75.9898C56.0547 76.525 55.9903 76.6921 55.9847 77.3536C55.9749 78.2719 55.3826 78.9321 54.4752 78.9606C51.9574 78.9606 49.4382 78.9606 46.9191 78.9606C46.1727 78.9103 45.4249 78.8954 44.6716 78.8954C40.535 78.8954 36.3971 78.8954 32.2592 78.8954C28.792 78.8954 25.3248 78.8886 21.8576 78.8954C21.3787 78.8954 20.9012 78.9198 20.4265 78.9606C17.8625 78.9606 15.2986 78.9606 12.7346 78.9606ZM23.7425 63.2331C22.6964 63.2263 21.649 63.2155 20.6016 63.2019C20.138 63.1964 19.6717 63.2005 19.2082 63.1815C19.0458 63.1747 18.8848 63.1611 18.7237 63.1503C18.6943 63.1475 18.6733 63.1475 18.6551 63.1462C18.6271 63.138 18.5907 63.1285 18.5361 63.1163C18.2742 63.0525 18.0152 62.9873 17.7547 62.9153C17.6973 62.9003 17.4873 62.8161 17.4788 62.8147C17.4606 62.8066 17.441 62.7984 17.4228 62.7889C17.1806 62.664 16.9481 62.5308 16.7143 62.3909C16.6723 62.3665 16.563 62.2836 16.5126 62.2456C16.4594 62.2021 16.4048 62.16 16.353 62.1152C16.1542 61.9399 15.9651 61.7538 15.7873 61.5596C15.7285 61.4944 15.6738 61.4237 15.6122 61.3613C15.6052 61.3531 15.5996 61.3477 15.594 61.3409C15.5884 61.3327 15.5842 61.3259 15.5772 61.3151C15.2818 60.8627 14.9821 60.4294 14.7356 59.9485C14.6838 59.848 14.5144 59.4717 14.5214 59.503C14.4388 59.3006 14.3589 59.0982 14.2861 58.8931C14.1041 58.3864 13.9515 57.8702 13.8212 57.3499C13.705 56.8867 13.6084 56.4194 13.5258 55.9508C13.4908 55.7525 13.4613 55.5528 13.4291 55.3531C13.4291 55.3504 13.4291 55.3477 13.4277 55.3436C13.4137 55.2091 13.3955 55.0733 13.3801 54.9388C13.3213 54.4049 13.2751 53.8643 13.2471 53.3237C14.9975 53.3019 16.7479 53.3006 18.4983 53.2992C19.9896 53.2978 21.4809 53.2992 22.9723 53.3033C24.2284 53.306 25.2884 53.2693 26.3386 53.541C28.1913 54.0191 29.775 55.1765 30.744 56.7482C31.5758 58.0957 31.7915 59.3549 31.7915 60.9673C31.7915 61.7172 31.7915 62.467 31.7915 63.2182C30.8841 63.2291 29.9767 63.2345 29.0679 63.2386C27.2937 63.2467 25.5181 63.244 23.7425 63.2331ZM17.5293 62.8392C17.5615 62.8528 17.6063 62.8732 17.6749 62.903C17.6273 62.8827 17.5783 62.8609 17.5293 62.8392ZM25.4102 42.7105C22.5578 39.4219 22.2371 34.3795 24.5672 30.6426C26.8848 26.926 31.566 24.9007 35.921 25.7714C38.492 26.2862 40.465 27.4843 42.1888 29.3915C43.7768 31.1493 44.6436 33.6894 44.6646 36.0897C44.6268 40.4121 41.8079 44.4778 37.649 45.934C33.2044 47.4894 28.4475 46.2152 25.4102 42.7105ZM37.2345 64.4502C37.2247 64.4638 37.5174 64.2465 37.5538 64.2234C37.7666 64.0903 37.9879 63.9653 38.2161 63.8593C38.1685 63.8879 38.6096 63.7167 38.5956 63.7208C38.7958 63.6583 39.0003 63.6053 39.2062 63.5632C39.4848 63.5062 40.0519 63.4953 40.5462 63.4939C41.203 63.4926 41.8611 63.4912 42.5179 63.4912C44.0162 63.4899 45.516 63.4871 47.0157 63.5007C47.0143 63.5102 47.0143 63.5211 47.0129 63.5306C46.9933 63.7656 46.9667 63.9993 46.9401 64.2343C46.9331 64.2845 46.9219 64.3606 46.9093 64.4367C46.8771 64.6255 46.8421 64.8143 46.8029 65.0031C46.6656 65.6646 46.4598 66.2949 46.2301 66.9293C46.2231 66.9483 46.2189 66.9619 46.2161 66.9741C46.1993 67.0027 46.1755 67.0448 46.1405 67.11C46.0677 67.2499 45.9949 67.3885 45.9151 67.5243C45.8352 67.6601 45.7484 67.7892 45.6616 67.9196C45.6294 67.9698 45.593 68.0174 45.558 68.0649C45.5426 68.0812 45.5244 68.1002 45.502 68.122C45.3913 68.2307 45.2849 68.342 45.1729 68.4493C45.1281 68.4942 45.0791 68.5322 45.0315 68.573H45.0301C44.8928 68.6463 44.7542 68.7333 44.6212 68.8134C44.5623 68.8487 44.4965 68.8718 44.4349 68.9031C44.8354 68.6993 44.4685 68.8908 44.3565 68.918C44.1899 68.9601 44.026 69.0022 43.858 69.0389C43.7894 69.0443 43.7194 69.0511 43.6493 69.0552C42.8988 69.0932 42.1412 69.0783 41.3892 69.0851C40.1416 69.0959 38.8953 69.1014 37.6476 69.0987C36.974 69.0973 36.3005 69.0946 35.6255 69.0878C35.6255 68.6898 35.6255 68.2918 35.6255 67.8938C35.6339 66.5218 36.1156 65.3726 37.2345 64.4502ZM46.9471 64.1799C46.9471 64.1758 46.9471 64.1758 46.9471 64.1799V64.1799ZM45.5664 68.0554C45.6238 67.9848 45.6322 67.9861 45.5664 68.0554V68.0554ZM62.2105 94.2018C62.0481 90.6265 60.6632 87.2644 58.3078 84.5205C57.6301 83.7313 56.8613 83.0072 56.0253 82.362C57.441 81.9328 58.6411 80.9792 59.2671 79.6085C59.9896 78.0247 59.9406 76.0129 59.0976 74.4779C58.0698 72.6101 56.0645 71.829 53.9921 71.829C51.5863 71.829 49.1792 71.829 46.7734 71.829C49.3472 70.2995 50.3611 67.0978 50.7069 64.2574C50.8092 63.4138 50.8708 62.5526 50.8302 61.7022C50.7825 60.6984 50.0054 59.8969 48.9467 59.8738C46.5214 59.8208 44.0961 59.8317 41.6707 59.8371C40.3712 59.8385 39.0577 59.7882 37.7946 60.1373C37.0202 60.3506 36.2949 60.678 35.6255 61.0964C35.6255 57.877 35.6255 54.6576 35.6255 51.4382C35.6255 51.0022 35.6255 50.5661 35.6255 50.1301C35.9882 50.0907 36.3509 50.0377 36.7122 49.9711C43.4897 48.7269 48.3754 42.6983 48.4328 36.0897C48.381 30.1155 44.5133 24.826 38.7482 22.7544C33.1134 20.7304 26.4045 22.5235 22.6138 27.0374C18.7419 31.6478 18.116 38.2455 21.3143 43.3816C23.6388 47.1131 27.5653 49.4943 31.8587 50.0812C31.8587 50.85 31.8587 51.6202 31.8587 52.3904C30.9975 51.6474 30.0201 51.0321 28.9768 50.5919C26.2518 49.4414 23.349 49.6451 20.4405 49.6438C17.4116 49.6411 14.3814 49.6343 11.3539 49.7008C10.2994 49.7239 9.51947 50.5213 9.47046 51.5292C9.31222 54.7649 9.85974 58.2125 11.1928 61.1819C12.2151 63.4627 13.9361 65.3712 16.353 66.2963C17.9018 66.8886 19.5611 66.8465 21.1995 66.8655C23.272 66.8886 25.3458 66.9008 27.4183 66.8981C28.8984 66.8967 30.3786 66.8926 31.8587 66.8723C31.8587 67.1684 31.8587 67.4645 31.8587 67.7606C31.8405 68.8025 31.8587 69.8458 31.8587 70.8877C31.8587 71.2015 31.8587 71.5152 31.8587 71.829C27.1368 71.829 22.415 71.829 17.6945 71.829C15.3644 71.829 13.0301 71.7883 10.6999 71.829C7.49741 71.8847 5.29611 74.3054 5.32692 77.3536C5.35492 80.3217 7.68505 82.5889 10.7461 82.6147C10.8848 82.616 11.0248 82.6174 11.1634 82.6174C9.38223 84.0396 7.9063 85.83 6.89388 87.9178C5.53977 90.7107 5.2597 93.5524 5.2597 96.5912C5.2597 99.6869 5.92065 102.686 7.57442 105.366C10.6565 110.361 16.2046 113.15 22.1377 113.15C29.7974 113.15 37.4572 113.15 45.1155 113.15C45.3395 113.15 45.5622 113.15 45.7848 113.15C53.0357 113.098 59.5737 108.393 61.5902 101.606C62.2959 99.2292 62.3211 96.6618 62.2105 94.2018Z" fill="#296A53"/>
<path d="M35.5841 42.0148V41.7961C37.1774 41.2868 38.2597 39.8708 38.2597 38.2294C38.2597 36.7841 37.3711 35.4494 35.9969 34.8268L35.5547 34.6268C35.535 34.6174 35.5154 34.6108 35.4957 34.6041C34.6268 34.3134 33.9614 33.9961 33.8449 33.8681C33.8295 33.8508 33.8112 33.8321 33.7944 33.8174C33.7817 33.8068 33.7691 33.7974 33.7565 33.7881C33.5627 33.6508 33.4518 33.4361 33.4518 33.1988C33.4518 32.9761 33.5473 32.7721 33.72 32.6254C33.7242 32.6241 33.727 32.6228 33.7298 32.6214C33.7887 32.5988 34.0021 32.5268 34.3039 32.5268C34.5594 32.5268 34.7559 32.6201 34.8289 32.6601C34.8289 32.6614 34.8289 32.6614 34.8289 32.6614C34.9567 32.7774 35.0395 32.9294 35.0704 33.1014C35.1013 33.4174 35.3974 33.6761 35.7456 33.6761H37.1451C37.5185 33.6761 37.8217 33.3868 37.8217 33.0321C37.8217 31.6641 36.9374 30.5014 35.5841 30.0374V29.8267C35.5841 29.4721 35.2795 29.1841 34.9061 29.1841H33.7171C33.3381 29.1841 33.0405 29.4667 33.0405 29.8267V30.0348C31.6424 30.5081 30.6977 31.7588 30.6977 33.1988C30.6977 34.4921 31.4894 35.6854 32.7233 36.2401L33.2511 36.4694C33.275 36.4801 33.3002 36.4881 33.3255 36.4948L34.8598 37.2108C34.8809 37.2201 34.9033 37.2281 34.9244 37.2348C34.9286 37.2374 34.9314 37.2388 34.9356 37.2414C35.2922 37.4574 35.5055 37.8268 35.5055 38.2294C35.5055 38.6334 35.2922 39.0028 34.9356 39.2188C34.9047 39.2374 34.8753 39.2601 34.8486 39.2854C34.8416 39.2921 34.8261 39.3068 34.8261 39.3068C34.7222 39.3534 34.4962 39.4401 34.2436 39.4401C34.0779 39.4401 33.9319 39.4041 33.8 39.3294C33.7677 39.3121 33.734 39.2961 33.7017 39.2801C33.6919 39.2748 33.6807 39.2708 33.6708 39.2654C33.6708 39.2654 33.654 39.2561 33.6442 39.2508C33.5627 39.2054 33.4869 39.1508 33.4139 39.0854C33.1921 38.8894 33.049 38.6241 33.0125 38.3401C32.99 38.0174 32.6896 37.7521 32.3373 37.7521H30.9377C30.5573 37.7521 30.2597 38.0348 30.2597 38.3961C30.2597 38.4028 30.2597 38.4094 30.2611 38.4161C30.3341 39.9881 31.4782 41.3628 33.0405 41.8228V42.0148C33.0405 42.3761 33.3381 42.6601 33.7171 42.6601H34.9061C35.2795 42.6601 35.5841 42.3708 35.5841 42.0148Z" fill="#385B48"/>
</svg>
