<svg width="104" height="107" viewBox="0 0 104 107" fill="none" xmlns="http://www.w3.org/2000/svg">
<path d="M78.8453 26.5018C80.2082 25.2155 81.928 24.5136 83.3695 24.5136C84.208 24.5136 84.9537 24.7521 85.4853 25.2491C86.9232 26.6059 86.3131 29.4672 84.1545 31.499C81.9958 33.5308 78.9559 34.1051 77.5144 32.7517C76.0765 31.3949 76.6866 28.5336 78.8453 26.5018ZM79.6266 37C82.06 37 84.7146 35.9723 86.8126 33.9976C90.4734 30.5553 91.0693 25.5077 88.1399 22.7505C85.207 19.9933 79.8479 20.5542 76.1907 24.0032C72.5263 27.4455 71.9305 32.493 74.8598 35.2502C76.1122 36.429 77.807 37 79.6266 37Z" fill="#385B48"/>
<path d="M19.2491 17.9838C19.7495 17.5178 20.4513 17.2942 21.2405 17.2942C22.5972 17.2942 24.2158 17.9522 25.4986 19.1549C27.5302 21.0629 28.1045 23.7453 26.7511 25.0141C25.3911 26.2829 22.5334 25.7445 20.5017 23.8429C18.4667 21.9381 17.8958 19.2557 19.2491 17.9838ZM24.7632 29C26.4758 29 28.0709 28.4616 29.2496 27.3596C32.0066 24.7748 31.4458 20.0428 27.997 16.8125C24.5549 13.5823 19.5077 13.0565 16.7507 15.6413C13.9936 18.2262 14.5545 22.9582 17.9999 26.1853C19.9745 28.0366 22.4696 29 24.7632 29Z" fill="#385B48"/>
<path d="M41.5 12.6655C42.5102 12.6655 43.3322 13.4878 43.3322 14.5017C43.3322 15.5122 42.5102 16.3345 41.5 16.3345C40.4899 16.3345 39.6678 15.5122 39.6678 14.5017C39.6678 13.4878 40.4899 12.6655 41.5 12.6655ZM41.5 20C44.5339 20 47 17.5331 47 14.5017C47 11.4669 44.5339 9 41.5 9C38.4661 9 36 11.4669 36 14.5017C36 17.5331 38.4661 20 41.5 20Z" fill="#385B48"/>
<path d="M63 3.66785C63.9183 3.66785 64.6656 4.48987 64.6656 5.5C64.6656 6.51013 63.9183 7.33215 63 7.33215C62.0817 7.33215 61.3344 6.51013 61.3344 5.5C61.3344 4.48987 62.0817 3.66785 63 3.66785ZM63 11C65.7581 11 68 8.53387 68 5.5C68 2.46613 65.7581 0 63 0C60.2419 0 58 2.46613 58 5.5C58 8.53387 60.2419 11 63 11Z" fill="#385B48"/>
<path d="M99.6827 73.266C99.6827 81.605 95.5844 89.5696 88.7145 94.5724L86.2764 96.3468H18.0365L15.5984 94.5724C8.72858 89.5696 4.63027 81.605 4.63027 73.266V67.9394H99.6827V73.266ZM85.0608 103.448H19.2521V99.899H85.0608V103.448ZM5.79031 44.5178C8.64174 41.7483 13.2784 41.7449 16.0186 44.393C16.0638 44.4504 16.168 44.5752 16.2236 44.6292C16.8348 45.2465 17.8177 45.3545 18.554 44.8755C21.4402 43.01 25.3127 43.3878 27.7647 45.7728C28.3239 46.3159 28.758 46.9433 29.1054 47.6214C25.8372 52.2969 25.3857 58.3454 27.8273 63.4055L21.8396 57.5898V56.2472C21.8396 54.8236 22.4092 53.4877 23.4442 52.4791L25.1807 50.7924L22.5968 48.2826L20.8602 49.9693C19.6238 51.1702 18.8041 52.6613 18.4255 54.2771L14.8412 50.7924L12.2573 53.3055L15.8415 56.7903C14.1779 57.1546 12.6428 57.9507 11.4063 59.1517L9.66979 60.8384L12.2538 63.3482L13.9903 61.6615C15.0253 60.6562 16.4042 60.103 17.8698 60.103H19.2521L23.6665 64.3872H5.9466C4.57471 62.0831 4.63028 59.1483 6.1654 56.9117C6.65858 56.1898 6.54397 55.2284 5.8945 54.6347C5.8424 54.5874 5.78684 54.5402 5.7278 54.4964C2.94235 51.7234 2.96319 47.2638 5.79031 44.5178ZM48.1311 64.3872H32.766C29.0811 59.9545 29.0047 53.6497 32.4535 49.163L48.1311 64.3872ZM40.5041 45.2094C38.6148 43.8432 37.5312 41.7753 37.5312 39.532C37.5312 36.162 40.0005 33.2338 43.3972 32.5726C44.269 32.4006 44.8872 31.645 44.8629 30.7814C44.8594 30.6734 44.849 30.5924 44.8455 30.6532C44.8455 26.7366 48.1242 23.5522 52.1565 23.5522C56.1888 23.5522 59.4674 26.7366 59.4778 30.4845C59.4674 30.5553 59.4535 30.7105 59.45 30.7814C59.4257 31.645 60.0439 32.4006 60.9157 32.5726C64.3124 33.2338 66.7818 36.162 66.7818 39.532C61.1866 39.532 56.4492 45.26 53.9833 52.2801V43.8162L54.9627 42.8683C55.9838 41.8765 57.3974 41.3064 58.8422 41.3064H61.2977V37.7576H58.8422C57.0918 37.7576 55.4281 38.2467 53.9833 39.1339V34.2054H50.3296V39.1339C48.8848 38.2467 47.2212 37.7576 45.4707 37.7576H43.0152V41.3064H45.4707C46.9155 41.3064 48.3291 41.8765 49.3502 42.8683L50.3296 43.8162V53.3359C48.8848 52.4521 47.2212 51.9596 45.4707 51.9596H43.0152V54.4019L38.5905 50.1008C39.0836 49.3148 39.7296 48.6165 40.5007 48.0565C40.9661 47.7226 41.237 47.1964 41.237 46.633C41.237 46.073 40.9661 45.5434 40.5041 45.2094ZM50.3296 61.5029L44.1579 55.5118H45.4707C46.9155 55.5118 48.3291 56.0785 49.3502 57.0703L50.3296 58.0216V61.5029ZM63.1246 64.3872C63.1246 62.4306 64.7639 60.8384 66.7818 60.8384C68.7962 60.8384 70.4355 62.4306 70.4355 64.3872H63.1246ZM77.7464 62.6128C77.7464 63.2234 77.7152 63.8137 77.6665 64.3872H74.0927C74.0927 60.4706 70.8106 57.2862 66.7818 57.2862C62.7495 57.2862 59.4674 60.4706 59.4674 64.3872H55.9144C55.8623 63.8069 55.8137 63.2267 55.8137 62.6128C55.8137 52.9379 61.3463 43.0841 66.7818 43.0841C72.2137 43.0841 77.7464 52.9379 77.7464 62.6128ZM79.1287 51.0926L80.5562 52.4791C81.5738 53.4708 82.1608 54.8439 82.1608 56.2472V57.5932L81.1188 58.6052C80.7611 56.0347 80.0734 53.4742 79.1287 51.0926ZM85.4463 44.8755C86.1826 45.3545 87.1655 45.2465 87.7768 44.6292C87.8323 44.5752 87.881 44.5179 87.9296 44.4572C90.788 41.7483 95.376 41.7685 98.2066 44.5178C99.5889 45.8571 100.349 47.6416 100.349 49.5375C100.349 51.403 99.6132 53.1571 98.2656 54.5031C98.2031 54.5503 98.1301 54.6111 98.0919 54.6482C97.4529 55.2419 97.3452 56.1966 97.835 56.9117C99.3701 59.1517 99.4256 62.0831 98.0538 64.3872H81.3411C81.3654 64.0397 81.3689 63.6788 81.3793 63.3245L81.4036 63.3482L84.7447 60.103H86.1305C87.5754 60.103 88.9854 60.6697 90.0065 61.6615L91.7431 63.3482L94.3271 60.8384L92.594 59.1517C91.3576 57.9507 89.8225 57.1546 88.1554 56.7903L91.7431 53.3055L89.1591 50.7924L85.5713 54.2771C85.1962 52.6613 84.3766 51.1702 83.1402 49.9693L81.4036 48.2826L78.962 50.6541C78.2188 48.8628 77.3227 47.1963 76.3051 45.7154C78.7606 43.3911 82.5845 43.0302 85.4463 44.8755ZM102.034 64.4918C103.034 61.8032 102.902 58.784 101.61 56.1864C105.049 52.0068 104.778 45.8773 100.791 42.0047C96.8069 38.132 90.4858 37.8722 86.193 41.2119C82.1955 39.3262 77.3505 40.0009 74.0232 42.9492C72.9014 41.836 71.6823 40.9657 70.3903 40.3753C70.4147 40.0953 70.4355 39.812 70.4355 39.532C70.4355 34.961 67.4069 30.9298 63.0551 29.4658C62.4473 24.1493 57.7899 20 52.1565 20C46.5231 20 41.8656 24.1493 41.2578 29.4658C36.906 30.9298 33.8774 34.961 33.8774 39.532C33.8774 42.197 34.8881 44.6967 36.7045 46.6364C36.4336 46.9265 36.201 47.2402 35.9683 47.5539L33.6551 45.3072C33.1307 44.8012 32.3736 44.6731 31.7206 44.9092C31.3212 44.3222 30.8697 43.7656 30.3487 43.2596C27.0215 40.0279 21.9473 39.2587 17.8038 41.2119C13.5041 37.8722 7.19343 38.1354 3.20629 42.0047C-0.777378 45.8773 -1.04828 52.0068 2.39011 56.1864C1.08769 58.8109 0.969601 61.8706 2.00806 64.5828C1.40027 64.873 0.973081 65.4633 0.973081 66.165V73.266C0.973081 82.7149 5.62013 91.7421 13.4034 97.4128L15.5984 99.0084V105.226C15.5984 106.204 16.4146 107 17.4253 107H86.8877C87.8983 107 88.7145 106.204 88.7145 105.226V99.0084L90.9095 97.4128C98.6928 91.7421 103.34 82.7149 103.34 73.266V66.165C103.34 65.3621 102.784 64.7144 102.034 64.4918Z" fill="#296A53"/>
</svg>
